<svg width="34" height="354" viewBox="0 0 34 354" fill="none" xmlns="http://www.w3.org/2000/svg">
<path d="M6.50928 0.299316L4.69287 11H3.02295L4.50977 2.48193L2.29053 3.35352L2.56152 1.78613L6.26758 0.299316H6.50928ZM9.70703 6.0415L8.35938 5.68262L9.67773 0.335938H14.4678L14.2261 1.8667H10.8423L10.1538 4.4375C10.3442 4.31055 10.5469 4.21045 10.7617 4.13721C10.9814 4.05908 11.2085 4.01758 11.4429 4.0127C11.9214 4.01758 12.3096 4.12988 12.6074 4.34961C12.9102 4.56445 13.1421 4.84766 13.3032 5.19922C13.4692 5.55078 13.5767 5.93408 13.6255 6.34912C13.6743 6.75928 13.6816 7.15479 13.6475 7.53564C13.6084 7.99951 13.5059 8.45117 13.3398 8.89062C13.1738 9.3252 12.9492 9.71582 12.666 10.0625C12.3877 10.4043 12.0483 10.6753 11.6479 10.8755C11.2476 11.0757 10.7935 11.1685 10.2856 11.1538C9.85107 11.144 9.47266 11.0562 9.15039 10.8901C8.83301 10.7192 8.56689 10.4897 8.35205 10.2017C8.14209 9.91357 7.9834 9.58887 7.87598 9.22754C7.77344 8.86621 7.72217 8.49023 7.72217 8.09961H9.34082C9.3457 8.33398 9.375 8.57324 9.42871 8.81738C9.4873 9.06152 9.58984 9.26904 9.73633 9.43994C9.8877 9.61084 10.105 9.69873 10.3882 9.70361C10.6763 9.71338 10.9155 9.64746 11.106 9.50586C11.3013 9.35938 11.46 9.17139 11.582 8.94189C11.7041 8.70752 11.7944 8.46094 11.853 8.20215C11.9165 7.93848 11.958 7.69434 11.9775 7.46973C11.9971 7.27441 11.9995 7.06201 11.9849 6.83252C11.9751 6.59814 11.936 6.37598 11.8677 6.16602C11.7993 5.95117 11.6895 5.77539 11.5381 5.63867C11.3867 5.50195 11.1816 5.43359 10.9229 5.43359C10.6592 5.42383 10.4346 5.47754 10.249 5.59473C10.0635 5.71191 9.88281 5.86084 9.70703 6.0415ZM20.4927 4.77441L20.229 6.51025C20.1509 7.01807 20.0386 7.54541 19.8921 8.09229C19.7456 8.63916 19.5381 9.14697 19.2695 9.61572C19.0059 10.0845 18.6616 10.4629 18.2368 10.751C17.812 11.0342 17.2847 11.166 16.6548 11.1465C16.1714 11.1367 15.7783 11.0293 15.4756 10.8242C15.1729 10.6143 14.936 10.3433 14.7651 10.0112C14.5991 9.6792 14.4844 9.31299 14.4209 8.9126C14.3623 8.50732 14.3379 8.09717 14.3477 7.68213C14.3574 7.26709 14.3867 6.87891 14.4355 6.51758L14.6992 4.77441C14.7725 4.2666 14.8823 3.7417 15.0288 3.19971C15.1802 2.65771 15.3877 2.15479 15.6514 1.69092C15.9199 1.22705 16.2666 0.855957 16.6914 0.577637C17.1211 0.299316 17.6484 0.169922 18.2734 0.189453C18.752 0.199219 19.1426 0.306641 19.4453 0.511719C19.7529 0.716797 19.9897 0.98291 20.1558 1.31006C20.3218 1.63721 20.4341 1.99854 20.4927 2.39404C20.5562 2.78955 20.583 3.19482 20.5732 3.60986C20.5635 4.02002 20.5366 4.4082 20.4927 4.77441ZM18.5371 6.77393L18.8667 4.49609C18.8862 4.35449 18.9082 4.16895 18.9326 3.93945C18.9619 3.70508 18.979 3.45605 18.9839 3.19238C18.9937 2.92871 18.9766 2.67969 18.9326 2.44531C18.8887 2.21094 18.8032 2.01562 18.6763 1.85938C18.5493 1.70313 18.3662 1.62012 18.127 1.61035C17.79 1.58594 17.5142 1.67871 17.2993 1.88867C17.0894 2.09375 16.9233 2.35498 16.8013 2.67236C16.6792 2.98975 16.5889 3.31689 16.5303 3.65381C16.4717 3.98584 16.4253 4.26904 16.3911 4.50342L16.0615 6.78125C16.0469 6.91797 16.0249 7.10352 15.9956 7.33789C15.9712 7.57227 15.9541 7.82373 15.9443 8.09229C15.9395 8.36084 15.9565 8.61719 15.9956 8.86133C16.0396 9.10059 16.1226 9.30078 16.2446 9.46191C16.3667 9.61816 16.5498 9.70361 16.7939 9.71826C17.1309 9.74268 17.4067 9.6499 17.6216 9.43994C17.8364 9.22998 18.0024 8.96143 18.1196 8.63428C18.2417 8.30713 18.332 7.9751 18.3906 7.63818C18.4541 7.29639 18.5029 7.0083 18.5371 6.77393ZM27.0229 4.77441L26.7593 6.51025C26.6812 7.01807 26.5688 7.54541 26.4224 8.09229C26.2759 8.63916 26.0684 9.14697 25.7998 9.61572C25.5361 10.0845 25.1919 10.4629 24.7671 10.751C24.3423 11.0342 23.8149 11.166 23.1851 11.1465C22.7017 11.1367 22.3086 11.0293 22.0059 10.8242C21.7031 10.6143 21.4663 10.3433 21.2954 10.0112C21.1294 9.6792 21.0146 9.31299 20.9512 8.9126C20.8926 8.50732 20.8682 8.09717 20.8779 7.68213C20.8877 7.26709 20.917 6.87891 20.9658 6.51758L21.2295 4.77441C21.3027 4.2666 21.4126 3.7417 21.5591 3.19971C21.7104 2.65771 21.918 2.15479 22.1816 1.69092C22.4502 1.22705 22.7969 0.855957 23.2217 0.577637C23.6514 0.299316 24.1787 0.169922 24.8037 0.189453C25.2822 0.199219 25.6729 0.306641 25.9756 0.511719C26.2832 0.716797 26.52 0.98291 26.686 1.31006C26.8521 1.63721 26.9644 1.99854 27.0229 2.39404C27.0864 2.78955 27.1133 3.19482 27.1035 3.60986C27.0938 4.02002 27.0669 4.4082 27.0229 4.77441ZM25.0674 6.77393L25.397 4.49609C25.4165 4.35449 25.4385 4.16895 25.4629 3.93945C25.4922 3.70508 25.5093 3.45605 25.5142 3.19238C25.5239 2.92871 25.5068 2.67969 25.4629 2.44531C25.4189 2.21094 25.3335 2.01562 25.2065 1.85938C25.0796 1.70313 24.8965 1.62012 24.6572 1.61035C24.3203 1.58594 24.0444 1.67871 23.8296 1.88867C23.6196 2.09375 23.4536 2.35498 23.3315 2.67236C23.2095 2.98975 23.1191 3.31689 23.0605 3.65381C23.002 3.98584 22.9556 4.26904 22.9214 4.50342L22.5918 6.78125C22.5771 6.91797 22.5552 7.10352 22.5259 7.33789C22.5015 7.57227 22.4844 7.82373 22.4746 8.09229C22.4697 8.36084 22.4868 8.61719 22.5259 8.86133C22.5698 9.10059 22.6528 9.30078 22.7749 9.46191C22.897 9.61816 23.0801 9.70361 23.3242 9.71826C23.6611 9.74268 23.937 9.6499 24.1519 9.43994C24.3667 9.22998 24.5327 8.96143 24.6499 8.63428C24.772 8.30713 24.8623 7.9751 24.9209 7.63818C24.9844 7.29639 25.0332 7.0083 25.0674 6.77393ZM33.5532 4.77441L33.2896 6.51025C33.2114 7.01807 33.0991 7.54541 32.9526 8.09229C32.8062 8.63916 32.5986 9.14697 32.3301 9.61572C32.0664 10.0845 31.7222 10.4629 31.2974 10.751C30.8726 11.0342 30.3452 11.166 29.7153 11.1465C29.2319 11.1367 28.8389 11.0293 28.5361 10.8242C28.2334 10.6143 27.9966 10.3433 27.8257 10.0112C27.6597 9.6792 27.5449 9.31299 27.4814 8.9126C27.4229 8.50732 27.3984 8.09717 27.4082 7.68213C27.418 7.26709 27.4473 6.87891 27.4961 6.51758L27.7598 4.77441C27.833 4.2666 27.9429 3.7417 28.0894 3.19971C28.2407 2.65771 28.4482 2.15479 28.7119 1.69092C28.9805 1.22705 29.3271 0.855957 29.752 0.577637C30.1816 0.299316 30.709 0.169922 31.334 0.189453C31.8125 0.199219 32.2031 0.306641 32.5059 0.511719C32.8135 0.716797 33.0503 0.98291 33.2163 1.31006C33.3823 1.63721 33.4946 1.99854 33.5532 2.39404C33.6167 2.78955 33.6436 3.19482 33.6338 3.60986C33.624 4.02002 33.5972 4.4082 33.5532 4.77441ZM31.5977 6.77393L31.9272 4.49609C31.9468 4.35449 31.9688 4.16895 31.9932 3.93945C32.0225 3.70508 32.0396 3.45605 32.0444 3.19238C32.0542 2.92871 32.0371 2.67969 31.9932 2.44531C31.9492 2.21094 31.8638 2.01562 31.7368 1.85938C31.6099 1.70313 31.4268 1.62012 31.1875 1.61035C30.8506 1.58594 30.5747 1.67871 30.3599 1.88867C30.1499 2.09375 29.9839 2.35498 29.8618 2.67236C29.7397 2.98975 29.6494 3.31689 29.5908 3.65381C29.5322 3.98584 29.4858 4.26904 29.4517 4.50342L29.1221 6.78125C29.1074 6.91797 29.0854 7.10352 29.0562 7.33789C29.0317 7.57227 29.0146 7.82373 29.0049 8.09229C29 8.36084 29.0171 8.61719 29.0562 8.86133C29.1001 9.10059 29.1831 9.30078 29.3052 9.46191C29.4272 9.61816 29.6104 9.70361 29.8545 9.71826C30.1914 9.74268 30.4673 9.6499 30.6821 9.43994C30.897 9.22998 31.063 8.96143 31.1802 8.63428C31.3022 8.30713 31.3926 7.9751 31.4512 7.63818C31.5146 7.29639 31.5635 7.0083 31.5977 6.77393ZM3.17676 60.0415L1.8291 59.6826L3.14746 54.3359H7.9375L7.6958 55.8667H4.31201L3.62354 58.4375C3.81396 58.3105 4.0166 58.2104 4.23145 58.1372C4.45117 58.0591 4.67822 58.0176 4.9126 58.0127C5.39111 58.0176 5.7793 58.1299 6.07715 58.3496C6.37988 58.5645 6.61182 58.8477 6.77295 59.1992C6.93896 59.5508 7.04639 59.9341 7.09521 60.3491C7.14404 60.7593 7.15137 61.1548 7.11719 61.5356C7.07812 61.9995 6.97559 62.4512 6.80957 62.8906C6.64355 63.3252 6.41895 63.7158 6.13574 64.0625C5.85742 64.4043 5.51807 64.6753 5.11768 64.8755C4.71729 65.0757 4.26318 65.1685 3.75537 65.1538C3.3208 65.144 2.94238 65.0562 2.62012 64.8901C2.30273 64.7192 2.03662 64.4897 1.82178 64.2017C1.61182 63.9136 1.45312 63.5889 1.3457 63.2275C1.24316 62.8662 1.19189 62.4902 1.19189 62.0996H2.81055C2.81543 62.334 2.84473 62.5732 2.89844 62.8174C2.95703 63.0615 3.05957 63.269 3.20605 63.4399C3.35742 63.6108 3.57471 63.6987 3.85791 63.7036C4.146 63.7134 4.38525 63.6475 4.57568 63.5059C4.771 63.3594 4.92969 63.1714 5.05176 62.9419C5.17383 62.7075 5.26416 62.4609 5.32275 62.2021C5.38623 61.9385 5.42773 61.6943 5.44727 61.4697C5.4668 61.2744 5.46924 61.062 5.45459 60.8325C5.44482 60.5981 5.40576 60.376 5.3374 60.166C5.26904 59.9512 5.15918 59.7754 5.00781 59.6387C4.85645 59.502 4.65137 59.4336 4.39258 59.4336C4.12891 59.4238 3.9043 59.4775 3.71875 59.5947C3.5332 59.7119 3.35254 59.8608 3.17676 60.0415ZM13.9624 58.7744L13.6987 60.5103C13.6206 61.0181 13.5083 61.5454 13.3618 62.0923C13.2153 62.6392 13.0078 63.147 12.7393 63.6157C12.4756 64.0845 12.1313 64.4629 11.7065 64.751C11.2817 65.0342 10.7544 65.166 10.1245 65.1465C9.64111 65.1367 9.24805 65.0293 8.94531 64.8242C8.64258 64.6143 8.40576 64.3433 8.23486 64.0112C8.06885 63.6792 7.9541 63.313 7.89062 62.9126C7.83203 62.5073 7.80762 62.0972 7.81738 61.6821C7.82715 61.2671 7.85645 60.8789 7.90527 60.5176L8.16895 58.7744C8.24219 58.2666 8.35205 57.7417 8.49854 57.1997C8.6499 56.6577 8.85742 56.1548 9.12109 55.6909C9.38965 55.2271 9.73633 54.856 10.1611 54.5776C10.5908 54.2993 11.1182 54.1699 11.7432 54.1895C12.2217 54.1992 12.6123 54.3066 12.915 54.5117C13.2227 54.7168 13.4595 54.9829 13.6255 55.3101C13.7915 55.6372 13.9038 55.9985 13.9624 56.394C14.0259 56.7896 14.0527 57.1948 14.043 57.6099C14.0332 58.02 14.0063 58.4082 13.9624 58.7744ZM12.0068 60.7739L12.3364 58.4961C12.356 58.3545 12.3779 58.1689 12.4023 57.9395C12.4316 57.7051 12.4487 57.4561 12.4536 57.1924C12.4634 56.9287 12.4463 56.6797 12.4023 56.4453C12.3584 56.2109 12.2729 56.0156 12.146 55.8594C12.019 55.7031 11.8359 55.6201 11.5967 55.6104C11.2598 55.5859 10.9839 55.6787 10.769 55.8887C10.5591 56.0938 10.3931 56.355 10.271 56.6724C10.1489 56.9897 10.0586 57.3169 10 57.6538C9.94141 57.9858 9.89502 58.269 9.86084 58.5034L9.53125 60.7812C9.5166 60.918 9.49463 61.1035 9.46533 61.3379C9.44092 61.5723 9.42383 61.8237 9.41406 62.0923C9.40918 62.3608 9.42627 62.6172 9.46533 62.8613C9.50928 63.1006 9.59229 63.3008 9.71436 63.4619C9.83643 63.6182 10.0195 63.7036 10.2637 63.7183C10.6006 63.7427 10.8765 63.6499 11.0913 63.4399C11.3062 63.23 11.4722 62.9614 11.5894 62.6343C11.7114 62.3071 11.8018 61.9751 11.8604 61.6382C11.9238 61.2964 11.9727 61.0083 12.0068 60.7739ZM20.4927 58.7744L20.229 60.5103C20.1509 61.0181 20.0386 61.5454 19.8921 62.0923C19.7456 62.6392 19.5381 63.147 19.2695 63.6157C19.0059 64.0845 18.6616 64.4629 18.2368 64.751C17.812 65.0342 17.2847 65.166 16.6548 65.1465C16.1714 65.1367 15.7783 65.0293 15.4756 64.8242C15.1729 64.6143 14.936 64.3433 14.7651 64.0112C14.5991 63.6792 14.4844 63.313 14.4209 62.9126C14.3623 62.5073 14.3379 62.0972 14.3477 61.6821C14.3574 61.2671 14.3867 60.8789 14.4355 60.5176L14.6992 58.7744C14.7725 58.2666 14.8823 57.7417 15.0288 57.1997C15.1802 56.6577 15.3877 56.1548 15.6514 55.6909C15.9199 55.2271 16.2666 54.856 16.6914 54.5776C17.1211 54.2993 17.6484 54.1699 18.2734 54.1895C18.752 54.1992 19.1426 54.3066 19.4453 54.5117C19.7529 54.7168 19.9897 54.9829 20.1558 55.3101C20.3218 55.6372 20.4341 55.9985 20.4927 56.394C20.5562 56.7896 20.583 57.1948 20.5732 57.6099C20.5635 58.02 20.5366 58.4082 20.4927 58.7744ZM18.5371 60.7739L18.8667 58.4961C18.8862 58.3545 18.9082 58.1689 18.9326 57.9395C18.9619 57.7051 18.979 57.4561 18.9839 57.1924C18.9937 56.9287 18.9766 56.6797 18.9326 56.4453C18.8887 56.2109 18.8032 56.0156 18.6763 55.8594C18.5493 55.7031 18.3662 55.6201 18.127 55.6104C17.79 55.5859 17.5142 55.6787 17.2993 55.8887C17.0894 56.0938 16.9233 56.355 16.8013 56.6724C16.6792 56.9897 16.5889 57.3169 16.5303 57.6538C16.4717 57.9858 16.4253 58.269 16.3911 58.5034L16.0615 60.7812C16.0469 60.918 16.0249 61.1035 15.9956 61.3379C15.9712 61.5723 15.9541 61.8237 15.9443 62.0923C15.9395 62.3608 15.9565 62.6172 15.9956 62.8613C16.0396 63.1006 16.1226 63.3008 16.2446 63.4619C16.3667 63.6182 16.5498 63.7036 16.7939 63.7183C17.1309 63.7427 17.4067 63.6499 17.6216 63.4399C17.8364 63.23 18.0024 62.9614 18.1196 62.6343C18.2417 62.3071 18.332 61.9751 18.3906 61.6382C18.4541 61.2964 18.5029 61.0083 18.5371 60.7739ZM27.0229 58.7744L26.7593 60.5103C26.6812 61.0181 26.5688 61.5454 26.4224 62.0923C26.2759 62.6392 26.0684 63.147 25.7998 63.6157C25.5361 64.0845 25.1919 64.4629 24.7671 64.751C24.3423 65.0342 23.8149 65.166 23.1851 65.1465C22.7017 65.1367 22.3086 65.0293 22.0059 64.8242C21.7031 64.6143 21.4663 64.3433 21.2954 64.0112C21.1294 63.6792 21.0146 63.313 20.9512 62.9126C20.8926 62.5073 20.8682 62.0972 20.8779 61.6821C20.8877 61.2671 20.917 60.8789 20.9658 60.5176L21.2295 58.7744C21.3027 58.2666 21.4126 57.7417 21.5591 57.1997C21.7104 56.6577 21.918 56.1548 22.1816 55.6909C22.4502 55.2271 22.7969 54.856 23.2217 54.5776C23.6514 54.2993 24.1787 54.1699 24.8037 54.1895C25.2822 54.1992 25.6729 54.3066 25.9756 54.5117C26.2832 54.7168 26.52 54.9829 26.686 55.3101C26.8521 55.6372 26.9644 55.9985 27.0229 56.394C27.0864 56.7896 27.1133 57.1948 27.1035 57.6099C27.0938 58.02 27.0669 58.4082 27.0229 58.7744ZM25.0674 60.7739L25.397 58.4961C25.4165 58.3545 25.4385 58.1689 25.4629 57.9395C25.4922 57.7051 25.5093 57.4561 25.5142 57.1924C25.5239 56.9287 25.5068 56.6797 25.4629 56.4453C25.4189 56.2109 25.3335 56.0156 25.2065 55.8594C25.0796 55.7031 24.8965 55.6201 24.6572 55.6104C24.3203 55.5859 24.0444 55.6787 23.8296 55.8887C23.6196 56.0938 23.4536 56.355 23.3315 56.6724C23.2095 56.9897 23.1191 57.3169 23.0605 57.6538C23.002 57.9858 22.9556 58.269 22.9214 58.5034L22.5918 60.7812C22.5771 60.918 22.5552 61.1035 22.5259 61.3379C22.5015 61.5723 22.4844 61.8237 22.4746 62.0923C22.4697 62.3608 22.4868 62.6172 22.5259 62.8613C22.5698 63.1006 22.6528 63.3008 22.7749 63.4619C22.897 63.6182 23.0801 63.7036 23.3242 63.7183C23.6611 63.7427 23.937 63.6499 24.1519 63.4399C24.3667 63.23 24.5327 62.9614 24.6499 62.6343C24.772 62.3071 24.8623 61.9751 24.9209 61.6382C24.9844 61.2964 25.0332 61.0083 25.0674 60.7739ZM33.5532 58.7744L33.2896 60.5103C33.2114 61.0181 33.0991 61.5454 32.9526 62.0923C32.8062 62.6392 32.5986 63.147 32.3301 63.6157C32.0664 64.0845 31.7222 64.4629 31.2974 64.751C30.8726 65.0342 30.3452 65.166 29.7153 65.1465C29.2319 65.1367 28.8389 65.0293 28.5361 64.8242C28.2334 64.6143 27.9966 64.3433 27.8257 64.0112C27.6597 63.6792 27.5449 63.313 27.4814 62.9126C27.4229 62.5073 27.3984 62.0972 27.4082 61.6821C27.418 61.2671 27.4473 60.8789 27.4961 60.5176L27.7598 58.7744C27.833 58.2666 27.9429 57.7417 28.0894 57.1997C28.2407 56.6577 28.4482 56.1548 28.7119 55.6909C28.9805 55.2271 29.3271 54.856 29.752 54.5776C30.1816 54.2993 30.709 54.1699 31.334 54.1895C31.8125 54.1992 32.2031 54.3066 32.5059 54.5117C32.8135 54.7168 33.0503 54.9829 33.2163 55.3101C33.3823 55.6372 33.4946 55.9985 33.5532 56.394C33.6167 56.7896 33.6436 57.1948 33.6338 57.6099C33.624 58.02 33.5972 58.4082 33.5532 58.7744ZM31.5977 60.7739L31.9272 58.4961C31.9468 58.3545 31.9688 58.1689 31.9932 57.9395C32.0225 57.7051 32.0396 57.4561 32.0444 57.1924C32.0542 56.9287 32.0371 56.6797 31.9932 56.4453C31.9492 56.2109 31.8638 56.0156 31.7368 55.8594C31.6099 55.7031 31.4268 55.6201 31.1875 55.6104C30.8506 55.5859 30.5747 55.6787 30.3599 55.8887C30.1499 56.0938 29.9839 56.355 29.8618 56.6724C29.7397 56.9897 29.6494 57.3169 29.5908 57.6538C29.5322 57.9858 29.4858 58.269 29.4517 58.5034L29.1221 60.7812C29.1074 60.918 29.0854 61.1035 29.0562 61.3379C29.0317 61.5723 29.0146 61.8237 29.0049 62.0923C29 62.3608 29.0171 62.6172 29.0562 62.8613C29.1001 63.1006 29.1831 63.3008 29.3052 63.4619C29.4272 63.6182 29.6104 63.7036 29.8545 63.7183C30.1914 63.7427 30.4673 63.6499 30.6821 63.4399C30.897 63.23 31.063 62.9614 31.1802 62.6343C31.3022 62.3071 31.3926 61.9751 31.4512 61.6382C31.5146 61.2964 31.5635 61.0083 31.5977 60.7739ZM3.32324 130.855L4.15088 130.862C4.48291 130.857 4.76367 130.779 4.99316 130.628C5.22266 130.472 5.40332 130.267 5.53516 130.013C5.66699 129.759 5.74756 129.476 5.77686 129.163C5.79639 128.934 5.78662 128.699 5.74756 128.46C5.71338 128.221 5.62549 128.021 5.48389 127.859C5.34717 127.693 5.13721 127.608 4.854 127.603C4.5708 127.598 4.33643 127.671 4.15088 127.823C3.96533 127.974 3.81885 128.165 3.71143 128.394C3.604 128.624 3.53076 128.858 3.4917 129.097L1.8291 129.104C1.87793 128.553 2.03906 128.055 2.3125 127.61C2.59082 127.161 2.95459 126.807 3.40381 126.548C3.85303 126.29 4.36572 126.165 4.94189 126.175C5.51807 126.189 6.00146 126.329 6.39209 126.592C6.78271 126.856 7.0708 127.212 7.25635 127.662C7.44189 128.106 7.5127 128.606 7.46875 129.163C7.44434 129.568 7.34424 129.937 7.16846 130.269C6.99756 130.601 6.77051 130.884 6.4873 131.119C6.20898 131.353 5.8916 131.536 5.53516 131.668C5.18359 131.795 4.8125 131.858 4.42188 131.858L3.16211 131.851L3.32324 130.855ZM3.10352 132.261L3.25732 131.28L4.32666 131.287C4.73682 131.302 5.10303 131.37 5.42529 131.492C5.74756 131.614 6.01855 131.79 6.23828 132.02C6.45801 132.244 6.6167 132.52 6.71436 132.847C6.81689 133.174 6.85352 133.545 6.82422 133.96C6.79004 134.415 6.68506 134.839 6.50928 135.235C6.3335 135.625 6.09668 135.967 5.79883 136.26C5.50586 136.548 5.16162 136.773 4.76611 136.934C4.37549 137.09 3.9458 137.161 3.47705 137.146C3.04248 137.137 2.66162 137.051 2.33447 136.89C2.00732 136.729 1.73633 136.512 1.52148 136.238C1.30664 135.96 1.15039 135.64 1.05273 135.279C0.955078 134.913 0.913574 134.527 0.928223 134.122H2.5835C2.57373 134.356 2.59326 134.595 2.64209 134.839C2.6958 135.079 2.79834 135.281 2.94971 135.447C3.10596 135.613 3.32812 135.701 3.61621 135.711C3.94824 135.721 4.22412 135.64 4.44385 135.469C4.66357 135.298 4.83447 135.076 4.95654 134.803C5.0835 134.529 5.15918 134.246 5.18359 133.953C5.21289 133.675 5.20068 133.411 5.14697 133.162C5.09814 132.908 4.98828 132.701 4.81738 132.54C4.65137 132.374 4.40967 132.283 4.09229 132.269L3.10352 132.261ZM13.9624 130.774L13.6987 132.51C13.6206 133.018 13.5083 133.545 13.3618 134.092C13.2153 134.639 13.0078 135.147 12.7393 135.616C12.4756 136.084 12.1313 136.463 11.7065 136.751C11.2817 137.034 10.7544 137.166 10.1245 137.146C9.64111 137.137 9.24805 137.029 8.94531 136.824C8.64258 136.614 8.40576 136.343 8.23486 136.011C8.06885 135.679 7.9541 135.313 7.89062 134.913C7.83203 134.507 7.80762 134.097 7.81738 133.682C7.82715 133.267 7.85645 132.879 7.90527 132.518L8.16895 130.774C8.24219 130.267 8.35205 129.742 8.49854 129.2C8.6499 128.658 8.85742 128.155 9.12109 127.691C9.38965 127.227 9.73633 126.856 10.1611 126.578C10.5908 126.299 11.1182 126.17 11.7432 126.189C12.2217 126.199 12.6123 126.307 12.915 126.512C13.2227 126.717 13.4595 126.983 13.6255 127.31C13.7915 127.637 13.9038 127.999 13.9624 128.394C14.0259 128.79 14.0527 129.195 14.043 129.61C14.0332 130.02 14.0063 130.408 13.9624 130.774ZM12.0068 132.774L12.3364 130.496C12.356 130.354 12.3779 130.169 12.4023 129.939C12.4316 129.705 12.4487 129.456 12.4536 129.192C12.4634 128.929 12.4463 128.68 12.4023 128.445C12.3584 128.211 12.2729 128.016 12.146 127.859C12.019 127.703 11.8359 127.62 11.5967 127.61C11.2598 127.586 10.9839 127.679 10.769 127.889C10.5591 128.094 10.3931 128.355 10.271 128.672C10.1489 128.99 10.0586 129.317 10 129.654C9.94141 129.986 9.89502 130.269 9.86084 130.503L9.53125 132.781C9.5166 132.918 9.49463 133.104 9.46533 133.338C9.44092 133.572 9.42383 133.824 9.41406 134.092C9.40918 134.361 9.42627 134.617 9.46533 134.861C9.50928 135.101 9.59229 135.301 9.71436 135.462C9.83643 135.618 10.0195 135.704 10.2637 135.718C10.6006 135.743 10.8765 135.65 11.0913 135.44C11.3062 135.23 11.4722 134.961 11.5894 134.634C11.7114 134.307 11.8018 133.975 11.8604 133.638C11.9238 133.296 11.9727 133.008 12.0068 132.774ZM20.4927 130.774L20.229 132.51C20.1509 133.018 20.0386 133.545 19.8921 134.092C19.7456 134.639 19.5381 135.147 19.2695 135.616C19.0059 136.084 18.6616 136.463 18.2368 136.751C17.812 137.034 17.2847 137.166 16.6548 137.146C16.1714 137.137 15.7783 137.029 15.4756 136.824C15.1729 136.614 14.936 136.343 14.7651 136.011C14.5991 135.679 14.4844 135.313 14.4209 134.913C14.3623 134.507 14.3379 134.097 14.3477 133.682C14.3574 133.267 14.3867 132.879 14.4355 132.518L14.6992 130.774C14.7725 130.267 14.8823 129.742 15.0288 129.2C15.1802 128.658 15.3877 128.155 15.6514 127.691C15.9199 127.227 16.2666 126.856 16.6914 126.578C17.1211 126.299 17.6484 126.17 18.2734 126.189C18.752 126.199 19.1426 126.307 19.4453 126.512C19.7529 126.717 19.9897 126.983 20.1558 127.31C20.3218 127.637 20.4341 127.999 20.4927 128.394C20.5562 128.79 20.583 129.195 20.5732 129.61C20.5635 130.02 20.5366 130.408 20.4927 130.774ZM18.5371 132.774L18.8667 130.496C18.8862 130.354 18.9082 130.169 18.9326 129.939C18.9619 129.705 18.979 129.456 18.9839 129.192C18.9937 128.929 18.9766 128.68 18.9326 128.445C18.8887 128.211 18.8032 128.016 18.6763 127.859C18.5493 127.703 18.3662 127.62 18.127 127.61C17.79 127.586 17.5142 127.679 17.2993 127.889C17.0894 128.094 16.9233 128.355 16.8013 128.672C16.6792 128.99 16.5889 129.317 16.5303 129.654C16.4717 129.986 16.4253 130.269 16.3911 130.503L16.0615 132.781C16.0469 132.918 16.0249 133.104 15.9956 133.338C15.9712 133.572 15.9541 133.824 15.9443 134.092C15.9395 134.361 15.9565 134.617 15.9956 134.861C16.0396 135.101 16.1226 135.301 16.2446 135.462C16.3667 135.618 16.5498 135.704 16.7939 135.718C17.1309 135.743 17.4067 135.65 17.6216 135.44C17.8364 135.23 18.0024 134.961 18.1196 134.634C18.2417 134.307 18.332 133.975 18.3906 133.638C18.4541 133.296 18.5029 133.008 18.5371 132.774ZM27.0229 130.774L26.7593 132.51C26.6812 133.018 26.5688 133.545 26.4224 134.092C26.2759 134.639 26.0684 135.147 25.7998 135.616C25.5361 136.084 25.1919 136.463 24.7671 136.751C24.3423 137.034 23.8149 137.166 23.1851 137.146C22.7017 137.137 22.3086 137.029 22.0059 136.824C21.7031 136.614 21.4663 136.343 21.2954 136.011C21.1294 135.679 21.0146 135.313 20.9512 134.913C20.8926 134.507 20.8682 134.097 20.8779 133.682C20.8877 133.267 20.917 132.879 20.9658 132.518L21.2295 130.774C21.3027 130.267 21.4126 129.742 21.5591 129.2C21.7104 128.658 21.918 128.155 22.1816 127.691C22.4502 127.227 22.7969 126.856 23.2217 126.578C23.6514 126.299 24.1787 126.17 24.8037 126.189C25.2822 126.199 25.6729 126.307 25.9756 126.512C26.2832 126.717 26.52 126.983 26.686 127.31C26.8521 127.637 26.9644 127.999 27.0229 128.394C27.0864 128.79 27.1133 129.195 27.1035 129.61C27.0938 130.02 27.0669 130.408 27.0229 130.774ZM25.0674 132.774L25.397 130.496C25.4165 130.354 25.4385 130.169 25.4629 129.939C25.4922 129.705 25.5093 129.456 25.5142 129.192C25.5239 128.929 25.5068 128.68 25.4629 128.445C25.4189 128.211 25.3335 128.016 25.2065 127.859C25.0796 127.703 24.8965 127.62 24.6572 127.61C24.3203 127.586 24.0444 127.679 23.8296 127.889C23.6196 128.094 23.4536 128.355 23.3315 128.672C23.2095 128.99 23.1191 129.317 23.0605 129.654C23.002 129.986 22.9556 130.269 22.9214 130.503L22.5918 132.781C22.5771 132.918 22.5552 133.104 22.5259 133.338C22.5015 133.572 22.4844 133.824 22.4746 134.092C22.4697 134.361 22.4868 134.617 22.5259 134.861C22.5698 135.101 22.6528 135.301 22.7749 135.462C22.897 135.618 23.0801 135.704 23.3242 135.718C23.6611 135.743 23.937 135.65 24.1519 135.44C24.3667 135.23 24.5327 134.961 24.6499 134.634C24.772 134.307 24.8623 133.975 24.9209 133.638C24.9844 133.296 25.0332 133.008 25.0674 132.774ZM33.5532 130.774L33.2896 132.51C33.2114 133.018 33.0991 133.545 32.9526 134.092C32.8062 134.639 32.5986 135.147 32.3301 135.616C32.0664 136.084 31.7222 136.463 31.2974 136.751C30.8726 137.034 30.3452 137.166 29.7153 137.146C29.2319 137.137 28.8389 137.029 28.5361 136.824C28.2334 136.614 27.9966 136.343 27.8257 136.011C27.6597 135.679 27.5449 135.313 27.4814 134.913C27.4229 134.507 27.3984 134.097 27.4082 133.682C27.418 133.267 27.4473 132.879 27.4961 132.518L27.7598 130.774C27.833 130.267 27.9429 129.742 28.0894 129.2C28.2407 128.658 28.4482 128.155 28.7119 127.691C28.9805 127.227 29.3271 126.856 29.752 126.578C30.1816 126.299 30.709 126.17 31.334 126.189C31.8125 126.199 32.2031 126.307 32.5059 126.512C32.8135 126.717 33.0503 126.983 33.2163 127.31C33.3823 127.637 33.4946 127.999 33.5532 128.394C33.6167 128.79 33.6436 129.195 33.6338 129.61C33.624 130.02 33.5972 130.408 33.5532 130.774ZM31.5977 132.774L31.9272 130.496C31.9468 130.354 31.9688 130.169 31.9932 129.939C32.0225 129.705 32.0396 129.456 32.0444 129.192C32.0542 128.929 32.0371 128.68 31.9932 128.445C31.9492 128.211 31.8638 128.016 31.7368 127.859C31.6099 127.703 31.4268 127.62 31.1875 127.61C30.8506 127.586 30.5747 127.679 30.3599 127.889C30.1499 128.094 29.9839 128.355 29.8618 128.672C29.7397 128.99 29.6494 129.317 29.5908 129.654C29.5322 129.986 29.4858 130.269 29.4517 130.503L29.1221 132.781C29.1074 132.918 29.0854 133.104 29.0562 133.338C29.0317 133.572 29.0146 133.824 29.0049 134.092C29 134.361 29.0171 134.617 29.0562 134.861C29.1001 135.101 29.1831 135.301 29.3052 135.462C29.4272 135.618 29.6104 135.704 29.8545 135.718C30.1914 135.743 30.4673 135.65 30.6821 135.44C30.897 135.23 31.063 134.961 31.1802 134.634C31.3022 134.307 31.3926 133.975 31.4512 133.638C31.5146 133.296 31.5635 133.008 31.5977 132.774ZM6.84619 207.564L6.61914 209H0.657227L0.862305 207.696L4.20947 203.983C4.4292 203.734 4.65381 203.465 4.8833 203.177C5.11279 202.884 5.31299 202.579 5.48389 202.262C5.65479 201.939 5.76221 201.605 5.80615 201.258C5.83057 201.043 5.82812 200.809 5.79883 200.555C5.77441 200.301 5.69385 200.082 5.55713 199.896C5.42529 199.71 5.22021 199.613 4.94189 199.603C4.58057 199.593 4.2876 199.693 4.06299 199.903C3.84326 200.108 3.67725 200.367 3.56494 200.68C3.45264 200.987 3.37939 201.288 3.34521 201.581L1.69727 201.588C1.75098 200.973 1.91943 200.406 2.20264 199.889C2.49072 199.366 2.87646 198.949 3.35986 198.636C3.84814 198.324 4.41943 198.172 5.07373 198.182C5.64014 198.192 6.11377 198.326 6.49463 198.585C6.88037 198.839 7.16113 199.183 7.33691 199.618C7.5127 200.052 7.57617 200.541 7.52734 201.083C7.49316 201.478 7.40039 201.856 7.24902 202.218C7.09766 202.579 6.90967 202.923 6.68506 203.25C6.46533 203.578 6.22363 203.893 5.95996 204.195C5.70117 204.498 5.44482 204.789 5.19092 205.067L3.01562 207.564H6.84619ZM13.9624 202.774L13.6987 204.51C13.6206 205.018 13.5083 205.545 13.3618 206.092C13.2153 206.639 13.0078 207.147 12.7393 207.616C12.4756 208.084 12.1313 208.463 11.7065 208.751C11.2817 209.034 10.7544 209.166 10.1245 209.146C9.64111 209.137 9.24805 209.029 8.94531 208.824C8.64258 208.614 8.40576 208.343 8.23486 208.011C8.06885 207.679 7.9541 207.313 7.89062 206.913C7.83203 206.507 7.80762 206.097 7.81738 205.682C7.82715 205.267 7.85645 204.879 7.90527 204.518L8.16895 202.774C8.24219 202.267 8.35205 201.742 8.49854 201.2C8.6499 200.658 8.85742 200.155 9.12109 199.691C9.38965 199.227 9.73633 198.856 10.1611 198.578C10.5908 198.299 11.1182 198.17 11.7432 198.189C12.2217 198.199 12.6123 198.307 12.915 198.512C13.2227 198.717 13.4595 198.983 13.6255 199.31C13.7915 199.637 13.9038 199.999 13.9624 200.394C14.0259 200.79 14.0527 201.195 14.043 201.61C14.0332 202.02 14.0063 202.408 13.9624 202.774ZM12.0068 204.774L12.3364 202.496C12.356 202.354 12.3779 202.169 12.4023 201.939C12.4316 201.705 12.4487 201.456 12.4536 201.192C12.4634 200.929 12.4463 200.68 12.4023 200.445C12.3584 200.211 12.2729 200.016 12.146 199.859C12.019 199.703 11.8359 199.62 11.5967 199.61C11.2598 199.586 10.9839 199.679 10.769 199.889C10.5591 200.094 10.3931 200.355 10.271 200.672C10.1489 200.99 10.0586 201.317 10 201.654C9.94141 201.986 9.89502 202.269 9.86084 202.503L9.53125 204.781C9.5166 204.918 9.49463 205.104 9.46533 205.338C9.44092 205.572 9.42383 205.824 9.41406 206.092C9.40918 206.361 9.42627 206.617 9.46533 206.861C9.50928 207.101 9.59229 207.301 9.71436 207.462C9.83643 207.618 10.0195 207.704 10.2637 207.718C10.6006 207.743 10.8765 207.65 11.0913 207.44C11.3062 207.23 11.4722 206.961 11.5894 206.634C11.7114 206.307 11.8018 205.975 11.8604 205.638C11.9238 205.296 11.9727 205.008 12.0068 204.774ZM20.4927 202.774L20.229 204.51C20.1509 205.018 20.0386 205.545 19.8921 206.092C19.7456 206.639 19.5381 207.147 19.2695 207.616C19.0059 208.084 18.6616 208.463 18.2368 208.751C17.812 209.034 17.2847 209.166 16.6548 209.146C16.1714 209.137 15.7783 209.029 15.4756 208.824C15.1729 208.614 14.936 208.343 14.7651 208.011C14.5991 207.679 14.4844 207.313 14.4209 206.913C14.3623 206.507 14.3379 206.097 14.3477 205.682C14.3574 205.267 14.3867 204.879 14.4355 204.518L14.6992 202.774C14.7725 202.267 14.8823 201.742 15.0288 201.2C15.1802 200.658 15.3877 200.155 15.6514 199.691C15.9199 199.227 16.2666 198.856 16.6914 198.578C17.1211 198.299 17.6484 198.17 18.2734 198.189C18.752 198.199 19.1426 198.307 19.4453 198.512C19.7529 198.717 19.9897 198.983 20.1558 199.31C20.3218 199.637 20.4341 199.999 20.4927 200.394C20.5562 200.79 20.583 201.195 20.5732 201.61C20.5635 202.02 20.5366 202.408 20.4927 202.774ZM18.5371 204.774L18.8667 202.496C18.8862 202.354 18.9082 202.169 18.9326 201.939C18.9619 201.705 18.979 201.456 18.9839 201.192C18.9937 200.929 18.9766 200.68 18.9326 200.445C18.8887 200.211 18.8032 200.016 18.6763 199.859C18.5493 199.703 18.3662 199.62 18.127 199.61C17.79 199.586 17.5142 199.679 17.2993 199.889C17.0894 200.094 16.9233 200.355 16.8013 200.672C16.6792 200.99 16.5889 201.317 16.5303 201.654C16.4717 201.986 16.4253 202.269 16.3911 202.503L16.0615 204.781C16.0469 204.918 16.0249 205.104 15.9956 205.338C15.9712 205.572 15.9541 205.824 15.9443 206.092C15.9395 206.361 15.9565 206.617 15.9956 206.861C16.0396 207.101 16.1226 207.301 16.2446 207.462C16.3667 207.618 16.5498 207.704 16.7939 207.718C17.1309 207.743 17.4067 207.65 17.6216 207.44C17.8364 207.23 18.0024 206.961 18.1196 206.634C18.2417 206.307 18.332 205.975 18.3906 205.638C18.4541 205.296 18.5029 205.008 18.5371 204.774ZM27.0229 202.774L26.7593 204.51C26.6812 205.018 26.5688 205.545 26.4224 206.092C26.2759 206.639 26.0684 207.147 25.7998 207.616C25.5361 208.084 25.1919 208.463 24.7671 208.751C24.3423 209.034 23.8149 209.166 23.1851 209.146C22.7017 209.137 22.3086 209.029 22.0059 208.824C21.7031 208.614 21.4663 208.343 21.2954 208.011C21.1294 207.679 21.0146 207.313 20.9512 206.913C20.8926 206.507 20.8682 206.097 20.8779 205.682C20.8877 205.267 20.917 204.879 20.9658 204.518L21.2295 202.774C21.3027 202.267 21.4126 201.742 21.5591 201.2C21.7104 200.658 21.918 200.155 22.1816 199.691C22.4502 199.227 22.7969 198.856 23.2217 198.578C23.6514 198.299 24.1787 198.17 24.8037 198.189C25.2822 198.199 25.6729 198.307 25.9756 198.512C26.2832 198.717 26.52 198.983 26.686 199.31C26.8521 199.637 26.9644 199.999 27.0229 200.394C27.0864 200.79 27.1133 201.195 27.1035 201.61C27.0938 202.02 27.0669 202.408 27.0229 202.774ZM25.0674 204.774L25.397 202.496C25.4165 202.354 25.4385 202.169 25.4629 201.939C25.4922 201.705 25.5093 201.456 25.5142 201.192C25.5239 200.929 25.5068 200.68 25.4629 200.445C25.4189 200.211 25.3335 200.016 25.2065 199.859C25.0796 199.703 24.8965 199.62 24.6572 199.61C24.3203 199.586 24.0444 199.679 23.8296 199.889C23.6196 200.094 23.4536 200.355 23.3315 200.672C23.2095 200.99 23.1191 201.317 23.0605 201.654C23.002 201.986 22.9556 202.269 22.9214 202.503L22.5918 204.781C22.5771 204.918 22.5552 205.104 22.5259 205.338C22.5015 205.572 22.4844 205.824 22.4746 206.092C22.4697 206.361 22.4868 206.617 22.5259 206.861C22.5698 207.101 22.6528 207.301 22.7749 207.462C22.897 207.618 23.0801 207.704 23.3242 207.718C23.6611 207.743 23.937 207.65 24.1519 207.44C24.3667 207.23 24.5327 206.961 24.6499 206.634C24.772 206.307 24.8623 205.975 24.9209 205.638C24.9844 205.296 25.0332 205.008 25.0674 204.774ZM33.5532 202.774L33.2896 204.51C33.2114 205.018 33.0991 205.545 32.9526 206.092C32.8062 206.639 32.5986 207.147 32.3301 207.616C32.0664 208.084 31.7222 208.463 31.2974 208.751C30.8726 209.034 30.3452 209.166 29.7153 209.146C29.2319 209.137 28.8389 209.029 28.5361 208.824C28.2334 208.614 27.9966 208.343 27.8257 208.011C27.6597 207.679 27.5449 207.313 27.4814 206.913C27.4229 206.507 27.3984 206.097 27.4082 205.682C27.418 205.267 27.4473 204.879 27.4961 204.518L27.7598 202.774C27.833 202.267 27.9429 201.742 28.0894 201.2C28.2407 200.658 28.4482 200.155 28.7119 199.691C28.9805 199.227 29.3271 198.856 29.752 198.578C30.1816 198.299 30.709 198.17 31.334 198.189C31.8125 198.199 32.2031 198.307 32.5059 198.512C32.8135 198.717 33.0503 198.983 33.2163 199.31C33.3823 199.637 33.4946 199.999 33.5532 200.394C33.6167 200.79 33.6436 201.195 33.6338 201.61C33.624 202.02 33.5972 202.408 33.5532 202.774ZM31.5977 204.774L31.9272 202.496C31.9468 202.354 31.9688 202.169 31.9932 201.939C32.0225 201.705 32.0396 201.456 32.0444 201.192C32.0542 200.929 32.0371 200.68 31.9932 200.445C31.9492 200.211 31.8638 200.016 31.7368 199.859C31.6099 199.703 31.4268 199.62 31.1875 199.61C30.8506 199.586 30.5747 199.679 30.3599 199.889C30.1499 200.094 29.9839 200.355 29.8618 200.672C29.7397 200.99 29.6494 201.317 29.5908 201.654C29.5322 201.986 29.4858 202.269 29.4517 202.503L29.1221 204.781C29.1074 204.918 29.0854 205.104 29.0562 205.338C29.0317 205.572 29.0146 205.824 29.0049 206.092C29 206.361 29.0171 206.617 29.0562 206.861C29.1001 207.101 29.1831 207.301 29.3052 207.462C29.4272 207.618 29.6104 207.704 29.8545 207.718C30.1914 207.743 30.4673 207.65 30.6821 207.44C30.897 207.23 31.063 206.961 31.1802 206.634C31.3022 206.307 31.3926 205.975 31.4512 205.638C31.5146 205.296 31.5635 205.008 31.5977 204.774ZM6.50928 270.299L4.69287 281H3.02295L4.50977 272.482L2.29053 273.354L2.56152 271.786L6.26758 270.299H6.50928ZM13.9624 274.774L13.6987 276.51C13.6206 277.018 13.5083 277.545 13.3618 278.092C13.2153 278.639 13.0078 279.147 12.7393 279.616C12.4756 280.084 12.1313 280.463 11.7065 280.751C11.2817 281.034 10.7544 281.166 10.1245 281.146C9.64111 281.137 9.24805 281.029 8.94531 280.824C8.64258 280.614 8.40576 280.343 8.23486 280.011C8.06885 279.679 7.9541 279.313 7.89062 278.913C7.83203 278.507 7.80762 278.097 7.81738 277.682C7.82715 277.267 7.85645 276.879 7.90527 276.518L8.16895 274.774C8.24219 274.267 8.35205 273.742 8.49854 273.2C8.6499 272.658 8.85742 272.155 9.12109 271.691C9.38965 271.227 9.73633 270.856 10.1611 270.578C10.5908 270.299 11.1182 270.17 11.7432 270.189C12.2217 270.199 12.6123 270.307 12.915 270.512C13.2227 270.717 13.4595 270.983 13.6255 271.31C13.7915 271.637 13.9038 271.999 13.9624 272.394C14.0259 272.79 14.0527 273.195 14.043 273.61C14.0332 274.02 14.0063 274.408 13.9624 274.774ZM12.0068 276.774L12.3364 274.496C12.356 274.354 12.3779 274.169 12.4023 273.939C12.4316 273.705 12.4487 273.456 12.4536 273.192C12.4634 272.929 12.4463 272.68 12.4023 272.445C12.3584 272.211 12.2729 272.016 12.146 271.859C12.019 271.703 11.8359 271.62 11.5967 271.61C11.2598 271.586 10.9839 271.679 10.769 271.889C10.5591 272.094 10.3931 272.355 10.271 272.672C10.1489 272.99 10.0586 273.317 10 273.654C9.94141 273.986 9.89502 274.269 9.86084 274.503L9.53125 276.781C9.5166 276.918 9.49463 277.104 9.46533 277.338C9.44092 277.572 9.42383 277.824 9.41406 278.092C9.40918 278.361 9.42627 278.617 9.46533 278.861C9.50928 279.101 9.59229 279.301 9.71436 279.462C9.83643 279.618 10.0195 279.704 10.2637 279.718C10.6006 279.743 10.8765 279.65 11.0913 279.44C11.3062 279.23 11.4722 278.961 11.5894 278.634C11.7114 278.307 11.8018 277.975 11.8604 277.638C11.9238 277.296 11.9727 277.008 12.0068 276.774ZM20.4927 274.774L20.229 276.51C20.1509 277.018 20.0386 277.545 19.8921 278.092C19.7456 278.639 19.5381 279.147 19.2695 279.616C19.0059 280.084 18.6616 280.463 18.2368 280.751C17.812 281.034 17.2847 281.166 16.6548 281.146C16.1714 281.137 15.7783 281.029 15.4756 280.824C15.1729 280.614 14.936 280.343 14.7651 280.011C14.5991 279.679 14.4844 279.313 14.4209 278.913C14.3623 278.507 14.3379 278.097 14.3477 277.682C14.3574 277.267 14.3867 276.879 14.4355 276.518L14.6992 274.774C14.7725 274.267 14.8823 273.742 15.0288 273.2C15.1802 272.658 15.3877 272.155 15.6514 271.691C15.9199 271.227 16.2666 270.856 16.6914 270.578C17.1211 270.299 17.6484 270.17 18.2734 270.189C18.752 270.199 19.1426 270.307 19.4453 270.512C19.7529 270.717 19.9897 270.983 20.1558 271.31C20.3218 271.637 20.4341 271.999 20.4927 272.394C20.5562 272.79 20.583 273.195 20.5732 273.61C20.5635 274.02 20.5366 274.408 20.4927 274.774ZM18.5371 276.774L18.8667 274.496C18.8862 274.354 18.9082 274.169 18.9326 273.939C18.9619 273.705 18.979 273.456 18.9839 273.192C18.9937 272.929 18.9766 272.68 18.9326 272.445C18.8887 272.211 18.8032 272.016 18.6763 271.859C18.5493 271.703 18.3662 271.62 18.127 271.61C17.79 271.586 17.5142 271.679 17.2993 271.889C17.0894 272.094 16.9233 272.355 16.8013 272.672C16.6792 272.99 16.5889 273.317 16.5303 273.654C16.4717 273.986 16.4253 274.269 16.3911 274.503L16.0615 276.781C16.0469 276.918 16.0249 277.104 15.9956 277.338C15.9712 277.572 15.9541 277.824 15.9443 278.092C15.9395 278.361 15.9565 278.617 15.9956 278.861C16.0396 279.101 16.1226 279.301 16.2446 279.462C16.3667 279.618 16.5498 279.704 16.7939 279.718C17.1309 279.743 17.4067 279.65 17.6216 279.44C17.8364 279.23 18.0024 278.961 18.1196 278.634C18.2417 278.307 18.332 277.975 18.3906 277.638C18.4541 277.296 18.5029 277.008 18.5371 276.774ZM27.0229 274.774L26.7593 276.51C26.6812 277.018 26.5688 277.545 26.4224 278.092C26.2759 278.639 26.0684 279.147 25.7998 279.616C25.5361 280.084 25.1919 280.463 24.7671 280.751C24.3423 281.034 23.8149 281.166 23.1851 281.146C22.7017 281.137 22.3086 281.029 22.0059 280.824C21.7031 280.614 21.4663 280.343 21.2954 280.011C21.1294 279.679 21.0146 279.313 20.9512 278.913C20.8926 278.507 20.8682 278.097 20.8779 277.682C20.8877 277.267 20.917 276.879 20.9658 276.518L21.2295 274.774C21.3027 274.267 21.4126 273.742 21.5591 273.2C21.7104 272.658 21.918 272.155 22.1816 271.691C22.4502 271.227 22.7969 270.856 23.2217 270.578C23.6514 270.299 24.1787 270.17 24.8037 270.189C25.2822 270.199 25.6729 270.307 25.9756 270.512C26.2832 270.717 26.52 270.983 26.686 271.31C26.8521 271.637 26.9644 271.999 27.0229 272.394C27.0864 272.79 27.1133 273.195 27.1035 273.61C27.0938 274.02 27.0669 274.408 27.0229 274.774ZM25.0674 276.774L25.397 274.496C25.4165 274.354 25.4385 274.169 25.4629 273.939C25.4922 273.705 25.5093 273.456 25.5142 273.192C25.5239 272.929 25.5068 272.68 25.4629 272.445C25.4189 272.211 25.3335 272.016 25.2065 271.859C25.0796 271.703 24.8965 271.62 24.6572 271.61C24.3203 271.586 24.0444 271.679 23.8296 271.889C23.6196 272.094 23.4536 272.355 23.3315 272.672C23.2095 272.99 23.1191 273.317 23.0605 273.654C23.002 273.986 22.9556 274.269 22.9214 274.503L22.5918 276.781C22.5771 276.918 22.5552 277.104 22.5259 277.338C22.5015 277.572 22.4844 277.824 22.4746 278.092C22.4697 278.361 22.4868 278.617 22.5259 278.861C22.5698 279.101 22.6528 279.301 22.7749 279.462C22.897 279.618 23.0801 279.704 23.3242 279.718C23.6611 279.743 23.937 279.65 24.1519 279.44C24.3667 279.23 24.5327 278.961 24.6499 278.634C24.772 278.307 24.8623 277.975 24.9209 277.638C24.9844 277.296 25.0332 277.008 25.0674 276.774ZM33.5532 274.774L33.2896 276.51C33.2114 277.018 33.0991 277.545 32.9526 278.092C32.8062 278.639 32.5986 279.147 32.3301 279.616C32.0664 280.084 31.7222 280.463 31.2974 280.751C30.8726 281.034 30.3452 281.166 29.7153 281.146C29.2319 281.137 28.8389 281.029 28.5361 280.824C28.2334 280.614 27.9966 280.343 27.8257 280.011C27.6597 279.679 27.5449 279.313 27.4814 278.913C27.4229 278.507 27.3984 278.097 27.4082 277.682C27.418 277.267 27.4473 276.879 27.4961 276.518L27.7598 274.774C27.833 274.267 27.9429 273.742 28.0894 273.2C28.2407 272.658 28.4482 272.155 28.7119 271.691C28.9805 271.227 29.3271 270.856 29.752 270.578C30.1816 270.299 30.709 270.17 31.334 270.189C31.8125 270.199 32.2031 270.307 32.5059 270.512C32.8135 270.717 33.0503 270.983 33.2163 271.31C33.3823 271.637 33.4946 271.999 33.5532 272.394C33.6167 272.79 33.6436 273.195 33.6338 273.61C33.624 274.02 33.5972 274.408 33.5532 274.774ZM31.5977 276.774L31.9272 274.496C31.9468 274.354 31.9688 274.169 31.9932 273.939C32.0225 273.705 32.0396 273.456 32.0444 273.192C32.0542 272.929 32.0371 272.68 31.9932 272.445C31.9492 272.211 31.8638 272.016 31.7368 271.859C31.6099 271.703 31.4268 271.62 31.1875 271.61C30.8506 271.586 30.5747 271.679 30.3599 271.889C30.1499 272.094 29.9839 272.355 29.8618 272.672C29.7397 272.99 29.6494 273.317 29.5908 273.654C29.5322 273.986 29.4858 274.269 29.4517 274.503L29.1221 276.781C29.1074 276.918 29.0854 277.104 29.0562 277.338C29.0317 277.572 29.0146 277.824 29.0049 278.092C29 278.361 29.0171 278.617 29.0562 278.861C29.1001 279.101 29.1831 279.301 29.3052 279.462C29.4272 279.618 29.6104 279.704 29.8545 279.718C30.1914 279.743 30.4673 279.65 30.6821 279.44C30.897 279.23 31.063 278.961 31.1802 278.634C31.3022 278.307 31.3926 277.975 31.4512 277.638C31.5146 277.296 31.5635 277.008 31.5977 276.774ZM33.5532 346.774L33.2896 348.51C33.2114 349.018 33.0991 349.545 32.9526 350.092C32.8062 350.639 32.5986 351.147 32.3301 351.616C32.0664 352.084 31.7222 352.463 31.2974 352.751C30.8726 353.034 30.3452 353.166 29.7153 353.146C29.2319 353.137 28.8389 353.029 28.5361 352.824C28.2334 352.614 27.9966 352.343 27.8257 352.011C27.6597 351.679 27.5449 351.313 27.4814 350.913C27.4229 350.507 27.3984 350.097 27.4082 349.682C27.418 349.267 27.4473 348.879 27.4961 348.518L27.7598 346.774C27.833 346.267 27.9429 345.742 28.0894 345.2C28.2407 344.658 28.4482 344.155 28.7119 343.691C28.9805 343.227 29.3271 342.856 29.752 342.578C30.1816 342.299 30.709 342.17 31.334 342.189C31.8125 342.199 32.2031 342.307 32.5059 342.512C32.8135 342.717 33.0503 342.983 33.2163 343.31C33.3823 343.637 33.4946 343.999 33.5532 344.394C33.6167 344.79 33.6436 345.195 33.6338 345.61C33.624 346.02 33.5972 346.408 33.5532 346.774ZM31.5977 348.774L31.9272 346.496C31.9468 346.354 31.9688 346.169 31.9932 345.939C32.0225 345.705 32.0396 345.456 32.0444 345.192C32.0542 344.929 32.0371 344.68 31.9932 344.445C31.9492 344.211 31.8638 344.016 31.7368 343.859C31.6099 343.703 31.4268 343.62 31.1875 343.61C30.8506 343.586 30.5747 343.679 30.3599 343.889C30.1499 344.094 29.9839 344.355 29.8618 344.672C29.7397 344.99 29.6494 345.317 29.5908 345.654C29.5322 345.986 29.4858 346.269 29.4517 346.503L29.1221 348.781C29.1074 348.918 29.0854 349.104 29.0562 349.338C29.0317 349.572 29.0146 349.824 29.0049 350.092C29 350.361 29.0171 350.617 29.0562 350.861C29.1001 351.101 29.1831 351.301 29.3052 351.462C29.4272 351.618 29.6104 351.704 29.8545 351.718C30.1914 351.743 30.4673 351.65 30.6821 351.44C30.897 351.23 31.063 350.961 31.1802 350.634C31.3022 350.307 31.3926 349.975 31.4512 349.638C31.5146 349.296 31.5635 349.008 31.5977 348.774Z" fill="black"/>
</svg>
