<svg width="243" height="50" viewBox="0 0 243 50" fill="none" xmlns="http://www.w3.org/2000/svg">
<path d="M12.5049 49H4.12598L5.52246 41.3193L12.9492 41.3511C15.446 41.3722 17.4349 40.8644 18.916 39.8276C20.4183 38.7697 21.5397 37.3521 22.2803 35.5747C23.0208 33.7762 23.5604 31.745 23.8989 29.481L24.9146 22.2446C25.0838 20.9116 25.2002 19.568 25.2637 18.2139C25.3483 16.8597 25.2425 15.6113 24.9463 14.4688C24.6501 13.3262 24.0576 12.4058 23.1689 11.7075C22.3014 10.9881 21.0107 10.5967 19.2969 10.5332L10.6323 10.5015L11.9971 2.78906L19.6777 2.8208C22.4707 2.88428 24.8405 3.45557 26.7871 4.53467C28.7337 5.61377 30.2889 7.06315 31.4526 8.88281C32.6375 10.7025 33.431 12.7655 33.833 15.0718C34.235 17.3781 34.2773 19.8008 33.96 22.3398L32.8809 29.5127C32.4577 32.2422 31.7065 34.8024 30.6274 37.1934C29.5695 39.5632 28.1836 41.6367 26.4697 43.4141C24.777 45.1702 22.7669 46.5456 20.4395 47.54C18.1331 48.5345 15.4883 49.0212 12.5049 49ZM17.3926 2.78906L9.39453 49H0.317383L8.28369 2.78906H17.3926ZM48.3564 41.0972L50.8955 25.1646C50.959 24.5509 50.9696 23.9268 50.9272 23.292C50.8849 22.6572 50.7051 22.1177 50.3877 21.6733C50.0915 21.2078 49.5519 20.9645 48.769 20.9434C47.9227 20.9222 47.2456 21.1021 46.7378 21.4829C46.23 21.8638 45.8385 22.361 45.5635 22.9746C45.2884 23.5882 45.0874 24.2336 44.9604 24.9106L36.2642 24.9741C36.37 23.2391 36.8037 21.6945 37.5654 20.3403C38.3483 18.965 39.3534 17.8013 40.5806 16.8491C41.8078 15.897 43.1831 15.1776 44.7065 14.6909C46.2511 14.2043 47.8486 13.9715 49.499 13.9927C51.7842 14.035 53.7202 14.5322 55.3071 15.4844C56.894 16.4365 58.0578 17.7484 58.7983 19.4199C59.5389 21.0915 59.7928 23.0698 59.5601 25.355L57.1162 40.6846C56.9258 41.9329 56.7565 43.2342 56.6084 44.5884C56.4814 45.9214 56.6296 47.2121 57.0527 48.4604L57.021 49L48.5469 49.0317C48.1872 47.741 48.0179 46.4292 48.0391 45.0962C48.0814 43.742 48.1872 42.409 48.3564 41.0972ZM51.689 28.021L50.8003 33.353L47.9756 33.3213C47.1504 33.3424 46.3887 33.5011 45.6904 33.7974C45.0133 34.0724 44.3997 34.4744 43.8496 35.0034C43.3206 35.5112 42.8869 36.1037 42.5483 36.7808C42.231 37.4367 42.0299 38.1772 41.9453 39.0024C41.8607 39.5526 41.8501 40.1133 41.9136 40.6846C41.9982 41.2347 42.1992 41.7002 42.5166 42.0811C42.8551 42.4619 43.363 42.6629 44.04 42.6841C44.7806 42.6841 45.5106 42.536 46.23 42.2397C46.9494 41.9224 47.5524 41.478 48.0391 40.9067C48.5257 40.3354 48.8114 39.6689 48.896 38.9072L50.4829 42.4619C50.1232 43.4141 49.6683 44.3345 49.1182 45.2231C48.5892 46.0907 47.9544 46.8735 47.2139 47.5718C46.4945 48.2489 45.6693 48.7778 44.7383 49.1587C43.8285 49.5396 42.7917 49.7194 41.6279 49.6982C39.7871 49.6771 38.2002 49.201 36.8672 48.27C35.5553 47.3179 34.5715 46.0907 33.9155 44.5884C33.2596 43.0861 32.974 41.4357 33.0586 39.6372C33.1432 37.606 33.6087 35.8604 34.4551 34.4004C35.3014 32.9193 36.3911 31.7026 37.7241 30.7505C39.0783 29.7983 40.6123 29.1001 42.3262 28.6558C44.0612 28.2114 45.8703 27.9893 47.7534 27.9893L51.689 28.021ZM75.2261 39.5737C75.353 38.7274 75.1414 38.0291 74.5913 37.479C74.0412 36.9077 73.3747 36.4211 72.5918 36.019C71.8301 35.617 71.153 35.2785 70.5605 35.0034C69.4391 34.4321 68.3812 33.8291 67.3867 33.1943C66.3923 32.5596 65.5142 31.8402 64.7524 31.0361C64.0119 30.2321 63.4406 29.3011 63.0386 28.2432C62.6366 27.1852 62.4779 25.9792 62.5625 24.625C62.6471 22.9323 63.0492 21.43 63.7686 20.1182C64.488 18.8063 65.4295 17.6955 66.5933 16.7856C67.757 15.8758 69.0688 15.1776 70.5288 14.6909C72.0099 14.2043 73.5439 13.9715 75.1309 13.9927C77.2891 14.035 79.2039 14.4899 80.8755 15.3574C82.547 16.2249 83.8377 17.4627 84.7476 19.0708C85.6785 20.6789 86.1335 22.5832 86.1123 24.7837H77.4478C77.4689 24.1066 77.4266 23.4507 77.3208 22.8159C77.2362 22.16 76.9823 21.6204 76.5591 21.1973C76.1571 20.7741 75.5223 20.5731 74.6548 20.5942C73.9777 20.6154 73.3641 20.7847 72.814 21.1021C72.285 21.4194 71.8407 21.8532 71.481 22.4033C71.1213 22.9323 70.8674 23.5142 70.7192 24.1489C70.6134 24.7625 70.7087 25.3021 71.0049 25.7676C71.3011 26.2119 71.7031 26.6034 72.2109 26.9419C72.7188 27.2804 73.2583 27.5872 73.8296 27.8623C74.4009 28.1162 74.8875 28.3278 75.2896 28.4971C76.8765 29.2376 78.3153 30.0628 79.606 30.9727C80.9178 31.8825 81.9334 32.9933 82.6528 34.3052C83.3722 35.5959 83.6685 37.2145 83.5415 39.1611C83.4569 40.9173 83.0231 42.4619 82.2402 43.7949C81.4574 45.1068 80.4417 46.207 79.1934 47.0957C77.945 47.9632 76.5591 48.6086 75.0356 49.0317C73.5122 49.4761 71.9465 49.6771 70.3384 49.6348C68.1167 49.5713 66.1489 49.0635 64.4351 48.1113C62.7424 47.1592 61.4199 45.8473 60.4678 44.1758C59.5156 42.5042 59.0501 40.5682 59.0713 38.3677L67.2915 38.3994C67.2915 39.2458 67.3761 40.0286 67.5454 40.748C67.7147 41.4674 68.0638 42.0282 68.5928 42.4302C69.1429 42.8322 69.9046 43.0332 70.8779 43.0332C71.6185 43.0332 72.2956 42.9062 72.9092 42.6523C73.5228 42.3984 74.0306 42.0176 74.4326 41.5098C74.8346 40.9808 75.0991 40.3354 75.2261 39.5737ZM100.985 0.25L92.5425 49H83.8462L92.3203 0.25H100.985ZM94.5103 30.6553L92.3203 30.7505C92.5107 29.0366 92.8704 27.2064 93.3994 25.2598C93.9284 23.292 94.6689 21.4512 95.6211 19.7373C96.5944 18.0023 97.8322 16.5952 99.3345 15.5161C100.858 14.437 102.699 13.9292 104.857 13.9927C106.655 14.035 108.094 14.4793 109.173 15.3257C110.274 16.1509 111.078 17.2194 111.585 18.5312C112.114 19.8431 112.432 21.2713 112.538 22.8159C112.643 24.3394 112.612 25.8416 112.442 27.3228L108.824 49H100.16L103.746 27.2275C103.831 26.4023 103.862 25.5454 103.841 24.6567C103.82 23.7469 103.609 22.9852 103.207 22.3716C102.805 21.7368 102.043 21.4194 100.921 21.4194C99.7365 21.356 98.7526 21.6416 97.9697 22.2764C97.1868 22.89 96.5627 23.6834 96.0972 24.6567C95.6528 25.6089 95.3037 26.6245 95.0498 27.7036C94.8171 28.7616 94.6372 29.7454 94.5103 30.6553Z" fill="black"/>
<path d="M121.221 0.25H126.712L119.349 42.6841L117.825 49H112.747L121.221 0.25ZM140.074 30.2744L139.661 33.4482C139.428 35.3102 139.026 37.2145 138.455 39.1611C137.905 41.0866 137.122 42.8639 136.106 44.4932C135.112 46.1012 133.821 47.3813 132.234 48.3335C130.669 49.2856 128.754 49.7194 126.49 49.6348C124.501 49.5713 122.914 49.0317 121.729 48.0161C120.544 46.9793 119.666 45.6675 119.095 44.0806C118.523 42.4937 118.174 40.8115 118.047 39.0342C117.92 37.2568 117.92 35.5853 118.047 34.0195L118.619 29.7349C118.894 28.021 119.327 26.2437 119.92 24.4028C120.512 22.5409 121.306 20.8164 122.3 19.2295C123.295 17.6214 124.533 16.3413 126.014 15.3892C127.495 14.4159 129.283 13.9504 131.377 13.9927C133.599 14.0562 135.345 14.6063 136.614 15.6431C137.884 16.6587 138.794 17.9811 139.344 19.6104C139.915 21.2396 140.232 22.9852 140.296 24.8472C140.359 26.7091 140.285 28.5182 140.074 30.2744ZM134.234 33.48L134.615 30.2427C134.721 29.1213 134.805 27.9258 134.869 26.6562C134.932 25.3656 134.837 24.1383 134.583 22.9746C134.35 21.8109 133.842 20.8587 133.06 20.1182C132.298 19.3564 131.166 18.9544 129.664 18.9121C128.5 18.891 127.431 19.1237 126.458 19.6104C125.506 20.097 124.649 20.7529 123.887 21.5781C123.147 22.4033 122.512 23.3237 121.983 24.3394C121.475 25.3338 121.094 26.3389 120.84 27.3545L119.38 36.4316C119.338 37.68 119.528 38.9284 119.952 40.1768C120.375 41.4251 121.041 42.4725 121.951 43.3188C122.861 44.1652 124.004 44.6201 125.379 44.6836C126.966 44.7471 128.288 44.4508 129.346 43.7949C130.425 43.139 131.293 42.2503 131.949 41.1289C132.605 40.0075 133.102 38.7803 133.44 37.4473C133.8 36.1143 134.065 34.7918 134.234 33.48ZM142.251 33.48L142.664 30.2427C142.939 28.1903 143.446 26.1908 144.187 24.2441C144.949 22.2975 145.954 20.5413 147.202 18.9756C148.451 17.4098 149.953 16.172 151.709 15.2622C153.486 14.3524 155.539 13.9398 157.866 14.0244C160.067 14.0879 161.897 14.6063 163.357 15.5796C164.817 16.5317 165.949 17.7907 166.753 19.3564C167.578 20.9222 168.118 22.6466 168.372 24.5298C168.625 26.4129 168.657 28.3066 168.467 30.2109L168.054 33.48C167.779 35.5112 167.261 37.5107 166.499 39.4785C165.758 41.4251 164.753 43.1813 163.484 44.7471C162.236 46.2917 160.723 47.5189 158.945 48.4287C157.189 49.3174 155.158 49.7194 152.852 49.6348C150.63 49.5924 148.789 49.0846 147.329 48.1113C145.89 47.138 144.758 45.8685 143.933 44.3027C143.129 42.737 142.6 41.0125 142.346 39.1294C142.092 37.2463 142.061 35.3631 142.251 33.48ZM148.154 30.2109L147.742 33.5435C147.636 34.6014 147.594 35.7757 147.615 37.0664C147.636 38.3359 147.816 39.5526 148.154 40.7163C148.493 41.88 149.054 42.8534 149.836 43.6362C150.64 44.3979 151.751 44.8105 153.169 44.874C154.777 44.9587 156.131 44.6624 157.231 43.9854C158.353 43.3083 159.273 42.409 159.993 41.2876C160.733 40.145 161.305 38.8966 161.707 37.5425C162.109 36.1672 162.394 34.813 162.563 33.48L162.976 30.1792C163.082 29.1213 163.124 27.9575 163.103 26.688C163.082 25.4185 162.902 24.2018 162.563 23.0381C162.225 21.8532 161.654 20.8693 160.85 20.0864C160.067 19.3035 158.956 18.8804 157.517 18.8169C156.015 18.7534 154.703 19.0708 153.582 19.769C152.481 20.4461 151.561 21.3665 150.82 22.5303C150.08 23.694 149.487 24.953 149.043 26.3071C148.62 27.6613 148.324 28.9626 148.154 30.2109ZM186.45 43.1284L189.465 24.4346C189.571 23.3343 189.507 22.3716 189.274 21.5464C189.063 20.7 188.618 20.0335 187.941 19.5469C187.285 19.0602 186.354 18.8169 185.148 18.8169C184.048 18.7957 183.064 19.0179 182.197 19.4834C181.329 19.9277 180.61 20.5519 180.039 21.356C179.488 22.16 179.108 23.091 178.896 24.1489L173.469 24.1807C173.617 22.6361 174.051 21.2396 174.77 19.9912C175.511 18.7217 176.452 17.6426 177.595 16.7539C178.737 15.8441 180.007 15.1564 181.403 14.6909C182.8 14.2043 184.249 13.9715 185.751 13.9927C187.91 14.0138 189.708 14.4688 191.147 15.3574C192.586 16.2249 193.623 17.4521 194.257 19.0391C194.913 20.6048 195.135 22.4456 194.924 24.5615L192.131 41.5098C191.94 42.7158 191.866 43.8796 191.909 45.001C191.951 46.1224 192.004 47.2756 192.067 48.4604L192.004 49L186.513 49.0317C186.302 48.0584 186.206 47.0745 186.228 46.0801C186.249 45.0856 186.323 44.1017 186.45 43.1284ZM189.877 28.1797L189.211 32.3057L185.72 32.2739C184.598 32.2739 183.477 32.4009 182.355 32.6548C181.255 32.9087 180.229 33.3107 179.277 33.8608C178.346 34.3898 177.563 35.0986 176.928 35.9873C176.315 36.8548 175.934 37.9233 175.786 39.1929C175.659 40.2297 175.69 41.1606 175.881 41.9858C176.092 42.7899 176.505 43.4352 177.119 43.9219C177.753 44.3874 178.642 44.6201 179.785 44.6201C180.97 44.6201 182.112 44.3556 183.212 43.8267C184.313 43.2977 185.254 42.5783 186.037 41.6685C186.841 40.7586 187.37 39.7218 187.624 38.5581L188.481 41.2241C188.227 42.3244 187.793 43.3929 187.18 44.4297C186.587 45.4453 185.857 46.3551 184.99 47.1592C184.122 47.9421 183.149 48.5557 182.07 49C181.012 49.4655 179.88 49.6982 178.674 49.6982C176.748 49.6982 175.13 49.2645 173.818 48.397C172.506 47.5295 171.533 46.3657 170.898 44.9058C170.263 43.4246 170.009 41.7531 170.136 39.8911C170.242 37.9022 170.718 36.1672 171.564 34.686C172.432 33.2049 173.553 31.9883 174.929 31.0361C176.304 30.0628 177.838 29.3434 179.531 28.8779C181.245 28.3913 183.022 28.1479 184.863 28.1479L189.877 28.1797ZM206.464 20.2769L201.481 49H195.99L201.957 14.6592H207.257L206.464 20.2769ZM215.636 14.437L215.033 19.896C214.631 19.8114 214.219 19.7373 213.795 19.6738C213.393 19.6104 212.991 19.5786 212.589 19.5786C211.341 19.5575 210.262 19.8008 209.352 20.3086C208.442 20.8164 207.659 21.4935 207.003 22.3398C206.369 23.1862 205.829 24.1172 205.385 25.1328C204.94 26.1484 204.581 27.1746 204.306 28.2114L202.687 29.1636C202.877 27.7248 203.174 26.1273 203.576 24.3711C203.999 22.5938 204.602 20.901 205.385 19.293C206.168 17.6637 207.194 16.3413 208.463 15.3257C209.733 14.3101 211.32 13.8446 213.224 13.9292C213.647 13.9504 214.049 14.0138 214.43 14.1196C214.832 14.2043 215.234 14.3101 215.636 14.437ZM230.033 41.9858L237.269 0.25H242.728L234.254 49H229.303L230.033 41.9858ZM212.989 33.48L213.37 30.3062C213.624 28.4019 214.037 26.487 214.608 24.5615C215.2 22.6149 216.015 20.8376 217.052 19.2295C218.089 17.6003 219.411 16.3096 221.019 15.3574C222.627 14.3841 224.563 13.9398 226.827 14.0244C228.816 14.0879 230.392 14.6486 231.556 15.7065C232.741 16.7433 233.609 18.0658 234.159 19.6738C234.73 21.2607 235.069 22.9429 235.174 24.7202C235.301 26.4976 235.301 28.1691 235.174 29.7349L234.603 34.0195C234.328 35.7122 233.894 37.4896 233.302 39.3516C232.709 41.1924 231.905 42.9062 230.89 44.4932C229.895 46.0801 228.657 47.3602 227.176 48.3335C225.695 49.2856 223.918 49.73 221.844 49.6665C219.707 49.603 218.004 49.0529 216.734 48.0161C215.486 46.9582 214.555 45.6146 213.941 43.9854C213.349 42.3561 212.989 40.6211 212.862 38.7803C212.757 36.9183 212.799 35.1515 212.989 33.48ZM218.861 30.2744L218.48 33.5117C218.353 34.612 218.268 35.7969 218.226 37.0664C218.205 38.3359 218.332 39.5526 218.607 40.7163C218.882 41.8589 219.4 42.8005 220.162 43.541C220.945 44.2816 222.088 44.673 223.59 44.7153C225.092 44.7576 226.436 44.3662 227.621 43.541C228.827 42.7158 229.832 41.6579 230.636 40.3672C231.44 39.0765 232.032 37.7646 232.413 36.4316L233.873 27.3545C233.894 26.4235 233.799 25.4819 233.587 24.5298C233.376 23.5565 233.016 22.6572 232.508 21.832C232.022 21.0068 231.397 20.3403 230.636 19.8325C229.874 19.3035 228.975 19.0073 227.938 18.9438C226.33 18.8804 224.976 19.1766 223.875 19.8325C222.796 20.4884 221.908 21.3877 221.209 22.5303C220.532 23.6517 220.003 24.8895 219.623 26.2437C219.263 27.5978 219.009 28.9414 218.861 30.2744Z" fill="#9A0000"/>
</svg>
