<svg width="495" height="16" viewBox="0 0 495 16" fill="none" xmlns="http://www.w3.org/2000/svg">
<path d="M4.2627 8.79932L5.52979 1.33594H7.26562L5.99121 8.79199C5.9082 9.39258 5.72754 9.95166 5.44922 10.4692C5.1709 10.9868 4.79492 11.4019 4.32129 11.7144C3.84766 12.022 3.28369 12.1685 2.62939 12.1538C2.00439 12.1392 1.49902 11.9854 1.11328 11.6924C0.732422 11.3945 0.461426 11.0063 0.300293 10.5278C0.144043 10.0444 0.0854492 9.51465 0.124512 8.93848H1.86768C1.84814 9.17773 1.85059 9.4292 1.875 9.69287C1.9043 9.95166 1.98486 10.1763 2.1167 10.3667C2.25342 10.5522 2.47314 10.6523 2.77588 10.667C3.10791 10.6768 3.37402 10.5815 3.57422 10.3813C3.7793 10.1763 3.93555 9.92725 4.04297 9.63428C4.15039 9.34131 4.22363 9.06299 4.2627 8.79932ZM10.2656 10.3887L10.8955 6.41895C10.915 6.22852 10.9102 6.05029 10.8809 5.88428C10.8564 5.71338 10.7881 5.57422 10.6758 5.4668C10.5684 5.35938 10.4023 5.30322 10.1777 5.29834C9.95801 5.29346 9.77002 5.33984 9.61377 5.4375C9.45752 5.53027 9.33057 5.65967 9.23291 5.82568C9.14014 5.98682 9.07666 6.16504 9.04248 6.36035L7.37988 6.375C7.40918 5.99414 7.50928 5.65234 7.68018 5.34961C7.85596 5.04199 8.08057 4.78076 8.354 4.56592C8.62744 4.35107 8.93262 4.18994 9.26953 4.08252C9.61133 3.97021 9.96533 3.9165 10.3315 3.92139C10.8442 3.92627 11.2764 4.03613 11.6279 4.25098C11.9795 4.46094 12.2358 4.75391 12.397 5.12988C12.5581 5.50586 12.6118 5.9502 12.5581 6.46289L11.9575 10.1689C11.9136 10.4521 11.8843 10.7378 11.8696 11.0259C11.8599 11.3091 11.8843 11.5923 11.9429 11.8755L11.9355 12L10.2949 12.0073C10.2266 11.7437 10.1948 11.4751 10.1997 11.2017C10.2046 10.9282 10.2266 10.6572 10.2656 10.3887ZM11.042 7.17334L10.8589 8.2793L10.1411 8.27197C9.9165 8.27197 9.70166 8.30371 9.49658 8.36719C9.29639 8.43066 9.11084 8.52344 8.93994 8.64551C8.77393 8.76758 8.63721 8.9165 8.52979 9.09229C8.42725 9.26807 8.36133 9.47559 8.33203 9.71484C8.30762 9.89062 8.31006 10.0566 8.33936 10.2129C8.37354 10.3691 8.44189 10.4961 8.54443 10.5938C8.65186 10.6914 8.81055 10.7427 9.02051 10.7476C9.24023 10.7476 9.45264 10.7012 9.65771 10.6084C9.86279 10.5107 10.0361 10.3789 10.1777 10.2129C10.3242 10.0469 10.417 9.854 10.4561 9.63428L10.7417 10.3594C10.6685 10.5986 10.5659 10.8281 10.4341 11.0479C10.3071 11.2627 10.1509 11.4556 9.96533 11.6265C9.78467 11.7925 9.57959 11.9243 9.3501 12.022C9.12061 12.1196 8.87158 12.166 8.60303 12.1611C8.16357 12.1562 7.79248 12.0513 7.48975 11.8462C7.18701 11.6362 6.95996 11.3604 6.80859 11.0186C6.66211 10.6719 6.60107 10.2886 6.62549 9.86865C6.6499 9.40479 6.75977 9.00195 6.95508 8.66016C7.15039 8.31836 7.4043 8.0376 7.7168 7.81787C8.0293 7.59326 8.3833 7.42969 8.77881 7.32715C9.17432 7.21973 9.58936 7.16602 10.0239 7.16602L11.042 7.17334ZM15.2798 5.8623L14.2178 12H12.5405L13.9175 4.0752H15.4849L15.2798 5.8623ZM14.6719 7.7666L14.2104 7.77393C14.2593 7.354 14.3472 6.91699 14.4741 6.46289C14.6011 6.00879 14.7817 5.58643 15.0161 5.1958C15.2505 4.80518 15.5483 4.49268 15.9097 4.2583C16.271 4.01904 16.708 3.90674 17.2207 3.92139C17.626 3.93604 17.9482 4.03613 18.1875 4.22168C18.4268 4.40234 18.6025 4.6416 18.7148 4.93945C18.8271 5.23242 18.8906 5.5498 18.9053 5.8916C18.9248 6.22852 18.9175 6.56055 18.8833 6.8877L18.0337 12H16.3711L17.2207 6.86572C17.2402 6.646 17.2451 6.42383 17.2354 6.19922C17.2256 5.96973 17.1621 5.77686 17.0449 5.62061C16.9326 5.45947 16.7373 5.37646 16.459 5.37158C16.1611 5.35693 15.9048 5.43018 15.6899 5.59131C15.48 5.75244 15.3066 5.95996 15.1699 6.21387C15.0332 6.46289 14.9258 6.72656 14.8477 7.00488C14.7695 7.27832 14.7109 7.53223 14.6719 7.7666ZM84.2476 1.33594L82.3945 12H80.6587L82.5044 1.33594H84.2476ZM86.7964 5.98682L86.5327 7.48096H82.7754L83.0391 5.98682H86.7964ZM88.0854 1.33594L87.8218 2.83008H83.5737L83.8374 1.33594H88.0854ZM89.6206 12.1465C89.0981 12.1367 88.6562 12.0342 88.2949 11.8389C87.9336 11.6436 87.6479 11.3774 87.438 11.0405C87.2329 10.7036 87.0938 10.3228 87.0205 9.89795C86.9473 9.47314 86.9351 9.02148 86.9839 8.54297L87.0791 7.78125C87.1377 7.29297 87.25 6.81689 87.416 6.35303C87.5869 5.88428 87.814 5.46436 88.0972 5.09326C88.3804 4.72217 88.7271 4.43164 89.1372 4.22168C89.5522 4.01172 90.0381 3.91162 90.5947 3.92139C91.1318 3.93604 91.564 4.05811 91.8911 4.2876C92.2231 4.51221 92.4673 4.80762 92.6235 5.17383C92.7847 5.54004 92.8799 5.94531 92.9092 6.38965C92.9434 6.83398 92.9336 7.27832 92.8799 7.72266L92.7554 8.57959H87.7529L87.98 7.29053L91.2832 7.29785L91.3125 7.1001C91.3516 6.85107 91.3613 6.59473 91.3418 6.33105C91.3271 6.06738 91.2539 5.84277 91.1221 5.65723C90.9902 5.47168 90.7681 5.36914 90.4556 5.34961C90.1284 5.33496 89.8599 5.40332 89.6499 5.55469C89.4399 5.70605 89.2739 5.90869 89.1519 6.1626C89.0298 6.4165 88.9395 6.6875 88.8809 6.97559C88.8223 7.25879 88.7783 7.52734 88.749 7.78125L88.6538 8.55029C88.6245 8.79443 88.6123 9.04102 88.6172 9.29004C88.627 9.53906 88.666 9.771 88.7344 9.98584C88.8076 10.1958 88.9272 10.3691 89.0933 10.5059C89.2642 10.6377 89.5034 10.7061 89.811 10.7109C90.1724 10.7207 90.502 10.6523 90.7998 10.5059C91.0977 10.3545 91.3711 10.1592 91.6201 9.91992L92.272 10.9746C92.0669 11.248 91.8203 11.4727 91.5322 11.6484C91.249 11.8242 90.9414 11.9512 90.6094 12.0293C90.2822 12.1123 89.9526 12.1514 89.6206 12.1465ZM94.6787 0.75H96.3413L94.6714 10.3887L94.2686 12H92.7231L94.6787 0.75ZM99.249 7.70801L99.1758 8.33057C99.1221 8.76514 99.0317 9.21191 98.9048 9.6709C98.7827 10.125 98.6094 10.5449 98.3848 10.9307C98.1602 11.3115 97.8647 11.6167 97.4985 11.8462C97.1372 12.0708 96.6904 12.1733 96.1582 12.1538C95.709 12.1392 95.3501 12.0073 95.0815 11.7583C94.813 11.5093 94.6128 11.1968 94.481 10.8208C94.354 10.4399 94.2759 10.042 94.2466 9.62695C94.2173 9.21191 94.2148 8.82861 94.2393 8.47705L94.3491 7.61279C94.4126 7.22705 94.5127 6.81934 94.6494 6.38965C94.7861 5.95508 94.9668 5.5498 95.1914 5.17383C95.4209 4.79297 95.7041 4.48535 96.041 4.25098C96.3828 4.0166 96.7881 3.9043 97.2568 3.91406C97.7744 3.92871 98.1772 4.05811 98.4653 4.30225C98.7583 4.5415 98.9683 4.85156 99.0952 5.23242C99.2222 5.61328 99.2905 6.02344 99.3003 6.46289C99.3101 6.89746 99.293 7.3125 99.249 7.70801ZM97.5132 8.35254L97.5864 7.72266C97.606 7.5127 97.6255 7.27588 97.645 7.01221C97.6646 6.74365 97.6548 6.4873 97.6157 6.24316C97.5815 5.99414 97.4912 5.78906 97.3447 5.62793C97.2031 5.46191 96.9834 5.37646 96.6855 5.37158C96.4316 5.36182 96.207 5.41064 96.0117 5.51807C95.8213 5.62549 95.6553 5.76953 95.5137 5.9502C95.3721 6.13086 95.2573 6.32861 95.1694 6.54346C95.0815 6.7583 95.0156 6.9707 94.9717 7.18066L94.7153 8.90186C94.6958 9.16553 94.7129 9.43408 94.7666 9.70752C94.8252 9.97607 94.9375 10.2056 95.1035 10.396C95.2695 10.5815 95.5088 10.6841 95.8213 10.7036C96.1484 10.7183 96.4146 10.6548 96.6196 10.5132C96.8296 10.3716 96.9932 10.1812 97.1104 9.94189C97.2324 9.70264 97.3228 9.44385 97.3813 9.16553C97.4399 8.88232 97.4839 8.61133 97.5132 8.35254ZM163.463 1.33594H164.95L165.844 9.48047L169.55 1.33594H171.146L166.071 12H164.84L163.463 1.33594ZM162.738 1.33594H164.196L163.214 8.59424L162.621 12H160.885L162.738 1.33594ZM170.348 1.33594H171.82L169.975 12H168.239L168.861 8.43311L170.348 1.33594ZM174.879 10.3887L175.509 6.41895C175.528 6.22852 175.523 6.05029 175.494 5.88428C175.47 5.71338 175.401 5.57422 175.289 5.4668C175.182 5.35938 175.016 5.30322 174.791 5.29834C174.571 5.29346 174.383 5.33984 174.227 5.4375C174.071 5.53027 173.944 5.65967 173.846 5.82568C173.753 5.98682 173.69 6.16504 173.656 6.36035L171.993 6.375C172.022 5.99414 172.123 5.65234 172.293 5.34961C172.469 5.04199 172.694 4.78076 172.967 4.56592C173.241 4.35107 173.546 4.18994 173.883 4.08252C174.225 3.97021 174.579 3.9165 174.945 3.92139C175.458 3.92627 175.89 4.03613 176.241 4.25098C176.593 4.46094 176.849 4.75391 177.01 5.12988C177.171 5.50586 177.225 5.9502 177.171 6.46289L176.571 10.1689C176.527 10.4521 176.498 10.7378 176.483 11.0259C176.473 11.3091 176.498 11.5923 176.556 11.8755L176.549 12L174.908 12.0073C174.84 11.7437 174.808 11.4751 174.813 11.2017C174.818 10.9282 174.84 10.6572 174.879 10.3887ZM175.655 7.17334L175.472 8.2793L174.754 8.27197C174.53 8.27197 174.315 8.30371 174.11 8.36719C173.91 8.43066 173.724 8.52344 173.553 8.64551C173.387 8.76758 173.25 8.9165 173.143 9.09229C173.041 9.26807 172.975 9.47559 172.945 9.71484C172.921 9.89062 172.923 10.0566 172.953 10.2129C172.987 10.3691 173.055 10.4961 173.158 10.5938C173.265 10.6914 173.424 10.7427 173.634 10.7476C173.854 10.7476 174.066 10.7012 174.271 10.6084C174.476 10.5107 174.649 10.3789 174.791 10.2129C174.938 10.0469 175.03 9.854 175.069 9.63428L175.355 10.3594C175.282 10.5986 175.179 10.8281 175.047 11.0479C174.92 11.2627 174.764 11.4556 174.579 11.6265C174.398 11.7925 174.193 11.9243 173.963 12.022C173.734 12.1196 173.485 12.166 173.216 12.1611C172.777 12.1562 172.406 12.0513 172.103 11.8462C171.8 11.6362 171.573 11.3604 171.422 11.0186C171.275 10.6719 171.214 10.2886 171.239 9.86865C171.263 9.40479 171.373 9.00195 171.568 8.66016C171.764 8.31836 172.018 8.0376 172.33 7.81787C172.643 7.59326 172.997 7.42969 173.392 7.32715C173.788 7.21973 174.203 7.16602 174.637 7.16602L175.655 7.17334ZM179.937 5.68652L178.846 12H177.183L178.56 4.0752H180.142L179.937 5.68652ZM182.046 4.0166L181.834 5.70117C181.736 5.67676 181.636 5.65967 181.534 5.6499C181.431 5.63525 181.331 5.62793 181.233 5.62793C180.96 5.62305 180.726 5.67188 180.53 5.77441C180.335 5.87695 180.169 6.01611 180.032 6.19189C179.9 6.36279 179.788 6.55566 179.695 6.77051C179.607 6.98535 179.537 7.20752 179.483 7.43701L179.117 7.45898C179.161 7.1416 179.227 6.77783 179.314 6.36768C179.407 5.95752 179.539 5.56445 179.71 5.18848C179.881 4.80762 180.108 4.49756 180.391 4.2583C180.674 4.01416 181.028 3.89697 181.453 3.90674C181.556 3.91162 181.656 3.92383 181.753 3.94336C181.851 3.96289 181.949 3.9873 182.046 4.0166ZM183.904 10.7329C184.177 10.7378 184.402 10.6768 184.578 10.5498C184.758 10.4229 184.9 10.2544 185.002 10.0444C185.105 9.83447 185.178 9.6123 185.222 9.37793L186.782 9.37061C186.724 9.89307 186.562 10.3667 186.299 10.7915C186.04 11.2163 185.696 11.5532 185.266 11.8022C184.841 12.0464 184.355 12.1636 183.809 12.1538C183.267 12.1392 182.822 12.0269 182.476 11.8169C182.129 11.6021 181.863 11.3164 181.677 10.96C181.492 10.5986 181.375 10.1982 181.326 9.75879C181.277 9.31934 181.279 8.86523 181.333 8.39648L181.421 7.67871C181.489 7.18555 181.604 6.70947 181.765 6.25049C181.931 5.7915 182.153 5.38623 182.432 5.03467C182.71 4.67822 183.057 4.40234 183.472 4.20703C183.887 4.00684 184.373 3.91406 184.929 3.92871C185.51 3.94336 185.974 4.09229 186.321 4.37549C186.667 4.65381 186.914 5.01758 187.061 5.4668C187.212 5.91602 187.275 6.4043 187.251 6.93164L185.691 6.92432C185.696 6.69482 185.681 6.46289 185.647 6.22852C185.618 5.98926 185.535 5.78662 185.398 5.62061C185.266 5.45459 185.061 5.36426 184.783 5.34961C184.456 5.33984 184.187 5.40576 183.977 5.54736C183.772 5.68896 183.608 5.87939 183.486 6.11865C183.369 6.35303 183.281 6.60938 183.223 6.8877C183.164 7.16113 183.118 7.4248 183.083 7.67871L183.003 8.40381C182.983 8.61377 182.964 8.85059 182.944 9.11426C182.925 9.37793 182.932 9.63184 182.966 9.87598C183.005 10.1201 183.096 10.3228 183.237 10.4839C183.379 10.6401 183.601 10.7231 183.904 10.7329ZM190.478 0.75L188.53 12H186.86L188.815 0.75H190.478ZM188.999 7.7666H188.515C188.559 7.36133 188.645 6.93408 188.771 6.48486C188.903 6.03076 189.084 5.6084 189.313 5.21777C189.543 4.82227 189.836 4.50488 190.192 4.26562C190.549 4.02148 190.979 3.90918 191.481 3.92871C191.887 3.93848 192.211 4.03613 192.456 4.22168C192.705 4.40234 192.888 4.63916 193.005 4.93213C193.127 5.2251 193.2 5.54492 193.225 5.8916C193.249 6.2334 193.242 6.57275 193.203 6.90967L192.353 12H190.69L191.54 6.8877C191.56 6.66797 191.564 6.44336 191.555 6.21387C191.545 5.97949 191.484 5.78174 191.372 5.62061C191.259 5.45947 191.062 5.37646 190.778 5.37158C190.476 5.35693 190.217 5.43018 190.002 5.59131C189.787 5.74756 189.611 5.9502 189.475 6.19922C189.343 6.44824 189.238 6.71191 189.16 6.99023C189.082 7.26855 189.028 7.52734 188.999 7.7666ZM249.409 2.88867L245.351 12H243.491L248.618 1.33594H249.79L249.409 2.88867ZM249.841 12L248.918 2.72021L249.05 1.33594H250.163L251.606 12H249.841ZM250.566 8.0376L250.295 9.53174H245.468L245.732 8.0376H250.566ZM254.496 5.69385L252.87 15.0469H251.208L253.112 4.0752H254.635L254.496 5.69385ZM258.253 7.72266L258.18 8.34521C258.126 8.77002 258.036 9.20947 257.909 9.66357C257.782 10.1128 257.604 10.5303 257.375 10.916C257.15 11.2969 256.857 11.6021 256.496 11.8315C256.134 12.061 255.69 12.166 255.163 12.1465C254.723 12.1318 254.367 12.0073 254.093 11.7729C253.825 11.5337 253.62 11.2334 253.478 10.8721C253.341 10.5059 253.253 10.1201 253.214 9.71484C253.175 9.30469 253.166 8.92627 253.185 8.57959L253.317 7.62012C253.385 7.22949 253.488 6.81934 253.625 6.38965C253.761 5.95996 253.944 5.55713 254.174 5.18115C254.408 4.80029 254.696 4.49268 255.038 4.2583C255.38 4.01904 255.788 3.90674 256.261 3.92139C256.774 3.93604 257.177 4.06543 257.47 4.30957C257.763 4.54883 257.973 4.85889 258.1 5.23975C258.227 5.62061 258.295 6.03076 258.305 6.47021C258.314 6.90967 258.297 7.32715 258.253 7.72266ZM256.518 8.35254L256.583 7.71533C256.608 7.50537 256.627 7.271 256.642 7.01221C256.657 6.74854 256.642 6.49219 256.598 6.24316C256.554 5.99414 256.459 5.78906 256.312 5.62793C256.166 5.46191 255.944 5.37402 255.646 5.36426C255.397 5.35938 255.175 5.41064 254.979 5.51807C254.784 5.62549 254.616 5.76953 254.474 5.9502C254.337 6.13086 254.223 6.33105 254.13 6.55078C254.042 6.76562 253.979 6.98047 253.939 7.19531L253.668 9.00439C253.654 9.26318 253.678 9.52197 253.742 9.78076C253.805 10.0396 253.917 10.2593 254.079 10.4399C254.245 10.6157 254.479 10.7109 254.782 10.7256C255.104 10.7402 255.37 10.6743 255.58 10.5278C255.79 10.3765 255.958 10.1812 256.085 9.94189C256.212 9.69775 256.308 9.43408 256.371 9.15088C256.435 8.86768 256.483 8.60156 256.518 8.35254ZM260.931 5.68652L259.84 12H258.177L259.554 4.0752H261.136L260.931 5.68652ZM263.041 4.0166L262.828 5.70117C262.73 5.67676 262.63 5.65967 262.528 5.6499C262.425 5.63525 262.325 5.62793 262.228 5.62793C261.954 5.62305 261.72 5.67188 261.524 5.77441C261.329 5.87695 261.163 6.01611 261.026 6.19189C260.895 6.36279 260.782 6.55566 260.689 6.77051C260.602 6.98535 260.531 7.20752 260.477 7.43701L260.111 7.45898C260.155 7.1416 260.221 6.77783 260.309 6.36768C260.401 5.95752 260.533 5.56445 260.704 5.18848C260.875 4.80762 261.102 4.49756 261.385 4.2583C261.668 4.01416 262.022 3.89697 262.447 3.90674C262.55 3.91162 262.65 3.92383 262.748 3.94336C262.845 3.96289 262.943 3.9873 263.041 4.0166ZM265.206 4.0752L263.829 12H262.166L263.543 4.0752H265.206ZM263.821 2.02441C263.826 1.75586 263.912 1.52637 264.078 1.33594C264.249 1.14062 264.471 1.04053 264.744 1.03564C265.018 1.03076 265.24 1.11865 265.411 1.29932C265.582 1.47998 265.665 1.70459 265.66 1.97314C265.655 2.2417 265.567 2.47119 265.396 2.66162C265.23 2.84717 265.008 2.94238 264.729 2.94727C264.461 2.95703 264.241 2.87402 264.07 2.69824C263.904 2.51758 263.821 2.29297 263.821 2.02441ZM268.55 0.75L266.594 12H264.932L266.887 0.75H268.55ZM318.511 1.33594H319.998L320.892 9.48047L324.598 1.33594H326.194L321.119 12H319.888L318.511 1.33594ZM317.786 1.33594H319.244L318.262 8.59424L317.669 12H315.933L317.786 1.33594ZM325.396 1.33594H326.868L325.022 12H323.287L323.909 8.43311L325.396 1.33594ZM329.927 10.3887L330.557 6.41895C330.576 6.22852 330.571 6.05029 330.542 5.88428C330.518 5.71338 330.449 5.57422 330.337 5.4668C330.229 5.35938 330.063 5.30322 329.839 5.29834C329.619 5.29346 329.431 5.33984 329.275 5.4375C329.119 5.53027 328.992 5.65967 328.894 5.82568C328.801 5.98682 328.738 6.16504 328.704 6.36035L327.041 6.375C327.07 5.99414 327.17 5.65234 327.341 5.34961C327.517 5.04199 327.742 4.78076 328.015 4.56592C328.289 4.35107 328.594 4.18994 328.931 4.08252C329.272 3.97021 329.626 3.9165 329.993 3.92139C330.505 3.92627 330.938 4.03613 331.289 4.25098C331.641 4.46094 331.897 4.75391 332.058 5.12988C332.219 5.50586 332.273 5.9502 332.219 6.46289L331.619 10.1689C331.575 10.4521 331.545 10.7378 331.531 11.0259C331.521 11.3091 331.545 11.5923 331.604 11.8755L331.597 12L329.956 12.0073C329.888 11.7437 329.856 11.4751 329.861 11.2017C329.866 10.9282 329.888 10.6572 329.927 10.3887ZM330.703 7.17334L330.52 8.2793L329.802 8.27197C329.578 8.27197 329.363 8.30371 329.158 8.36719C328.958 8.43066 328.772 8.52344 328.601 8.64551C328.435 8.76758 328.298 8.9165 328.191 9.09229C328.088 9.26807 328.022 9.47559 327.993 9.71484C327.969 9.89062 327.971 10.0566 328 10.2129C328.035 10.3691 328.103 10.4961 328.206 10.5938C328.313 10.6914 328.472 10.7427 328.682 10.7476C328.901 10.7476 329.114 10.7012 329.319 10.6084C329.524 10.5107 329.697 10.3789 329.839 10.2129C329.985 10.0469 330.078 9.854 330.117 9.63428L330.403 10.3594C330.33 10.5986 330.227 10.8281 330.095 11.0479C329.968 11.2627 329.812 11.4556 329.626 11.6265C329.446 11.7925 329.241 11.9243 329.011 12.022C328.782 12.1196 328.533 12.166 328.264 12.1611C327.825 12.1562 327.454 12.0513 327.151 11.8462C326.848 11.6362 326.621 11.3604 326.47 11.0186C326.323 10.6719 326.262 10.2886 326.287 9.86865C326.311 9.40479 326.421 9.00195 326.616 8.66016C326.812 8.31836 327.065 8.0376 327.378 7.81787C327.69 7.59326 328.044 7.42969 328.44 7.32715C328.835 7.21973 329.25 7.16602 329.685 7.16602L330.703 7.17334ZM334.121 11.0405L336.962 4.0752H338.779L334.692 13.2085C334.58 13.4624 334.453 13.709 334.311 13.9482C334.169 14.1875 334.003 14.4023 333.813 14.5928C333.627 14.7881 333.413 14.9419 333.168 15.0542C332.929 15.1714 332.658 15.2275 332.355 15.2227C332.219 15.2227 332.084 15.208 331.953 15.1787C331.821 15.1494 331.687 15.1152 331.55 15.0762L331.696 13.7065C331.74 13.7163 331.784 13.7236 331.828 13.7285C331.867 13.7334 331.906 13.7383 331.945 13.7432C332.199 13.748 332.417 13.7065 332.597 13.6187C332.778 13.5308 332.929 13.4038 333.051 13.2378C333.178 13.0767 333.288 12.8887 333.381 12.6738L334.121 11.0405ZM334.611 4.0752L334.941 10.0591L334.904 11.9048L333.754 12.1978L332.868 4.0752H334.611ZM395.414 8.79932L396.681 1.33594H398.417L397.143 8.79199C397.06 9.39258 396.879 9.95166 396.601 10.4692C396.322 10.9868 395.946 11.4019 395.473 11.7144C394.999 12.022 394.435 12.1685 393.781 12.1538C393.156 12.1392 392.65 11.9854 392.265 11.6924C391.884 11.3945 391.613 11.0063 391.452 10.5278C391.295 10.0444 391.237 9.51465 391.276 8.93848H393.019C393 9.17773 393.002 9.4292 393.026 9.69287C393.056 9.95166 393.136 10.1763 393.268 10.3667C393.405 10.5522 393.625 10.6523 393.927 10.667C394.259 10.6768 394.525 10.5815 394.726 10.3813C394.931 10.1763 395.087 9.92725 395.194 9.63428C395.302 9.34131 395.375 9.06299 395.414 8.79932ZM401.688 10.0371L402.728 4.0752H404.398L403.021 12H401.446L401.688 10.0371ZM402.149 8.44775L402.618 8.43311C402.569 8.84814 402.491 9.27539 402.384 9.71484C402.276 10.1543 402.118 10.562 401.908 10.938C401.703 11.3091 401.427 11.6094 401.08 11.8389C400.738 12.0635 400.313 12.1685 399.806 12.1538C399.396 12.144 399.066 12.0488 398.817 11.8682C398.568 11.6875 398.38 11.4531 398.253 11.165C398.131 10.8721 398.055 10.5547 398.026 10.2129C398.001 9.86621 398.006 9.52686 398.041 9.19482L398.897 4.0752H400.567L399.71 9.2168C399.696 9.34863 399.686 9.49756 399.681 9.66357C399.681 9.82959 399.698 9.99072 399.732 10.147C399.767 10.2983 399.83 10.4253 399.923 10.5278C400.016 10.6304 400.155 10.6841 400.34 10.689C400.77 10.7134 401.107 10.6108 401.351 10.3813C401.6 10.147 401.783 9.854 401.9 9.50244C402.022 9.146 402.105 8.79443 402.149 8.44775ZM406.622 5.8623L405.56 12H403.882L405.259 4.0752H406.827L406.622 5.8623ZM406.014 7.7666L405.552 7.77393C405.601 7.354 405.689 6.91699 405.816 6.46289C405.943 6.00879 406.124 5.58643 406.358 5.1958C406.592 4.80518 406.89 4.49268 407.251 4.2583C407.613 4.01904 408.05 3.90674 408.562 3.92139C408.968 3.93604 409.29 4.03613 409.529 4.22168C409.769 4.40234 409.944 4.6416 410.057 4.93945C410.169 5.23242 410.232 5.5498 410.247 5.8916C410.267 6.22852 410.259 6.56055 410.225 6.8877L409.375 12H407.713L408.562 6.86572C408.582 6.646 408.587 6.42383 408.577 6.19922C408.567 5.96973 408.504 5.77686 408.387 5.62061C408.274 5.45947 408.079 5.37646 407.801 5.37158C407.503 5.35693 407.247 5.43018 407.032 5.59131C406.822 5.75244 406.648 5.95996 406.512 6.21387C406.375 6.46289 406.268 6.72656 406.189 7.00488C406.111 7.27832 406.053 7.53223 406.014 7.7666ZM413.328 12.1465C412.805 12.1367 412.363 12.0342 412.002 11.8389C411.641 11.6436 411.355 11.3774 411.145 11.0405C410.94 10.7036 410.801 10.3228 410.728 9.89795C410.654 9.47314 410.642 9.02148 410.691 8.54297L410.786 7.78125C410.845 7.29297 410.957 6.81689 411.123 6.35303C411.294 5.88428 411.521 5.46436 411.804 5.09326C412.087 4.72217 412.434 4.43164 412.844 4.22168C413.259 4.01172 413.745 3.91162 414.302 3.92139C414.839 3.93604 415.271 4.05811 415.598 4.2876C415.93 4.51221 416.174 4.80762 416.331 5.17383C416.492 5.54004 416.587 5.94531 416.616 6.38965C416.65 6.83398 416.641 7.27832 416.587 7.72266L416.462 8.57959H411.46L411.687 7.29053L414.99 7.29785L415.02 7.1001C415.059 6.85107 415.068 6.59473 415.049 6.33105C415.034 6.06738 414.961 5.84277 414.829 5.65723C414.697 5.47168 414.475 5.36914 414.163 5.34961C413.835 5.33496 413.567 5.40332 413.357 5.55469C413.147 5.70605 412.981 5.90869 412.859 6.1626C412.737 6.4165 412.646 6.6875 412.588 6.97559C412.529 7.25879 412.485 7.52734 412.456 7.78125L412.361 8.55029C412.332 8.79443 412.319 9.04102 412.324 9.29004C412.334 9.53906 412.373 9.771 412.441 9.98584C412.515 10.1958 412.634 10.3691 412.8 10.5059C412.971 10.6377 413.21 10.7061 413.518 10.7109C413.879 10.7207 414.209 10.6523 414.507 10.5059C414.805 10.3545 415.078 10.1592 415.327 9.91992L415.979 10.9746C415.774 11.248 415.527 11.4727 415.239 11.6484C414.956 11.8242 414.648 11.9512 414.316 12.0293C413.989 12.1123 413.66 12.1514 413.328 12.1465ZM476.859 8.79932L478.126 1.33594H479.862L478.588 8.79199C478.505 9.39258 478.324 9.95166 478.046 10.4692C477.768 10.9868 477.392 11.4019 476.918 11.7144C476.444 12.022 475.88 12.1685 475.226 12.1538C474.601 12.1392 474.096 11.9854 473.71 11.6924C473.329 11.3945 473.058 11.0063 472.897 10.5278C472.741 10.0444 472.682 9.51465 472.721 8.93848H474.464C474.445 9.17773 474.447 9.4292 474.472 9.69287C474.501 9.95166 474.582 10.1763 474.713 10.3667C474.85 10.5522 475.07 10.6523 475.373 10.667C475.705 10.6768 475.971 10.5815 476.171 10.3813C476.376 10.1763 476.532 9.92725 476.64 9.63428C476.747 9.34131 476.82 9.06299 476.859 8.79932ZM483.133 10.0371L484.173 4.0752H485.843L484.466 12H482.892L483.133 10.0371ZM483.595 8.44775L484.063 8.43311C484.015 8.84814 483.937 9.27539 483.829 9.71484C483.722 10.1543 483.563 10.562 483.353 10.938C483.148 11.3091 482.872 11.6094 482.525 11.8389C482.184 12.0635 481.759 12.1685 481.251 12.1538C480.841 12.144 480.511 12.0488 480.262 11.8682C480.013 11.6875 479.825 11.4531 479.698 11.165C479.576 10.8721 479.5 10.5547 479.471 10.2129C479.447 9.86621 479.452 9.52686 479.486 9.19482L480.343 4.0752H482.013L481.156 9.2168C481.141 9.34863 481.131 9.49756 481.126 9.66357C481.126 9.82959 481.144 9.99072 481.178 10.147C481.212 10.2983 481.275 10.4253 481.368 10.5278C481.461 10.6304 481.6 10.6841 481.786 10.689C482.215 10.7134 482.552 10.6108 482.796 10.3813C483.045 10.147 483.229 9.854 483.346 9.50244C483.468 9.146 483.551 8.79443 483.595 8.44775ZM489.07 0.75L487.115 12H485.452L487.408 0.75H489.07ZM490.129 11.0405L492.971 4.0752H494.788L490.701 13.2085C490.588 13.4624 490.461 13.709 490.32 13.9482C490.178 14.1875 490.012 14.4023 489.822 14.5928C489.636 14.7881 489.421 14.9419 489.177 15.0542C488.938 15.1714 488.667 15.2275 488.364 15.2227C488.228 15.2227 488.093 15.208 487.961 15.1787C487.83 15.1494 487.695 15.1152 487.559 15.0762L487.705 13.7065C487.749 13.7163 487.793 13.7236 487.837 13.7285C487.876 13.7334 487.915 13.7383 487.954 13.7432C488.208 13.748 488.425 13.7065 488.606 13.6187C488.787 13.5308 488.938 13.4038 489.06 13.2378C489.187 13.0767 489.297 12.8887 489.39 12.6738L490.129 11.0405ZM490.62 4.0752L490.95 10.0591L490.913 11.9048L489.763 12.1978L488.877 4.0752H490.62Z" fill="black"/>
</svg>
