<svg width="290" height="63" viewBox="0 0 290 63" fill="none" xmlns="http://www.w3.org/2000/svg">
<path d="M12.5366 2.78906H19.9316L22.7246 36.146L36.9751 2.78906H44.8779L23.8037 49H17.6147L12.5366 2.78906ZM8.28369 2.78906H15.9009L11.521 36.8125L9.36279 49H0.317383L8.28369 2.78906ZM41.228 2.78906H48.877L40.8789 49H31.8018L34.0869 35.9873L41.228 2.78906ZM60.5439 41.0972L63.083 25.1646C63.1465 24.5509 63.1571 23.9268 63.1147 23.292C63.0724 22.6572 62.8926 22.1177 62.5752 21.6733C62.279 21.2078 61.7394 20.9645 60.9565 20.9434C60.1102 20.9222 59.4331 21.1021 58.9253 21.4829C58.4175 21.8638 58.026 22.361 57.751 22.9746C57.4759 23.5882 57.2749 24.2336 57.1479 24.9106L48.4517 24.9741C48.5575 23.2391 48.9912 21.6945 49.7529 20.3403C50.5358 18.965 51.5409 17.8013 52.7681 16.8491C53.9953 15.897 55.3706 15.1776 56.894 14.6909C58.4386 14.2043 60.0361 13.9715 61.6865 13.9927C63.9717 14.035 65.9077 14.5322 67.4946 15.4844C69.0815 16.4365 70.2453 17.7484 70.9858 19.4199C71.7264 21.0915 71.9803 23.0698 71.7476 25.355L69.3037 40.6846C69.1133 41.9329 68.944 43.2342 68.7959 44.5884C68.6689 45.9214 68.8171 47.2121 69.2402 48.4604L69.2085 49L60.7344 49.0317C60.3747 47.741 60.2054 46.4292 60.2266 45.0962C60.2689 43.742 60.3747 42.409 60.5439 41.0972ZM63.8765 28.021L62.9878 33.353L60.1631 33.3213C59.3379 33.3424 58.5762 33.5011 57.8779 33.7974C57.2008 34.0724 56.5872 34.4744 56.0371 35.0034C55.5081 35.5112 55.0744 36.1037 54.7358 36.7808C54.4185 37.4367 54.2174 38.1772 54.1328 39.0024C54.0482 39.5526 54.0376 40.1133 54.1011 40.6846C54.1857 41.2347 54.3867 41.7002 54.7041 42.0811C55.0426 42.4619 55.5505 42.6629 56.2275 42.6841C56.9681 42.6841 57.6981 42.536 58.4175 42.2397C59.1369 41.9224 59.7399 41.478 60.2266 40.9067C60.7132 40.3354 60.9989 39.6689 61.0835 38.9072L62.6704 42.4619C62.3107 43.4141 61.8558 44.3345 61.3057 45.2231C60.7767 46.0907 60.1419 46.8735 59.4014 47.5718C58.682 48.2489 57.8568 48.7778 56.9258 49.1587C56.016 49.5396 54.9792 49.7194 53.8154 49.6982C51.9746 49.6771 50.3877 49.201 49.0547 48.27C47.7428 47.3179 46.759 46.0907 46.103 44.5884C45.4471 43.0861 45.1615 41.4357 45.2461 39.6372C45.3307 37.606 45.7962 35.8604 46.6426 34.4004C47.4889 32.9193 48.5786 31.7026 49.9116 30.7505C51.2658 29.7983 52.7998 29.1001 54.5137 28.6558C56.2487 28.2114 58.0578 27.9893 59.9409 27.9893L63.8765 28.021ZM84.0176 22.4668L79.4155 49H70.6558L76.6226 14.6592H84.7793L84.0176 22.4668ZM81.3198 30.6553L79.3203 30.7822C79.4684 28.9626 79.807 27.0688 80.3359 25.1011C80.8649 23.1121 81.6266 21.2607 82.6211 19.5469C83.6367 17.833 84.9168 16.4683 86.4614 15.4526C88.006 14.4159 89.8997 13.9292 92.1426 13.9927C93.9199 14.0562 95.3164 14.5005 96.332 15.3257C97.3688 16.1509 98.12 17.23 98.5854 18.563C99.0721 19.8748 99.3472 21.2819 99.4106 22.7842C99.4741 24.2653 99.4318 25.7253 99.2837 27.1641L95.6338 49H86.9692L90.5874 27.0688C90.672 26.2013 90.6932 25.3444 90.6509 24.498C90.6297 23.6305 90.4076 22.9006 89.9844 22.3081C89.5612 21.7157 88.8101 21.4194 87.731 21.4194C86.5884 21.356 85.6362 21.6416 84.8745 22.2764C84.1128 22.9111 83.4886 23.7257 83.002 24.7202C82.5365 25.6935 82.1662 26.7091 81.8911 27.7671C81.6372 28.825 81.4468 29.7878 81.3198 30.6553ZM114.791 41.0972L117.33 25.1646C117.394 24.5509 117.404 23.9268 117.362 23.292C117.319 22.6572 117.14 22.1177 116.822 21.6733C116.526 21.2078 115.986 20.9645 115.204 20.9434C114.357 20.9222 113.68 21.1021 113.172 21.4829C112.665 21.8638 112.273 22.361 111.998 22.9746C111.723 23.5882 111.522 24.2336 111.395 24.9106L102.699 24.9741C102.805 23.2391 103.238 21.6945 104 20.3403C104.783 18.965 105.788 17.8013 107.015 16.8491C108.242 15.897 109.618 15.1776 111.141 14.6909C112.686 14.2043 114.283 13.9715 115.934 13.9927C118.219 14.035 120.155 14.5322 121.742 15.4844C123.329 16.4365 124.492 17.7484 125.233 19.4199C125.973 21.0915 126.227 23.0698 125.995 25.355L123.551 40.6846C123.36 41.9329 123.191 43.2342 123.043 44.5884C122.916 45.9214 123.064 47.2121 123.487 48.4604L123.456 49L114.981 49.0317C114.622 47.741 114.452 46.4292 114.474 45.0962C114.516 43.742 114.622 42.409 114.791 41.0972ZM118.124 28.021L117.235 33.353L114.41 33.3213C113.585 33.3424 112.823 33.5011 112.125 33.7974C111.448 34.0724 110.834 34.4744 110.284 35.0034C109.755 35.5112 109.321 36.1037 108.983 36.7808C108.666 37.4367 108.465 38.1772 108.38 39.0024C108.295 39.5526 108.285 40.1133 108.348 40.6846C108.433 41.2347 108.634 41.7002 108.951 42.0811C109.29 42.4619 109.798 42.6629 110.475 42.6841C111.215 42.6841 111.945 42.536 112.665 42.2397C113.384 41.9224 113.987 41.478 114.474 40.9067C114.96 40.3354 115.246 39.6689 115.331 38.9072L116.917 42.4619C116.558 43.4141 116.103 44.3345 115.553 45.2231C115.024 46.0907 114.389 46.8735 113.648 47.5718C112.929 48.2489 112.104 48.7778 111.173 49.1587C110.263 49.5396 109.226 49.7194 108.062 49.6982C106.222 49.6771 104.635 49.201 103.302 48.27C101.99 47.3179 101.006 46.0907 100.35 44.5884C99.6942 43.0861 99.4085 41.4357 99.4932 39.6372C99.5778 37.606 100.043 35.8604 100.89 34.4004C101.736 32.9193 102.826 31.7026 104.159 30.7505C105.513 29.7983 107.047 29.1001 108.761 28.6558C110.496 28.2114 112.305 27.9893 114.188 27.9893L118.124 28.021ZM148.548 14.6592H156.482L150.643 48.9683C150.262 51.8459 149.384 54.3109 148.008 56.3633C146.654 58.4368 144.877 60.0026 142.676 61.0605C140.497 62.1396 137.926 62.6475 134.964 62.584C133.715 62.5205 132.478 62.3301 131.25 62.0127C130.044 61.7165 128.881 61.2616 127.759 60.6479C126.659 60.0343 125.675 59.3044 124.808 58.458L128.426 52.3325C129.251 53.2847 130.245 54.0252 131.409 54.5542C132.573 55.1043 133.779 55.4006 135.027 55.4429C136.445 55.4852 137.619 55.2419 138.55 54.7129C139.502 54.1839 140.243 53.4328 140.772 52.4595C141.322 51.5073 141.703 50.3753 141.915 49.0635L146.453 22.1812L148.548 14.6592ZM126.902 33.2578L127.156 30.9727C127.368 29.0472 127.759 27.0794 128.331 25.0693C128.923 23.0592 129.738 21.1973 130.774 19.4834C131.811 17.7695 133.134 16.4154 134.742 15.4209C136.371 14.4053 138.349 13.9398 140.677 14.0244C142.729 14.0879 144.327 14.6698 145.469 15.77C146.633 16.8703 147.469 18.2668 147.977 19.9595C148.484 21.631 148.791 23.3978 148.897 25.2598C149.003 27.1006 148.992 28.8039 148.865 30.3696L148.453 33.6704C148.178 35.2573 147.733 36.9818 147.12 38.8438C146.527 40.7057 145.734 42.4725 144.739 44.144C143.745 45.8156 142.528 47.1698 141.089 48.2065C139.651 49.2433 137.926 49.7406 135.916 49.6982C133.758 49.6348 132.033 49.0741 130.743 48.0161C129.473 46.9582 128.532 45.604 127.918 43.9536C127.326 42.2821 126.966 40.5047 126.839 38.6216C126.712 36.7384 126.733 34.9505 126.902 33.2578ZM135.884 30.7505L135.63 33.0991C135.567 33.8608 135.503 34.7601 135.44 35.7969C135.398 36.8125 135.44 37.807 135.567 38.7803C135.715 39.7324 136.054 40.5365 136.583 41.1924C137.133 41.8271 137.968 42.1657 139.09 42.208C140.465 42.2715 141.597 41.9435 142.486 41.2241C143.396 40.5047 144.083 39.5949 144.549 38.4946C145.014 37.3732 145.353 36.2306 145.564 35.0669L146.421 29.0049C146.464 28.222 146.464 27.4074 146.421 26.561C146.379 25.7147 146.242 24.9106 146.009 24.1489C145.797 23.3872 145.406 22.763 144.834 22.2764C144.263 21.7686 143.491 21.4935 142.518 21.4512C141.269 21.3665 140.232 21.631 139.407 22.2446C138.603 22.8371 137.958 23.62 137.471 24.5933C137.006 25.5454 136.646 26.5822 136.392 27.7036C136.159 28.8039 135.99 29.8195 135.884 30.7505ZM167.546 49.6348C165.261 49.5924 163.304 49.1481 161.675 48.3018C160.046 47.4554 158.744 46.3022 157.771 44.8423C156.798 43.3612 156.131 41.6896 155.771 39.8276C155.412 37.9445 155.338 35.9344 155.549 33.7974L155.867 30.9727C156.163 28.7721 156.681 26.6457 157.422 24.5933C158.162 22.5409 159.157 20.7106 160.405 19.1025C161.675 17.4733 163.23 16.2038 165.071 15.2939C166.912 14.3841 169.07 13.9504 171.545 13.9927C173.915 14.0562 175.83 14.5851 177.29 15.5796C178.771 16.5529 179.882 17.8436 180.623 19.4517C181.384 21.0597 181.85 22.8477 182.019 24.8154C182.188 26.762 182.146 28.7298 181.892 30.7188L181.321 34.7812H158.945L160.056 28.5288L173.608 28.5605L173.767 27.6719C173.915 26.7832 173.968 25.8628 173.926 24.9106C173.883 23.9373 173.63 23.1227 173.164 22.4668C172.699 21.7897 171.895 21.4194 170.752 21.356C169.504 21.2925 168.488 21.5781 167.705 22.2129C166.943 22.8265 166.351 23.6411 165.928 24.6567C165.505 25.6724 165.198 26.7409 165.007 27.8623C164.838 28.9626 164.701 29.9993 164.595 30.9727L164.246 33.8291C164.14 34.7812 164.097 35.744 164.119 36.7173C164.14 37.6694 164.267 38.5581 164.5 39.3833C164.753 40.2085 165.198 40.8856 165.833 41.4146C166.488 41.9435 167.419 42.2186 168.625 42.2397C170.107 42.2821 171.471 42.007 172.72 41.4146C173.989 40.8221 175.174 40.0604 176.274 39.1294L179.226 44.5566C178.337 45.7415 177.258 46.7254 175.989 47.5083C174.719 48.27 173.344 48.8201 171.863 49.1587C170.403 49.4972 168.964 49.6559 167.546 49.6348Z" fill="black"/>
<path d="M211.51 27.3862H202.021L202.846 22.4668L211.002 22.5303C212.505 22.5091 213.827 22.16 214.97 21.4829C216.133 20.7847 217.064 19.8537 217.763 18.6899C218.482 17.5262 218.926 16.2144 219.096 14.7544C219.265 13.4425 219.223 12.2788 218.969 11.2632C218.715 10.2264 218.196 9.41178 217.414 8.81934C216.652 8.20573 215.562 7.87777 214.145 7.83545L206.686 7.80371L199.513 49H193.832L201.83 2.78906L214.271 2.8208C216.133 2.86312 217.752 3.16992 219.127 3.74121C220.524 4.3125 221.667 5.11654 222.555 6.15332C223.465 7.1901 224.11 8.43848 224.491 9.89844C224.893 11.3584 225.02 13.0088 224.872 14.8496C224.703 16.9443 224.089 18.764 223.031 20.3086C221.973 21.8532 220.609 23.1016 218.937 24.0537C217.265 25.0059 215.446 25.63 213.478 25.9263L211.51 27.3862ZM207.575 49H195.736L199.926 44.0171L207.765 44.0806C209.458 44.0594 210.907 43.668 212.113 42.9062C213.34 42.1234 214.314 41.0866 215.033 39.7959C215.774 38.5052 216.239 37.0558 216.43 35.4478C216.578 34.1359 216.557 32.8875 216.366 31.7026C216.176 30.4966 215.7 29.5021 214.938 28.7192C214.176 27.9364 213.034 27.5026 211.51 27.418L203.83 27.3862L204.782 22.4668L214.303 22.4985L215.287 24.2759C217.086 24.6144 218.503 25.355 219.54 26.4976C220.577 27.619 221.286 28.9731 221.667 30.5601C222.069 32.147 222.195 33.7656 222.047 35.416C221.836 38.1455 221.106 40.5365 219.857 42.5889C218.609 44.6413 216.938 46.2388 214.843 47.3813C212.748 48.5028 210.325 49.0423 207.575 49ZM236.095 14.6592L230.128 49H224.669L230.636 14.6592H236.095ZM231.905 5.61377C231.948 4.68278 232.244 3.87874 232.794 3.20166C233.344 2.50342 234.095 2.14372 235.047 2.12256C236.042 2.1014 236.814 2.42936 237.364 3.10645C237.914 3.78353 238.168 4.58757 238.126 5.51855C238.084 6.40723 237.777 7.1901 237.206 7.86719C236.634 8.52311 235.883 8.86165 234.952 8.88281C233.979 8.90397 233.217 8.59717 232.667 7.9624C232.138 7.30648 231.884 6.5236 231.905 5.61377ZM254.141 41.9858L261.377 0.25H266.836L258.362 49H253.411L254.141 41.9858ZM237.098 33.48L237.479 30.3062C237.732 28.4019 238.145 26.487 238.716 24.5615C239.309 22.6149 240.123 20.8376 241.16 19.2295C242.197 17.6003 243.519 16.3096 245.127 15.3574C246.736 14.3841 248.672 13.9398 250.936 14.0244C252.924 14.0879 254.501 14.6486 255.665 15.7065C256.849 16.7433 257.717 18.0658 258.267 19.6738C258.838 21.2607 259.177 22.9429 259.283 24.7202C259.41 26.4976 259.41 28.1691 259.283 29.7349L258.711 34.0195C258.436 35.7122 258.003 37.4896 257.41 39.3516C256.818 41.1924 256.014 42.9062 254.998 44.4932C254.004 46.0801 252.766 47.3602 251.285 48.3335C249.804 49.2856 248.026 49.73 245.953 49.6665C243.816 49.603 242.112 49.0529 240.843 48.0161C239.594 46.9582 238.663 45.6146 238.05 43.9854C237.457 42.3561 237.098 40.6211 236.971 38.7803C236.865 36.9183 236.907 35.1515 237.098 33.48ZM242.969 30.2744L242.588 33.5117C242.461 34.612 242.377 35.7969 242.334 37.0664C242.313 38.3359 242.44 39.5526 242.715 40.7163C242.99 41.8589 243.509 42.8005 244.271 43.541C245.053 44.2816 246.196 44.673 247.698 44.7153C249.201 44.7576 250.544 44.3662 251.729 43.541C252.935 42.7158 253.94 41.6579 254.744 40.3672C255.548 39.0765 256.141 37.7646 256.521 36.4316L257.981 27.3545C258.003 26.4235 257.907 25.4819 257.696 24.5298C257.484 23.5565 257.125 22.6572 256.617 21.832C256.13 21.0068 255.506 20.3403 254.744 19.8325C253.982 19.3035 253.083 19.0073 252.046 18.9438C250.438 18.8804 249.084 19.1766 247.984 19.8325C246.905 20.4884 246.016 21.3877 245.318 22.5303C244.641 23.6517 244.112 24.8895 243.731 26.2437C243.371 27.5978 243.117 28.9414 242.969 30.2744ZM281.265 39.9546C281.413 38.8966 281.222 38.008 280.693 37.2886C280.186 36.548 279.508 35.9238 278.662 35.416C277.837 34.9082 277.022 34.4533 276.218 34.0513C275.118 33.5011 274.049 32.9299 273.013 32.3374C271.997 31.745 271.087 31.0679 270.283 30.3062C269.479 29.5444 268.855 28.6558 268.411 27.6401C267.966 26.6245 267.786 25.4185 267.871 24.022C267.956 22.4985 268.326 21.1126 268.982 19.8643C269.638 18.6159 270.505 17.5579 271.584 16.6904C272.664 15.8018 273.88 15.1247 275.234 14.6592C276.589 14.1937 278.006 13.9821 279.487 14.0244C281.54 14.0667 283.296 14.5428 284.756 15.4526C286.237 16.3413 287.348 17.5685 288.088 19.1343C288.85 20.6789 289.189 22.4562 289.104 24.4663L283.677 24.4346C283.719 23.4613 283.582 22.562 283.264 21.7368C282.968 20.8905 282.481 20.2134 281.804 19.7056C281.127 19.1766 280.249 18.9015 279.17 18.8804C278.154 18.8804 277.223 19.0814 276.377 19.4834C275.531 19.8854 274.832 20.4567 274.282 21.1973C273.753 21.9378 273.415 22.8159 273.267 23.8315C273.161 24.5721 273.224 25.2174 273.457 25.7676C273.711 26.2965 274.071 26.762 274.536 27.1641C275.002 27.5661 275.52 27.9258 276.091 28.2432C276.684 28.5394 277.266 28.825 277.837 29.1001C279.36 29.8407 280.82 30.6447 282.217 31.5122C283.613 32.3797 284.735 33.4482 285.581 34.7178C286.449 35.9661 286.829 37.5636 286.724 39.5103C286.618 41.1395 286.226 42.5889 285.549 43.8584C284.872 45.1279 283.973 46.1965 282.852 47.064C281.751 47.9315 280.492 48.5874 279.075 49.0317C277.678 49.4761 276.197 49.6771 274.631 49.6348C272.515 49.5924 270.653 49.1058 269.045 48.1748C267.458 47.2438 266.231 45.9637 265.364 44.3345C264.517 42.7052 264.137 40.8221 264.221 38.6851L269.744 38.7168C269.701 39.8805 269.849 40.9173 270.188 41.8271C270.527 42.737 271.077 43.4564 271.838 43.9854C272.621 44.4932 273.637 44.7576 274.885 44.7788C275.922 44.7788 276.895 44.6095 277.805 44.271C278.715 43.9113 279.477 43.3823 280.09 42.6841C280.725 41.9647 281.117 41.0549 281.265 39.9546Z" fill="#9A0000"/>
</svg>
