<svg width="293" height="50" viewBox="0 0 293 50" fill="none" xmlns="http://www.w3.org/2000/svg">
<path d="M12.5366 2.78906H19.9316L22.7246 36.146L36.9751 2.78906H44.8779L23.8037 49H17.6147L12.5366 2.78906ZM8.28369 2.78906H15.9009L11.521 36.8125L9.36279 49H0.317383L8.28369 2.78906ZM41.228 2.78906H48.877L40.8789 49H31.8018L34.0869 35.9873L41.228 2.78906ZM60.5439 41.0972L63.083 25.1646C63.1465 24.5509 63.1571 23.9268 63.1147 23.292C63.0724 22.6572 62.8926 22.1177 62.5752 21.6733C62.279 21.2078 61.7394 20.9645 60.9565 20.9434C60.1102 20.9222 59.4331 21.1021 58.9253 21.4829C58.4175 21.8638 58.026 22.361 57.751 22.9746C57.4759 23.5882 57.2749 24.2336 57.1479 24.9106L48.4517 24.9741C48.5575 23.2391 48.9912 21.6945 49.7529 20.3403C50.5358 18.965 51.5409 17.8013 52.7681 16.8491C53.9953 15.897 55.3706 15.1776 56.894 14.6909C58.4386 14.2043 60.0361 13.9715 61.6865 13.9927C63.9717 14.035 65.9077 14.5322 67.4946 15.4844C69.0815 16.4365 70.2453 17.7484 70.9858 19.4199C71.7264 21.0915 71.9803 23.0698 71.7476 25.355L69.3037 40.6846C69.1133 41.9329 68.944 43.2342 68.7959 44.5884C68.6689 45.9214 68.8171 47.2121 69.2402 48.4604L69.2085 49L60.7344 49.0317C60.3747 47.741 60.2054 46.4292 60.2266 45.0962C60.2689 43.742 60.3747 42.409 60.5439 41.0972ZM63.8765 28.021L62.9878 33.353L60.1631 33.3213C59.3379 33.3424 58.5762 33.5011 57.8779 33.7974C57.2008 34.0724 56.5872 34.4744 56.0371 35.0034C55.5081 35.5112 55.0744 36.1037 54.7358 36.7808C54.4185 37.4367 54.2174 38.1772 54.1328 39.0024C54.0482 39.5526 54.0376 40.1133 54.1011 40.6846C54.1857 41.2347 54.3867 41.7002 54.7041 42.0811C55.0426 42.4619 55.5505 42.6629 56.2275 42.6841C56.9681 42.6841 57.6981 42.536 58.4175 42.2397C59.1369 41.9224 59.7399 41.478 60.2266 40.9067C60.7132 40.3354 60.9989 39.6689 61.0835 38.9072L62.6704 42.4619C62.3107 43.4141 61.8558 44.3345 61.3057 45.2231C60.7767 46.0907 60.1419 46.8735 59.4014 47.5718C58.682 48.2489 57.8568 48.7778 56.9258 49.1587C56.016 49.5396 54.9792 49.7194 53.8154 49.6982C51.9746 49.6771 50.3877 49.201 49.0547 48.27C47.7428 47.3179 46.759 46.0907 46.103 44.5884C45.4471 43.0861 45.1615 41.4357 45.2461 39.6372C45.3307 37.606 45.7962 35.8604 46.6426 34.4004C47.4889 32.9193 48.5786 31.7026 49.9116 30.7505C51.2658 29.7983 52.7998 29.1001 54.5137 28.6558C56.2487 28.2114 58.0578 27.9893 59.9409 27.9893L63.8765 28.021ZM84.0811 22.7842L79.5425 49H70.8779L76.8447 14.6592H85.0332L84.0811 22.7842ZM93.1899 14.3735L92.0156 23.2285C91.5501 23.1227 91.0741 23.0487 90.5874 23.0063C90.1219 22.9429 89.667 22.9111 89.2227 22.9111C88.1012 22.89 87.1385 23.0698 86.3345 23.4507C85.5516 23.8315 84.8957 24.3711 84.3667 25.0693C83.8377 25.7464 83.3934 26.5187 83.0337 27.3862C82.6951 28.2537 82.4307 29.153 82.2402 30.084L80.7168 29.4492C80.8861 28.1162 81.1506 26.561 81.5103 24.7837C81.8911 23.0063 82.4307 21.2925 83.1289 19.6421C83.8483 17.9917 84.8005 16.627 85.9854 15.5479C87.1702 14.4688 88.6619 13.9292 90.4604 13.9292C90.9471 13.9504 91.402 14.0033 91.8252 14.0879C92.2695 14.1725 92.7244 14.2677 93.1899 14.3735ZM105.65 0.218262L97.1763 49H88.5117L96.9858 0.218262H105.65ZM120.948 14.6592L106.031 31.9248L97.6841 39.9863L95.6846 32.7183L102.477 24.5933L110.094 14.6592H120.948ZM105.873 49L101.207 32.8452L107.84 27.4814L115.394 49H105.873ZM128.711 49.6348C126.426 49.5924 124.469 49.1481 122.84 48.3018C121.211 47.4554 119.909 46.3022 118.936 44.8423C117.963 43.3612 117.296 41.6896 116.937 39.8276C116.577 37.9445 116.503 35.9344 116.714 33.7974L117.032 30.9727C117.328 28.7721 117.846 26.6457 118.587 24.5933C119.327 22.5409 120.322 20.7106 121.57 19.1025C122.84 17.4733 124.395 16.2038 126.236 15.2939C128.077 14.3841 130.235 13.9504 132.71 13.9927C135.08 14.0562 136.995 14.5851 138.455 15.5796C139.936 16.5529 141.047 17.8436 141.788 19.4517C142.549 21.0597 143.015 22.8477 143.184 24.8154C143.353 26.762 143.311 28.7298 143.057 30.7188L142.486 34.7812H120.11L121.221 28.5288L134.773 28.5605L134.932 27.6719C135.08 26.7832 135.133 25.8628 135.091 24.9106C135.049 23.9373 134.795 23.1227 134.329 22.4668C133.864 21.7897 133.06 21.4194 131.917 21.356C130.669 21.2925 129.653 21.5781 128.87 22.2129C128.108 22.8265 127.516 23.6411 127.093 24.6567C126.67 25.6724 126.363 26.7409 126.172 27.8623C126.003 28.9626 125.866 29.9993 125.76 30.9727L125.411 33.8291C125.305 34.7812 125.263 35.744 125.284 36.7173C125.305 37.6694 125.432 38.5581 125.665 39.3833C125.918 40.2085 126.363 40.8856 126.998 41.4146C127.653 41.9435 128.584 42.2186 129.791 42.2397C131.272 42.2821 132.636 42.007 133.885 41.4146C135.154 40.8221 136.339 40.0604 137.439 39.1294L140.391 44.5566C139.502 45.7415 138.423 46.7254 137.154 47.5083C135.884 48.27 134.509 48.8201 133.028 49.1587C131.568 49.4972 130.129 49.6559 128.711 49.6348ZM162.31 14.6592L161.104 21.356H144.06L145.266 14.6592H162.31ZM150.662 6.18506H159.294L153.772 38.6216C153.708 39.1717 153.677 39.7007 153.677 40.2085C153.677 40.7163 153.793 41.1395 154.026 41.478C154.28 41.8166 154.745 41.9964 155.422 42.0176C155.782 42.0176 156.131 41.9964 156.47 41.9541C156.829 41.9118 157.189 41.8589 157.549 41.7954L156.851 48.8096C156.11 49.0846 155.359 49.2856 154.597 49.4126C153.835 49.5396 153.053 49.5924 152.249 49.5713C150.281 49.5501 148.747 49.0635 147.646 48.1113C146.546 47.1592 145.795 45.9214 145.393 44.3979C144.991 42.8745 144.875 41.2347 145.044 39.4785L150.662 6.18506Z" fill="black"/>
<path d="M188.913 30.9092L178.725 30.8774L179.613 25.8945L189.103 25.958C190.986 25.9368 192.594 25.5348 193.927 24.752C195.281 23.9479 196.361 22.8582 197.165 21.4829C197.969 20.0864 198.476 18.4889 198.688 16.6904C198.857 15.2516 198.794 13.8763 198.498 12.5645C198.201 11.2314 197.598 10.1312 196.688 9.26367C195.8 8.39616 194.541 7.92008 192.912 7.83545L183.961 7.80371L176.789 49H171.107L179.105 2.78906L193.039 2.8208C195.683 2.90544 197.884 3.57194 199.64 4.82031C201.417 6.04753 202.708 7.68734 203.512 9.73975C204.316 11.7922 204.602 14.0879 204.369 16.627C204.115 19.568 203.322 22.1071 201.989 24.2441C200.677 26.3812 198.91 28.0316 196.688 29.1953C194.467 30.359 191.875 30.9303 188.913 30.9092ZM216.449 0.25L207.975 49H202.516L210.99 0.25H216.449ZM230.718 43.1284L233.733 24.4346C233.839 23.3343 233.776 22.3716 233.543 21.5464C233.331 20.7 232.887 20.0335 232.21 19.5469C231.554 19.0602 230.623 18.8169 229.417 18.8169C228.317 18.7957 227.333 19.0179 226.465 19.4834C225.598 19.9277 224.878 20.5519 224.307 21.356C223.757 22.16 223.376 23.091 223.165 24.1489L217.737 24.1807C217.885 22.6361 218.319 21.2396 219.039 19.9912C219.779 18.7217 220.721 17.6426 221.863 16.7539C223.006 15.8441 224.275 15.1564 225.672 14.6909C227.068 14.2043 228.518 13.9715 230.02 13.9927C232.178 14.0138 233.977 14.4688 235.416 15.3574C236.854 16.2249 237.891 17.4521 238.526 19.0391C239.182 20.6048 239.404 22.4456 239.192 24.5615L236.399 41.5098C236.209 42.7158 236.135 43.8796 236.177 45.001C236.22 46.1224 236.272 47.2756 236.336 48.4604L236.272 49L230.782 49.0317C230.57 48.0584 230.475 47.0745 230.496 46.0801C230.517 45.0856 230.591 44.1017 230.718 43.1284ZM234.146 28.1797L233.479 32.3057L229.988 32.2739C228.867 32.2739 227.745 32.4009 226.624 32.6548C225.524 32.9087 224.498 33.3107 223.545 33.8608C222.614 34.3898 221.832 35.0986 221.197 35.9873C220.583 36.8548 220.202 37.9233 220.054 39.1929C219.927 40.2297 219.959 41.1606 220.149 41.9858C220.361 42.7899 220.774 43.4352 221.387 43.9219C222.022 44.3874 222.911 44.6201 224.053 44.6201C225.238 44.6201 226.381 44.3556 227.481 43.8267C228.581 43.2977 229.523 42.5783 230.306 41.6685C231.11 40.7586 231.639 39.7218 231.893 38.5581L232.75 41.2241C232.496 42.3244 232.062 43.3929 231.448 44.4297C230.856 45.4453 230.126 46.3551 229.258 47.1592C228.391 47.9421 227.417 48.5557 226.338 49C225.28 49.4655 224.148 49.6982 222.942 49.6982C221.017 49.6982 219.398 49.2645 218.086 48.397C216.775 47.5295 215.801 46.3657 215.167 44.9058C214.532 43.4246 214.278 41.7531 214.405 39.8911C214.511 37.9022 214.987 36.1672 215.833 34.686C216.701 33.2049 217.822 31.9883 219.197 31.0361C220.573 30.0628 222.107 29.3434 223.799 28.8779C225.513 28.3913 227.291 28.1479 229.131 28.1479L234.146 28.1797ZM252.637 44.9058C254.012 44.9481 255.176 44.6624 256.128 44.0488C257.101 43.4352 257.884 42.61 258.477 41.5732C259.069 40.5365 259.503 39.4045 259.778 38.1772L264.919 38.1455C264.602 40.3037 263.872 42.2609 262.729 44.0171C261.608 45.7733 260.159 47.1698 258.381 48.2065C256.604 49.2222 254.583 49.7088 252.319 49.6665C250.034 49.6242 248.162 49.1481 246.702 48.2383C245.242 47.3073 244.12 46.0907 243.337 44.5884C242.576 43.0649 242.089 41.3722 241.877 39.5103C241.666 37.6483 241.676 35.7334 241.909 33.7656L242.417 29.8936C242.692 27.7988 243.179 25.7887 243.877 23.8633C244.575 21.9167 245.517 20.1922 246.702 18.6899C247.908 17.1877 249.378 16.0133 251.113 15.167C252.869 14.3206 254.932 13.9398 257.302 14.0244C259.693 14.0879 261.619 14.7015 263.079 15.8652C264.539 17.029 265.586 18.5524 266.221 20.4355C266.855 22.2975 267.131 24.3182 267.046 26.4976L261.904 26.4658C261.947 25.2809 261.851 24.1172 261.619 22.9746C261.386 21.8109 260.91 20.8481 260.19 20.0864C259.471 19.3035 258.403 18.8804 256.985 18.8169C255.377 18.7534 254.023 19.0391 252.922 19.6738C251.843 20.3086 250.965 21.1761 250.288 22.2764C249.611 23.3555 249.082 24.5615 248.701 25.8945C248.341 27.2275 248.077 28.5605 247.908 29.8936L247.4 33.7974C247.273 34.9399 247.188 36.146 247.146 37.4155C247.125 38.6851 247.252 39.8805 247.527 41.002C247.802 42.1234 248.341 43.0438 249.146 43.7632C249.95 44.4826 251.113 44.8634 252.637 44.9058ZM278.491 49.6348C276.269 49.5924 274.418 49.1481 272.937 48.3018C271.455 47.4554 270.302 46.3128 269.477 44.874C268.652 43.4352 268.102 41.806 267.827 39.9863C267.573 38.1667 267.552 36.2729 267.763 34.3052L268.239 30.4331C268.493 28.4019 268.969 26.4023 269.667 24.4346C270.366 22.4668 271.307 20.6895 272.492 19.1025C273.677 17.4945 275.137 16.2249 276.872 15.2939C278.607 14.363 280.638 13.9398 282.966 14.0244C285.272 14.0879 287.102 14.6063 288.457 15.5796C289.811 16.5529 290.805 17.8224 291.44 19.3882C292.075 20.9539 292.434 22.6784 292.519 24.5615C292.625 26.4447 292.561 28.3278 292.329 30.2109L291.853 33.48H271L271.857 28.6875L287.028 28.7192L287.155 27.8623C287.325 26.5716 287.356 25.2492 287.25 23.895C287.145 22.5197 286.743 21.356 286.044 20.4038C285.346 19.4305 284.204 18.9015 282.617 18.8169C280.987 18.7323 279.633 19.0391 278.554 19.7373C277.496 20.4355 276.639 21.3771 275.983 22.562C275.327 23.7469 274.82 25.0376 274.46 26.4341C274.121 27.8094 273.878 29.1424 273.73 30.4331L273.254 34.3369C273.127 35.5007 273.085 36.6961 273.127 37.9233C273.169 39.1294 273.37 40.2508 273.73 41.2876C274.111 42.3244 274.714 43.1707 275.539 43.8267C276.385 44.4614 277.549 44.8 279.03 44.8423C280.681 44.8846 282.162 44.5461 283.474 43.8267C284.807 43.1073 286.023 42.1551 287.124 40.9702L289.79 44.5566C288.88 45.7204 287.822 46.6831 286.616 47.4448C285.431 48.2065 284.151 48.7673 282.775 49.127C281.4 49.4867 279.972 49.6559 278.491 49.6348Z" fill="#9A0000"/>
</svg>
