<svg width="1086" height="623" viewBox="0 0 1086 623" fill="none" xmlns="http://www.w3.org/2000/svg">
<rect x="62.5" y="102.5" width="969" height="498" fill="#E4DBDB" fill-opacity="0.5" stroke="black" stroke-width="5"/>
<rect x="166.5" y="143.5" width="793" height="373" fill="#D9D9D9" stroke="black" stroke-width="5"/>
<path d="M216.684 537.732L218.373 527.781H220.688L218.988 537.723C218.878 538.523 218.637 539.269 218.266 539.959C217.895 540.649 217.393 541.202 216.762 541.619C216.13 542.029 215.378 542.225 214.506 542.205C213.673 542.186 212.999 541.98 212.484 541.59C211.977 541.193 211.615 540.675 211.4 540.037C211.192 539.393 211.114 538.686 211.166 537.918H213.49C213.464 538.237 213.467 538.572 213.5 538.924C213.539 539.269 213.646 539.568 213.822 539.822C214.005 540.07 214.298 540.203 214.701 540.223C215.144 540.236 215.499 540.109 215.766 539.842C216.039 539.568 216.247 539.236 216.391 538.846C216.534 538.455 216.632 538.084 216.684 537.732ZM224.688 539.852L225.527 534.559C225.553 534.305 225.547 534.067 225.508 533.846C225.475 533.618 225.384 533.432 225.234 533.289C225.091 533.146 224.87 533.071 224.57 533.064C224.277 533.058 224.027 533.12 223.818 533.25C223.61 533.374 223.441 533.546 223.311 533.768C223.187 533.982 223.102 534.22 223.057 534.48L220.84 534.5C220.879 533.992 221.012 533.536 221.24 533.133C221.475 532.723 221.774 532.374 222.139 532.088C222.503 531.801 222.91 531.587 223.359 531.443C223.815 531.294 224.287 531.222 224.775 531.229C225.459 531.235 226.035 531.382 226.504 531.668C226.973 531.948 227.314 532.339 227.529 532.84C227.744 533.341 227.816 533.934 227.744 534.617L226.943 539.559C226.885 539.936 226.846 540.317 226.826 540.701C226.813 541.079 226.846 541.456 226.924 541.834L226.914 542L224.727 542.01C224.635 541.658 224.593 541.3 224.6 540.936C224.606 540.571 224.635 540.21 224.688 539.852ZM225.723 535.564L225.479 537.039L224.521 537.029C224.222 537.029 223.936 537.072 223.662 537.156C223.395 537.241 223.148 537.365 222.92 537.527C222.699 537.69 222.516 537.889 222.373 538.123C222.236 538.357 222.148 538.634 222.109 538.953C222.077 539.188 222.08 539.409 222.119 539.617C222.165 539.826 222.256 539.995 222.393 540.125C222.536 540.255 222.747 540.324 223.027 540.33C223.32 540.33 223.604 540.268 223.877 540.145C224.15 540.014 224.382 539.839 224.57 539.617C224.766 539.396 224.889 539.139 224.941 538.846L225.322 539.812C225.225 540.132 225.088 540.438 224.912 540.73C224.743 541.017 224.535 541.274 224.287 541.502C224.046 541.723 223.773 541.899 223.467 542.029C223.161 542.16 222.829 542.221 222.471 542.215C221.885 542.208 221.39 542.068 220.986 541.795C220.583 541.515 220.28 541.147 220.078 540.691C219.883 540.229 219.801 539.718 219.834 539.158C219.867 538.54 220.013 538.003 220.273 537.547C220.534 537.091 220.872 536.717 221.289 536.424C221.706 536.124 222.178 535.906 222.705 535.77C223.232 535.626 223.786 535.555 224.365 535.555L225.723 535.564ZM231.373 533.816L229.957 542H227.721L229.557 531.434H231.646L231.373 533.816ZM230.562 536.355L229.947 536.365C230.012 535.805 230.13 535.223 230.299 534.617C230.468 534.012 230.709 533.449 231.021 532.928C231.334 532.407 231.731 531.99 232.213 531.678C232.695 531.359 233.277 531.209 233.961 531.229C234.501 531.248 234.931 531.382 235.25 531.629C235.569 531.87 235.803 532.189 235.953 532.586C236.103 532.977 236.188 533.4 236.207 533.855C236.233 534.305 236.223 534.747 236.178 535.184L235.045 542H232.828L233.961 535.154C233.987 534.861 233.993 534.565 233.98 534.266C233.967 533.96 233.883 533.702 233.727 533.494C233.577 533.279 233.316 533.169 232.945 533.162C232.548 533.143 232.206 533.24 231.92 533.455C231.64 533.67 231.409 533.947 231.227 534.285C231.044 534.617 230.901 534.969 230.797 535.34C230.693 535.704 230.615 536.043 230.562 536.355ZM323.33 527.781L320.859 542H318.545L321.006 527.781H323.33ZM326.729 533.982L326.377 535.975H321.367L321.719 533.982H326.729ZM328.447 527.781L328.096 529.773H322.432L322.783 527.781H328.447ZM330.494 542.195C329.798 542.182 329.208 542.046 328.727 541.785C328.245 541.525 327.864 541.17 327.584 540.721C327.311 540.271 327.125 539.764 327.027 539.197C326.93 538.631 326.913 538.029 326.979 537.391L327.105 536.375C327.184 535.724 327.333 535.089 327.555 534.471C327.783 533.846 328.085 533.286 328.463 532.791C328.84 532.296 329.303 531.909 329.85 531.629C330.403 531.349 331.051 531.215 331.793 531.229C332.509 531.248 333.085 531.411 333.521 531.717C333.964 532.016 334.29 532.41 334.498 532.898C334.713 533.387 334.84 533.927 334.879 534.52C334.924 535.112 334.911 535.704 334.84 536.297L334.674 537.439H328.004L328.307 535.721L332.711 535.73L332.75 535.467C332.802 535.135 332.815 534.793 332.789 534.441C332.77 534.09 332.672 533.79 332.496 533.543C332.32 533.296 332.024 533.159 331.607 533.133C331.171 533.113 330.813 533.204 330.533 533.406C330.253 533.608 330.032 533.878 329.869 534.217C329.706 534.555 329.586 534.917 329.508 535.301C329.43 535.678 329.371 536.036 329.332 536.375L329.205 537.4C329.166 537.726 329.15 538.055 329.156 538.387C329.169 538.719 329.221 539.028 329.312 539.314C329.41 539.594 329.57 539.826 329.791 540.008C330.019 540.184 330.338 540.275 330.748 540.281C331.23 540.294 331.669 540.203 332.066 540.008C332.464 539.806 332.828 539.546 333.16 539.227L334.029 540.633C333.756 540.997 333.427 541.297 333.043 541.531C332.665 541.766 332.255 541.935 331.812 542.039C331.376 542.15 330.937 542.202 330.494 542.195ZM337.238 527H339.455L337.229 539.852L336.691 542H334.631L337.238 527ZM343.332 536.277L343.234 537.107C343.163 537.687 343.042 538.283 342.873 538.895C342.71 539.5 342.479 540.06 342.18 540.574C341.88 541.082 341.486 541.489 340.998 541.795C340.516 542.094 339.921 542.231 339.211 542.205C338.612 542.186 338.133 542.01 337.775 541.678C337.417 541.346 337.15 540.929 336.975 540.428C336.805 539.92 336.701 539.389 336.662 538.836C336.623 538.283 336.62 537.771 336.652 537.303L336.799 536.15C336.883 535.636 337.017 535.092 337.199 534.52C337.382 533.94 337.622 533.4 337.922 532.898C338.228 532.391 338.605 531.98 339.055 531.668C339.51 531.355 340.051 531.206 340.676 531.219C341.366 531.238 341.903 531.411 342.287 531.736C342.678 532.055 342.958 532.469 343.127 532.977C343.296 533.484 343.387 534.031 343.4 534.617C343.413 535.197 343.391 535.75 343.332 536.277ZM341.018 537.137L341.115 536.297C341.141 536.017 341.167 535.701 341.193 535.35C341.219 534.992 341.206 534.65 341.154 534.324C341.109 533.992 340.988 533.719 340.793 533.504C340.604 533.283 340.311 533.169 339.914 533.162C339.576 533.149 339.276 533.214 339.016 533.357C338.762 533.501 338.54 533.693 338.352 533.934C338.163 534.174 338.01 534.438 337.893 534.725C337.775 535.011 337.688 535.294 337.629 535.574L337.287 537.869C337.261 538.221 337.284 538.579 337.355 538.943C337.434 539.301 337.583 539.607 337.805 539.861C338.026 540.109 338.345 540.245 338.762 540.271C339.198 540.291 339.553 540.206 339.826 540.018C340.106 539.829 340.324 539.575 340.48 539.256C340.643 538.937 340.764 538.592 340.842 538.221C340.92 537.843 340.979 537.482 341.018 537.137ZM428.951 527.781H430.934L432.125 538.641L437.066 527.781H439.195L432.428 542H430.787L428.951 527.781ZM427.984 527.781H429.928L428.619 537.459L427.828 542H425.514L427.984 527.781ZM438.131 527.781H440.094L437.633 542H435.318L436.148 537.244L438.131 527.781ZM444.172 539.852L445.012 534.559C445.038 534.305 445.031 534.067 444.992 533.846C444.96 533.618 444.868 533.432 444.719 533.289C444.576 533.146 444.354 533.071 444.055 533.064C443.762 533.058 443.511 533.12 443.303 533.25C443.094 533.374 442.925 533.546 442.795 533.768C442.671 533.982 442.587 534.22 442.541 534.48L440.324 534.5C440.363 533.992 440.497 533.536 440.725 533.133C440.959 532.723 441.258 532.374 441.623 532.088C441.988 531.801 442.395 531.587 442.844 531.443C443.299 531.294 443.771 531.222 444.26 531.229C444.943 531.235 445.52 531.382 445.988 531.668C446.457 531.948 446.799 532.339 447.014 532.84C447.229 533.341 447.3 533.934 447.229 534.617L446.428 539.559C446.369 539.936 446.33 540.317 446.311 540.701C446.298 541.079 446.33 541.456 446.408 541.834L446.398 542L444.211 542.01C444.12 541.658 444.077 541.3 444.084 540.936C444.09 540.571 444.12 540.21 444.172 539.852ZM445.207 535.564L444.963 537.039L444.006 537.029C443.706 537.029 443.42 537.072 443.146 537.156C442.88 537.241 442.632 537.365 442.404 537.527C442.183 537.69 442.001 537.889 441.857 538.123C441.721 538.357 441.633 538.634 441.594 538.953C441.561 539.188 441.564 539.409 441.604 539.617C441.649 539.826 441.74 539.995 441.877 540.125C442.02 540.255 442.232 540.324 442.512 540.33C442.805 540.33 443.088 540.268 443.361 540.145C443.635 540.014 443.866 539.839 444.055 539.617C444.25 539.396 444.374 539.139 444.426 538.846L444.807 539.812C444.709 540.132 444.572 540.438 444.396 540.73C444.227 541.017 444.019 541.274 443.771 541.502C443.531 541.723 443.257 541.899 442.951 542.029C442.645 542.16 442.313 542.221 441.955 542.215C441.369 542.208 440.874 542.068 440.471 541.795C440.067 541.515 439.764 541.147 439.562 540.691C439.367 540.229 439.286 539.718 439.318 539.158C439.351 538.54 439.497 538.003 439.758 537.547C440.018 537.091 440.357 536.717 440.773 536.424C441.19 536.124 441.662 535.906 442.189 535.77C442.717 535.626 443.27 535.555 443.85 535.555L445.207 535.564ZM450.916 533.582L449.461 542H447.244L449.08 531.434H451.189L450.916 533.582ZM453.729 531.355L453.445 533.602C453.315 533.569 453.182 533.546 453.045 533.533C452.908 533.514 452.775 533.504 452.645 533.504C452.28 533.497 451.967 533.562 451.707 533.699C451.447 533.836 451.225 534.021 451.043 534.256C450.867 534.484 450.717 534.741 450.594 535.027C450.477 535.314 450.382 535.61 450.311 535.916L449.822 535.945C449.881 535.522 449.969 535.037 450.086 534.49C450.21 533.943 450.385 533.419 450.613 532.918C450.841 532.41 451.144 531.997 451.521 531.678C451.899 531.352 452.371 531.196 452.938 531.209C453.074 531.215 453.208 531.232 453.338 531.258C453.468 531.284 453.598 531.316 453.729 531.355ZM456.205 540.311C456.57 540.317 456.869 540.236 457.104 540.066C457.344 539.897 457.533 539.673 457.67 539.393C457.807 539.113 457.904 538.816 457.963 538.504L460.043 538.494C459.965 539.191 459.75 539.822 459.398 540.389C459.053 540.955 458.594 541.404 458.021 541.736C457.455 542.062 456.807 542.218 456.078 542.205C455.355 542.186 454.763 542.036 454.301 541.756C453.839 541.469 453.484 541.089 453.236 540.613C452.989 540.132 452.833 539.598 452.768 539.012C452.702 538.426 452.706 537.82 452.777 537.195L452.895 536.238C452.986 535.581 453.139 534.946 453.354 534.334C453.575 533.722 453.871 533.182 454.242 532.713C454.613 532.238 455.076 531.87 455.629 531.609C456.182 531.342 456.83 531.219 457.572 531.238C458.347 531.258 458.965 531.456 459.428 531.834C459.89 532.205 460.219 532.69 460.414 533.289C460.616 533.888 460.701 534.539 460.668 535.242L458.588 535.232C458.594 534.926 458.575 534.617 458.529 534.305C458.49 533.986 458.38 533.715 458.197 533.494C458.021 533.273 457.748 533.152 457.377 533.133C456.941 533.12 456.583 533.208 456.303 533.396C456.029 533.585 455.811 533.839 455.648 534.158C455.492 534.471 455.375 534.812 455.297 535.184C455.219 535.548 455.157 535.9 455.111 536.238L455.004 537.205C454.978 537.485 454.952 537.801 454.926 538.152C454.9 538.504 454.91 538.842 454.955 539.168C455.007 539.493 455.128 539.764 455.316 539.979C455.505 540.187 455.801 540.298 456.205 540.311ZM464.971 527L462.373 542H460.146L462.754 527H464.971ZM462.998 536.355H462.354C462.412 535.815 462.526 535.245 462.695 534.646C462.871 534.041 463.112 533.478 463.418 532.957C463.724 532.43 464.115 532.007 464.59 531.688C465.065 531.362 465.638 531.212 466.309 531.238C466.849 531.251 467.282 531.382 467.607 531.629C467.939 531.87 468.184 532.186 468.34 532.576C468.503 532.967 468.6 533.393 468.633 533.855C468.665 534.311 468.656 534.764 468.604 535.213L467.471 542H465.254L466.387 535.184C466.413 534.891 466.419 534.591 466.406 534.285C466.393 533.973 466.312 533.709 466.162 533.494C466.012 533.279 465.749 533.169 465.371 533.162C464.967 533.143 464.622 533.24 464.336 533.455C464.049 533.663 463.815 533.934 463.633 534.266C463.457 534.598 463.317 534.949 463.213 535.32C463.109 535.691 463.037 536.036 462.998 536.355ZM554.256 529.852L548.846 542H546.365L553.201 527.781H554.764L554.256 529.852ZM554.832 542L553.602 529.627L553.777 527.781H555.262L557.186 542H554.832ZM555.799 536.717L555.438 538.709H549.002L549.354 536.717H555.799ZM561.039 533.592L558.871 546.062H556.654L559.193 531.434H561.225L561.039 533.592ZM566.049 536.297L565.951 537.127C565.88 537.693 565.759 538.279 565.59 538.885C565.421 539.484 565.183 540.04 564.877 540.555C564.577 541.062 564.187 541.469 563.705 541.775C563.223 542.081 562.631 542.221 561.928 542.195C561.342 542.176 560.867 542.01 560.502 541.697C560.144 541.378 559.87 540.978 559.682 540.496C559.499 540.008 559.382 539.493 559.33 538.953C559.278 538.406 559.265 537.902 559.291 537.439L559.467 536.16C559.558 535.639 559.695 535.092 559.877 534.52C560.059 533.947 560.303 533.41 560.609 532.908C560.922 532.4 561.306 531.99 561.762 531.678C562.217 531.359 562.761 531.209 563.393 531.229C564.076 531.248 564.613 531.421 565.004 531.746C565.395 532.065 565.674 532.479 565.844 532.986C566.013 533.494 566.104 534.041 566.117 534.627C566.13 535.213 566.107 535.77 566.049 536.297ZM563.734 537.137L563.822 536.287C563.855 536.007 563.881 535.695 563.9 535.35C563.92 534.998 563.9 534.656 563.842 534.324C563.783 533.992 563.656 533.719 563.461 533.504C563.266 533.283 562.969 533.165 562.572 533.152C562.24 533.146 561.944 533.214 561.684 533.357C561.423 533.501 561.199 533.693 561.01 533.934C560.827 534.174 560.674 534.441 560.551 534.734C560.434 535.021 560.349 535.307 560.297 535.594L559.936 538.006C559.916 538.351 559.949 538.696 560.033 539.041C560.118 539.386 560.268 539.679 560.482 539.92C560.704 540.154 561.016 540.281 561.42 540.301C561.85 540.32 562.204 540.232 562.484 540.037C562.764 539.835 562.989 539.575 563.158 539.256C563.327 538.93 563.454 538.579 563.539 538.201C563.624 537.824 563.689 537.469 563.734 537.137ZM569.619 533.582L568.164 542H565.947L567.783 531.434H569.893L569.619 533.582ZM572.432 531.355L572.148 533.602C572.018 533.569 571.885 533.546 571.748 533.533C571.611 533.514 571.478 533.504 571.348 533.504C570.983 533.497 570.671 533.562 570.41 533.699C570.15 533.836 569.928 534.021 569.746 534.256C569.57 534.484 569.421 534.741 569.297 535.027C569.18 535.314 569.085 535.61 569.014 535.916L568.525 535.945C568.584 535.522 568.672 535.037 568.789 534.49C568.913 533.943 569.089 533.419 569.316 532.918C569.544 532.41 569.847 531.997 570.225 531.678C570.602 531.352 571.074 531.196 571.641 531.209C571.777 531.215 571.911 531.232 572.041 531.258C572.171 531.284 572.301 531.316 572.432 531.355ZM575.318 531.434L573.482 542H571.266L573.102 531.434H575.318ZM573.473 528.699C573.479 528.341 573.593 528.035 573.814 527.781C574.042 527.521 574.339 527.387 574.703 527.381C575.068 527.374 575.364 527.492 575.592 527.732C575.82 527.973 575.93 528.273 575.924 528.631C575.917 528.989 575.8 529.295 575.572 529.549C575.351 529.796 575.055 529.923 574.684 529.93C574.326 529.943 574.033 529.832 573.805 529.598C573.583 529.357 573.473 529.057 573.473 528.699ZM579.777 527L577.17 542H574.953L577.561 527H579.777ZM674.955 527.781H676.938L678.129 538.641L683.07 527.781H685.199L678.432 542H676.791L674.955 527.781ZM673.988 527.781H675.932L674.623 537.459L673.832 542H671.518L673.988 527.781ZM684.135 527.781H686.098L683.637 542H681.322L682.152 537.244L684.135 527.781ZM690.176 539.852L691.016 534.559C691.042 534.305 691.035 534.067 690.996 533.846C690.964 533.618 690.872 533.432 690.723 533.289C690.579 533.146 690.358 533.071 690.059 533.064C689.766 533.058 689.515 533.12 689.307 533.25C689.098 533.374 688.929 533.546 688.799 533.768C688.675 533.982 688.59 534.22 688.545 534.48L686.328 534.5C686.367 533.992 686.501 533.536 686.729 533.133C686.963 532.723 687.262 532.374 687.627 532.088C687.992 531.801 688.398 531.587 688.848 531.443C689.303 531.294 689.775 531.222 690.264 531.229C690.947 531.235 691.523 531.382 691.992 531.668C692.461 531.948 692.803 532.339 693.018 532.84C693.232 533.341 693.304 533.934 693.232 534.617L692.432 539.559C692.373 539.936 692.334 540.317 692.314 540.701C692.301 541.079 692.334 541.456 692.412 541.834L692.402 542L690.215 542.01C690.124 541.658 690.081 541.3 690.088 540.936C690.094 540.571 690.124 540.21 690.176 539.852ZM691.211 535.564L690.967 537.039L690.01 537.029C689.71 537.029 689.424 537.072 689.15 537.156C688.883 537.241 688.636 537.365 688.408 537.527C688.187 537.69 688.005 537.889 687.861 538.123C687.725 538.357 687.637 538.634 687.598 538.953C687.565 539.188 687.568 539.409 687.607 539.617C687.653 539.826 687.744 539.995 687.881 540.125C688.024 540.255 688.236 540.324 688.516 540.33C688.809 540.33 689.092 540.268 689.365 540.145C689.639 540.014 689.87 539.839 690.059 539.617C690.254 539.396 690.378 539.139 690.43 538.846L690.811 539.812C690.713 540.132 690.576 540.438 690.4 540.73C690.231 541.017 690.023 541.274 689.775 541.502C689.535 541.723 689.261 541.899 688.955 542.029C688.649 542.16 688.317 542.221 687.959 542.215C687.373 542.208 686.878 542.068 686.475 541.795C686.071 541.515 685.768 541.147 685.566 540.691C685.371 540.229 685.29 539.718 685.322 539.158C685.355 538.54 685.501 538.003 685.762 537.547C686.022 537.091 686.361 536.717 686.777 536.424C687.194 536.124 687.666 535.906 688.193 535.77C688.721 535.626 689.274 535.555 689.854 535.555L691.211 535.564ZM695.768 540.721L699.557 531.434H701.979L696.529 543.611C696.38 543.95 696.21 544.279 696.021 544.598C695.833 544.917 695.611 545.203 695.357 545.457C695.11 545.717 694.824 545.923 694.498 546.072C694.179 546.229 693.818 546.303 693.414 546.297C693.232 546.297 693.053 546.277 692.877 546.238C692.701 546.199 692.522 546.154 692.34 546.102L692.535 544.275C692.594 544.288 692.652 544.298 692.711 544.305C692.763 544.311 692.815 544.318 692.867 544.324C693.206 544.331 693.495 544.275 693.736 544.158C693.977 544.041 694.179 543.872 694.342 543.65C694.511 543.436 694.658 543.185 694.781 542.898L695.768 540.721ZM696.422 531.434L696.861 539.412L696.812 541.873L695.279 542.264L694.098 531.434H696.422ZM784.633 537.732L786.322 527.781H788.637L786.938 537.723C786.827 538.523 786.586 539.269 786.215 539.959C785.844 540.649 785.342 541.202 784.711 541.619C784.079 542.029 783.327 542.225 782.455 542.205C781.622 542.186 780.948 541.98 780.434 541.59C779.926 541.193 779.564 540.675 779.35 540.037C779.141 539.393 779.063 538.686 779.115 537.918H781.439C781.413 538.237 781.417 538.572 781.449 538.924C781.488 539.269 781.596 539.568 781.771 539.822C781.954 540.07 782.247 540.203 782.65 540.223C783.093 540.236 783.448 540.109 783.715 539.842C783.988 539.568 784.197 539.236 784.34 538.846C784.483 538.455 784.581 538.084 784.633 537.732ZM792.998 539.383L794.385 531.434H796.611L794.775 542H792.676L792.998 539.383ZM793.613 537.264L794.238 537.244C794.173 537.798 794.069 538.367 793.926 538.953C793.783 539.539 793.571 540.083 793.291 540.584C793.018 541.079 792.65 541.479 792.188 541.785C791.732 542.085 791.165 542.225 790.488 542.205C789.941 542.192 789.502 542.065 789.17 541.824C788.838 541.583 788.587 541.271 788.418 540.887C788.255 540.496 788.154 540.073 788.115 539.617C788.083 539.155 788.089 538.702 788.135 538.26L789.277 531.434H791.504L790.361 538.289C790.342 538.465 790.329 538.663 790.322 538.885C790.322 539.106 790.345 539.321 790.391 539.529C790.436 539.731 790.521 539.9 790.645 540.037C790.768 540.174 790.954 540.245 791.201 540.252C791.774 540.285 792.223 540.148 792.549 539.842C792.881 539.529 793.125 539.139 793.281 538.67C793.444 538.195 793.555 537.726 793.613 537.264ZM799.576 533.816L798.16 542H795.924L797.76 531.434H799.85L799.576 533.816ZM798.766 536.355L798.15 536.365C798.215 535.805 798.333 535.223 798.502 534.617C798.671 534.012 798.912 533.449 799.225 532.928C799.537 532.407 799.934 531.99 800.416 531.678C800.898 531.359 801.48 531.209 802.164 531.229C802.704 531.248 803.134 531.382 803.453 531.629C803.772 531.87 804.007 532.189 804.156 532.586C804.306 532.977 804.391 533.4 804.41 533.855C804.436 534.305 804.426 534.747 804.381 535.184L803.248 542H801.031L802.164 535.154C802.19 534.861 802.197 534.565 802.184 534.266C802.171 533.96 802.086 533.702 801.93 533.494C801.78 533.279 801.52 533.169 801.148 533.162C800.751 533.143 800.41 533.24 800.123 533.455C799.843 533.67 799.612 533.947 799.43 534.285C799.247 534.617 799.104 534.969 799 535.34C798.896 535.704 798.818 536.043 798.766 536.355ZM808.518 542.195C807.821 542.182 807.232 542.046 806.75 541.785C806.268 541.525 805.887 541.17 805.607 540.721C805.334 540.271 805.148 539.764 805.051 539.197C804.953 538.631 804.937 538.029 805.002 537.391L805.129 536.375C805.207 535.724 805.357 535.089 805.578 534.471C805.806 533.846 806.109 533.286 806.486 532.791C806.864 532.296 807.326 531.909 807.873 531.629C808.426 531.349 809.074 531.215 809.816 531.229C810.533 531.248 811.109 531.411 811.545 531.717C811.988 532.016 812.313 532.41 812.521 532.898C812.736 533.387 812.863 533.927 812.902 534.52C812.948 535.112 812.935 535.704 812.863 536.297L812.697 537.439H806.027L806.33 535.721L810.734 535.73L810.773 535.467C810.826 535.135 810.839 534.793 810.812 534.441C810.793 534.09 810.695 533.79 810.52 533.543C810.344 533.296 810.048 533.159 809.631 533.133C809.195 533.113 808.837 533.204 808.557 533.406C808.277 533.608 808.055 533.878 807.893 534.217C807.73 534.555 807.609 534.917 807.531 535.301C807.453 535.678 807.395 536.036 807.355 536.375L807.229 537.4C807.189 537.726 807.173 538.055 807.18 538.387C807.193 538.719 807.245 539.028 807.336 539.314C807.434 539.594 807.593 539.826 807.814 540.008C808.042 540.184 808.361 540.275 808.771 540.281C809.253 540.294 809.693 540.203 810.09 540.008C810.487 539.806 810.852 539.546 811.184 539.227L812.053 540.633C811.779 540.997 811.451 541.297 811.066 541.531C810.689 541.766 810.279 541.935 809.836 542.039C809.4 542.15 808.96 542.202 808.518 542.195ZM893.227 537.732L894.916 527.781H897.23L895.531 537.723C895.421 538.523 895.18 539.269 894.809 539.959C894.438 540.649 893.936 541.202 893.305 541.619C892.673 542.029 891.921 542.225 891.049 542.205C890.215 542.186 889.542 541.98 889.027 541.59C888.52 541.193 888.158 540.675 887.943 540.037C887.735 539.393 887.657 538.686 887.709 537.918H890.033C890.007 538.237 890.01 538.572 890.043 538.924C890.082 539.269 890.189 539.568 890.365 539.822C890.548 540.07 890.84 540.203 891.244 540.223C891.687 540.236 892.042 540.109 892.309 539.842C892.582 539.568 892.79 539.236 892.934 538.846C893.077 538.455 893.174 538.084 893.227 537.732ZM901.592 539.383L902.979 531.434H905.205L903.369 542H901.27L901.592 539.383ZM902.207 537.264L902.832 537.244C902.767 537.798 902.663 538.367 902.52 538.953C902.376 539.539 902.165 540.083 901.885 540.584C901.611 541.079 901.243 541.479 900.781 541.785C900.326 542.085 899.759 542.225 899.082 542.205C898.535 542.192 898.096 542.065 897.764 541.824C897.432 541.583 897.181 541.271 897.012 540.887C896.849 540.496 896.748 540.073 896.709 539.617C896.676 539.155 896.683 538.702 896.729 538.26L897.871 531.434H900.098L898.955 538.289C898.936 538.465 898.923 538.663 898.916 538.885C898.916 539.106 898.939 539.321 898.984 539.529C899.03 539.731 899.115 539.9 899.238 540.037C899.362 540.174 899.548 540.245 899.795 540.252C900.368 540.285 900.817 540.148 901.143 539.842C901.475 539.529 901.719 539.139 901.875 538.67C902.038 538.195 902.148 537.726 902.207 537.264ZM909.508 527L906.9 542H904.684L907.291 527H909.508ZM910.92 540.721L914.709 531.434H917.131L911.682 543.611C911.532 543.95 911.363 544.279 911.174 544.598C910.985 544.917 910.764 545.203 910.51 545.457C910.262 545.717 909.976 545.923 909.65 546.072C909.331 546.229 908.97 546.303 908.566 546.297C908.384 546.297 908.205 546.277 908.029 546.238C907.854 546.199 907.674 546.154 907.492 546.102L907.688 544.275C907.746 544.288 907.805 544.298 907.863 544.305C907.915 544.311 907.967 544.318 908.02 544.324C908.358 544.331 908.648 544.275 908.889 544.158C909.13 544.041 909.331 543.872 909.494 543.65C909.663 543.436 909.81 543.185 909.934 542.898L910.92 540.721ZM911.574 531.434L912.014 539.412L911.965 541.873L910.432 542.264L909.25 531.434H911.574Z" fill="black"/>
<path d="M456.552 563.672H459.525L461.312 579.961L468.725 563.672H471.918L461.767 585H459.306L456.552 563.672ZM455.102 563.672H458.017L456.054 578.188L454.867 585H451.396L455.102 563.672ZM470.321 563.672H473.266L469.574 585H466.103L467.348 577.866L470.321 563.672ZM472.469 577.72L472.63 576.46C472.747 575.483 472.981 574.541 473.333 573.633C473.685 572.715 474.153 571.89 474.739 571.157C475.335 570.425 476.048 569.854 476.878 569.443C477.718 569.023 478.685 568.828 479.778 568.857C480.833 568.877 481.707 569.111 482.4 569.561C483.094 570.01 483.636 570.601 484.026 571.333C484.417 572.065 484.671 572.876 484.788 573.765C484.905 574.644 484.92 575.537 484.832 576.445L484.671 577.72C484.554 578.687 484.319 579.629 483.968 580.547C483.616 581.465 483.143 582.285 482.547 583.008C481.961 583.73 481.248 584.302 480.408 584.722C479.578 585.132 478.616 585.322 477.522 585.293C476.458 585.273 475.579 585.039 474.886 584.59C474.202 584.141 473.665 583.555 473.274 582.832C472.894 582.1 472.64 581.289 472.513 580.4C472.396 579.512 472.381 578.618 472.469 577.72ZM475.97 576.445L475.823 577.749C475.784 578.14 475.755 578.599 475.735 579.126C475.726 579.644 475.774 580.156 475.882 580.664C475.999 581.162 476.204 581.577 476.497 581.909C476.8 582.241 477.229 582.417 477.786 582.437C478.421 582.476 478.953 582.349 479.383 582.056C479.822 581.753 480.174 581.357 480.438 580.869C480.701 580.381 480.901 579.858 481.038 579.302C481.185 578.745 481.292 578.213 481.36 577.705L481.507 576.431C481.536 576.04 481.556 575.581 481.565 575.054C481.575 574.526 481.521 574.014 481.404 573.516C481.297 573.018 481.097 572.603 480.804 572.271C480.511 571.929 480.081 571.743 479.515 571.714C478.909 571.675 478.392 571.812 477.962 572.124C477.542 572.427 477.195 572.822 476.922 573.311C476.648 573.799 476.434 574.326 476.277 574.893C476.131 575.449 476.028 575.967 475.97 576.445ZM490.114 572.725L487.99 585H484.636L487.39 569.15H490.524L490.114 572.725ZM488.898 576.533L487.976 576.548C488.073 575.708 488.249 574.834 488.503 573.926C488.757 573.018 489.118 572.173 489.587 571.392C490.056 570.61 490.651 569.985 491.374 569.517C492.097 569.038 492.971 568.813 493.996 568.843C494.807 568.872 495.451 569.072 495.93 569.443C496.408 569.805 496.76 570.283 496.984 570.879C497.209 571.465 497.336 572.1 497.365 572.783C497.404 573.457 497.39 574.121 497.321 574.775L495.622 585H492.297L493.996 574.731C494.035 574.292 494.045 573.848 494.025 573.398C494.006 572.939 493.879 572.554 493.645 572.241C493.42 571.919 493.029 571.753 492.473 571.743C491.877 571.714 491.364 571.86 490.935 572.183C490.515 572.505 490.168 572.92 489.895 573.428C489.621 573.926 489.406 574.453 489.25 575.01C489.094 575.557 488.977 576.064 488.898 576.533ZM506.412 569.15L505.943 571.787H498.385L498.854 569.15H506.412ZM501.578 565.269H504.903L502.296 580.62C502.267 580.874 502.252 581.133 502.252 581.396C502.262 581.65 502.325 581.865 502.442 582.041C502.56 582.207 502.779 582.295 503.102 582.305C503.268 582.305 503.434 582.295 503.6 582.275C503.775 582.246 503.946 582.217 504.112 582.188L503.834 584.956C503.531 585.073 503.219 585.156 502.896 585.205C502.574 585.254 502.247 585.273 501.915 585.264C501.075 585.254 500.431 585.029 499.981 584.59C499.542 584.15 499.244 583.594 499.088 582.92C498.941 582.236 498.902 581.533 498.971 580.811L501.578 565.269ZM511.899 562.5L508.003 585H504.663L508.574 562.5H511.899ZM508.94 576.533H507.974C508.062 575.723 508.232 574.868 508.486 573.97C508.75 573.062 509.111 572.217 509.57 571.436C510.029 570.645 510.615 570.01 511.328 569.531C512.041 569.043 512.9 568.818 513.906 568.857C514.717 568.877 515.366 569.072 515.854 569.443C516.353 569.805 516.719 570.278 516.953 570.864C517.197 571.45 517.344 572.09 517.393 572.783C517.441 573.467 517.427 574.146 517.349 574.819L515.649 585H512.324L514.023 574.775C514.062 574.336 514.072 573.887 514.053 573.428C514.033 572.959 513.911 572.563 513.687 572.241C513.462 571.919 513.066 571.753 512.5 571.743C511.895 571.714 511.377 571.86 510.947 572.183C510.518 572.495 510.166 572.9 509.893 573.398C509.629 573.896 509.419 574.424 509.263 574.98C509.106 575.537 508.999 576.055 508.94 576.533ZM524.857 562.5L520.946 585H517.621L521.532 562.5H524.857ZM526.976 583.081L532.659 569.15H536.292L528.118 587.417C527.894 587.925 527.64 588.418 527.356 588.896C527.073 589.375 526.741 589.805 526.36 590.186C525.989 590.576 525.56 590.884 525.071 591.108C524.593 591.343 524.051 591.455 523.445 591.445C523.172 591.445 522.903 591.416 522.64 591.357C522.376 591.299 522.107 591.23 521.834 591.152L522.127 588.413C522.215 588.433 522.303 588.447 522.391 588.457C522.469 588.467 522.547 588.477 522.625 588.486C523.133 588.496 523.567 588.413 523.929 588.237C524.29 588.062 524.593 587.808 524.837 587.476C525.091 587.153 525.311 586.777 525.496 586.348L526.976 583.081ZM527.957 569.15L528.616 581.118L528.543 584.81L526.243 585.396L524.471 569.15H527.957ZM548.175 575.391H543.766L544.234 572.666L547.823 572.695C548.448 572.686 549 572.549 549.479 572.285C549.967 572.021 550.357 571.655 550.65 571.187C550.943 570.718 551.129 570.171 551.207 569.546C551.285 569.009 551.28 568.53 551.192 568.11C551.104 567.681 550.899 567.339 550.577 567.085C550.265 566.831 549.815 566.694 549.229 566.675L546.344 566.66L543.15 585H539.679L543.37 563.672L549.347 563.687C550.226 563.706 551.012 563.843 551.705 564.097C552.408 564.341 552.994 564.702 553.463 565.181C553.941 565.659 554.293 566.245 554.518 566.938C554.742 567.622 554.82 568.418 554.752 569.326C554.674 570.352 554.386 571.23 553.888 571.963C553.39 572.686 552.74 573.262 551.939 573.691C551.139 574.111 550.25 574.37 549.273 574.468L548.175 575.391ZM546.417 585H540.895L543.004 582.026L546.563 582.056C547.237 582.036 547.813 581.88 548.292 581.587C548.78 581.284 549.166 580.879 549.449 580.371C549.742 579.863 549.928 579.287 550.006 578.643C550.074 578.145 550.079 577.656 550.021 577.178C549.962 576.689 549.791 576.284 549.508 575.962C549.234 575.63 548.795 575.444 548.189 575.405L544.513 575.391L545.04 572.666L549.332 572.681L549.933 573.721C550.821 573.809 551.529 574.092 552.057 574.57C552.594 575.039 552.97 575.635 553.185 576.357C553.409 577.07 553.487 577.837 553.419 578.657C553.331 579.995 552.979 581.143 552.364 582.1C551.759 583.047 550.943 583.774 549.918 584.282C548.902 584.78 547.735 585.02 546.417 585ZM560.327 569.15L557.573 585H554.248L557.002 569.15H560.327ZM557.559 565.049C557.568 564.512 557.739 564.053 558.071 563.672C558.413 563.281 558.857 563.081 559.404 563.071C559.951 563.062 560.396 563.237 560.737 563.599C561.079 563.96 561.245 564.409 561.235 564.946C561.226 565.483 561.05 565.942 560.708 566.323C560.376 566.694 559.932 566.885 559.375 566.895C558.838 566.914 558.398 566.748 558.057 566.396C557.725 566.035 557.559 565.586 557.559 565.049ZM567.924 581.514L571.22 562.5H574.545L570.648 585L567.631 585.015L567.924 581.514ZM560.351 577.72L560.497 576.489C560.604 575.63 560.785 574.746 561.039 573.838C561.303 572.93 561.669 572.09 562.138 571.318C562.606 570.547 563.207 569.937 563.939 569.487C564.672 569.028 565.565 568.818 566.62 568.857C567.519 568.887 568.231 569.155 568.759 569.663C569.296 570.171 569.691 570.811 569.945 571.582C570.209 572.344 570.37 573.145 570.429 573.984C570.487 574.814 570.487 575.576 570.429 576.27L570.209 577.998C570.082 578.74 569.877 579.541 569.594 580.4C569.32 581.26 568.949 582.065 568.48 582.817C568.021 583.569 567.455 584.18 566.781 584.648C566.107 585.117 565.312 585.337 564.394 585.308C563.397 585.278 562.606 585.02 562.021 584.531C561.444 584.033 561.02 583.403 560.746 582.642C560.482 581.87 560.326 581.055 560.277 580.195C560.238 579.326 560.263 578.501 560.351 577.72ZM563.852 576.475L563.705 577.749C563.666 578.159 563.627 578.628 563.588 579.155C563.559 579.673 563.588 580.176 563.676 580.664C563.764 581.152 563.949 581.562 564.232 581.895C564.525 582.217 564.965 582.383 565.551 582.393C566.205 582.412 566.762 582.246 567.221 581.895C567.689 581.533 568.065 581.074 568.349 580.518C568.632 579.961 568.837 579.409 568.964 578.862L569.477 575.42C569.496 575.039 569.477 574.644 569.418 574.233C569.369 573.813 569.267 573.423 569.11 573.062C568.954 572.69 568.729 572.388 568.437 572.153C568.144 571.909 567.768 571.777 567.309 571.758C566.664 571.719 566.127 571.846 565.697 572.139C565.277 572.422 564.94 572.808 564.687 573.296C564.442 573.784 564.252 574.312 564.115 574.878C563.988 575.435 563.9 575.967 563.852 576.475ZM581.857 563.672L587.922 563.687C589.191 563.726 590.246 564.009 591.086 564.536C591.936 565.054 592.556 565.776 592.946 566.704C593.347 567.632 593.493 568.726 593.386 569.985C593.298 571.021 593.059 571.938 592.668 572.739C592.277 573.53 591.745 574.219 591.071 574.805C590.397 575.381 589.592 575.864 588.654 576.255L587.526 576.812H582.062L582.561 573.823L586.12 573.853C586.853 573.843 587.482 573.677 588.01 573.354C588.547 573.032 588.977 572.593 589.299 572.036C589.621 571.479 589.821 570.854 589.899 570.161C589.978 569.595 589.973 569.053 589.885 568.535C589.807 568.008 589.602 567.573 589.27 567.231C588.947 566.89 588.454 566.704 587.79 566.675L584.831 566.66L581.638 585H578.166L581.857 563.672ZM587.893 585L585.607 575.42L589.079 575.405L591.599 584.795V585H587.893ZM599.898 581.777L601.158 573.838C601.197 573.457 601.188 573.101 601.129 572.769C601.08 572.427 600.943 572.148 600.719 571.934C600.504 571.719 600.172 571.606 599.723 571.597C599.283 571.587 598.907 571.68 598.595 571.875C598.282 572.061 598.028 572.319 597.833 572.651C597.647 572.974 597.521 573.33 597.452 573.721L594.127 573.75C594.186 572.988 594.386 572.305 594.728 571.699C595.079 571.084 595.528 570.562 596.075 570.132C596.622 569.702 597.232 569.38 597.906 569.165C598.59 568.94 599.298 568.833 600.03 568.843C601.056 568.853 601.92 569.072 602.623 569.502C603.326 569.922 603.839 570.508 604.161 571.26C604.483 572.012 604.591 572.9 604.483 573.926L603.282 581.338C603.194 581.904 603.136 582.476 603.106 583.052C603.087 583.618 603.136 584.185 603.253 584.751L603.238 585L599.957 585.015C599.82 584.487 599.757 583.95 599.767 583.403C599.776 582.856 599.82 582.314 599.898 581.777ZM601.451 575.347L601.085 577.559L599.649 577.544C599.2 577.544 598.771 577.607 598.36 577.734C597.96 577.861 597.589 578.047 597.247 578.291C596.915 578.535 596.642 578.833 596.427 579.185C596.222 579.536 596.09 579.951 596.031 580.43C595.982 580.781 595.987 581.113 596.046 581.426C596.114 581.738 596.251 581.992 596.456 582.188C596.671 582.383 596.988 582.485 597.408 582.495C597.848 582.495 598.272 582.402 598.683 582.217C599.093 582.021 599.439 581.758 599.723 581.426C600.016 581.094 600.201 580.708 600.279 580.269L600.851 581.719C600.704 582.197 600.499 582.656 600.235 583.096C599.981 583.525 599.669 583.911 599.298 584.253C598.937 584.585 598.526 584.849 598.067 585.044C597.608 585.239 597.11 585.332 596.573 585.322C595.694 585.312 594.952 585.103 594.347 584.692C593.741 584.272 593.287 583.721 592.984 583.037C592.691 582.344 592.569 581.577 592.618 580.737C592.667 579.81 592.887 579.004 593.277 578.32C593.668 577.637 594.176 577.075 594.801 576.636C595.426 576.187 596.134 575.859 596.925 575.654C597.716 575.439 598.546 575.332 599.415 575.332L601.451 575.347ZM613.486 569.15L613.018 571.787H605.459L605.928 569.15H613.486ZM608.652 565.269H611.978L609.37 580.62C609.341 580.874 609.326 581.133 609.326 581.396C609.336 581.65 609.399 581.865 609.517 582.041C609.634 582.207 609.854 582.295 610.176 582.305C610.342 582.305 610.508 582.295 610.674 582.275C610.85 582.246 611.021 582.217 611.187 582.188L610.908 584.956C610.605 585.073 610.293 585.156 609.971 585.205C609.648 585.254 609.321 585.273 608.989 585.264C608.149 585.254 607.505 585.029 607.056 584.59C606.616 584.15 606.318 583.594 606.162 582.92C606.016 582.236 605.977 581.533 606.045 580.811L608.652 565.269ZM617.89 585.293C616.845 585.273 615.961 585.068 615.238 584.678C614.516 584.287 613.944 583.755 613.524 583.081C613.114 582.407 612.836 581.646 612.689 580.796C612.543 579.946 612.519 579.043 612.616 578.086L612.807 576.562C612.924 575.586 613.148 574.634 613.48 573.706C613.822 572.769 614.276 571.929 614.843 571.187C615.409 570.444 616.103 569.863 616.923 569.443C617.753 569.023 618.725 568.823 619.838 568.843C620.912 568.872 621.776 569.116 622.431 569.575C623.095 570.024 623.583 570.615 623.896 571.348C624.218 572.08 624.408 572.891 624.467 573.779C624.535 574.668 624.516 575.557 624.408 576.445L624.159 578.159H614.154L614.608 575.581L621.215 575.596L621.273 575.2C621.352 574.702 621.371 574.189 621.332 573.662C621.303 573.135 621.156 572.686 620.893 572.314C620.629 571.943 620.185 571.738 619.56 571.699C618.905 571.67 618.368 571.807 617.948 572.109C617.528 572.412 617.196 572.817 616.952 573.325C616.708 573.833 616.527 574.375 616.41 574.951C616.293 575.518 616.205 576.055 616.146 576.562L615.956 578.101C615.897 578.589 615.873 579.082 615.883 579.58C615.902 580.078 615.98 580.542 616.117 580.972C616.264 581.392 616.503 581.738 616.835 582.012C617.177 582.275 617.655 582.412 618.271 582.422C618.993 582.441 619.652 582.305 620.248 582.012C620.844 581.709 621.391 581.318 621.889 580.84L623.192 582.949C622.782 583.496 622.289 583.945 621.713 584.297C621.146 584.648 620.531 584.902 619.867 585.059C619.213 585.225 618.554 585.303 617.89 585.293ZM641.813 582.129L641.359 585H629.436L629.846 582.393L636.54 574.966C636.979 574.468 637.429 573.931 637.888 573.354C638.347 572.769 638.747 572.158 639.089 571.523C639.431 570.879 639.646 570.21 639.733 569.517C639.782 569.087 639.777 568.618 639.719 568.11C639.67 567.603 639.509 567.163 639.235 566.792C638.972 566.421 638.562 566.226 638.005 566.206C637.282 566.187 636.696 566.387 636.247 566.807C635.808 567.217 635.476 567.734 635.251 568.359C635.026 568.975 634.88 569.575 634.812 570.161L631.516 570.176C631.623 568.945 631.96 567.812 632.526 566.777C633.103 565.732 633.874 564.897 634.841 564.272C635.817 563.647 636.96 563.345 638.269 563.364C639.401 563.384 640.349 563.652 641.11 564.17C641.882 564.678 642.443 565.366 642.795 566.235C643.146 567.104 643.273 568.081 643.176 569.165C643.107 569.956 642.922 570.713 642.619 571.436C642.316 572.158 641.94 572.847 641.491 573.501C641.052 574.155 640.568 574.785 640.041 575.391C639.523 575.996 639.011 576.577 638.503 577.134L634.152 582.129H641.813ZM656.046 572.549L655.519 576.021C655.362 577.036 655.138 578.091 654.845 579.185C654.552 580.278 654.137 581.294 653.6 582.231C653.072 583.169 652.384 583.926 651.534 584.502C650.685 585.068 649.63 585.332 648.37 585.293C647.403 585.273 646.617 585.059 646.012 584.648C645.406 584.229 644.933 583.687 644.591 583.022C644.259 582.358 644.029 581.626 643.902 580.825C643.785 580.015 643.736 579.194 643.756 578.364C643.775 577.534 643.834 576.758 643.932 576.035L644.459 572.549C644.605 571.533 644.825 570.483 645.118 569.399C645.421 568.315 645.836 567.31 646.363 566.382C646.9 565.454 647.594 564.712 648.443 564.155C649.303 563.599 650.357 563.34 651.607 563.379C652.564 563.398 653.346 563.613 653.951 564.023C654.566 564.434 655.04 564.966 655.372 565.62C655.704 566.274 655.929 566.997 656.046 567.788C656.173 568.579 656.227 569.39 656.207 570.22C656.188 571.04 656.134 571.816 656.046 572.549ZM652.135 576.548L652.794 571.992C652.833 571.709 652.877 571.338 652.926 570.879C652.984 570.41 653.019 569.912 653.028 569.385C653.048 568.857 653.014 568.359 652.926 567.891C652.838 567.422 652.667 567.031 652.413 566.719C652.159 566.406 651.793 566.24 651.314 566.221C650.641 566.172 650.089 566.357 649.659 566.777C649.239 567.188 648.907 567.71 648.663 568.345C648.419 568.979 648.238 569.634 648.121 570.308C648.004 570.972 647.911 571.538 647.843 572.007L647.184 576.562C647.154 576.836 647.11 577.207 647.052 577.676C647.003 578.145 646.969 578.647 646.949 579.185C646.939 579.722 646.974 580.234 647.052 580.723C647.14 581.201 647.306 581.602 647.55 581.924C647.794 582.236 648.16 582.407 648.648 582.437C649.322 582.485 649.874 582.3 650.304 581.88C650.733 581.46 651.065 580.923 651.3 580.269C651.544 579.614 651.725 578.95 651.842 578.276C651.969 577.593 652.066 577.017 652.135 576.548ZM667.935 582.129L667.48 585H655.557L655.967 582.393L662.661 574.966C663.101 574.468 663.55 573.931 664.009 573.354C664.468 572.769 664.868 572.158 665.21 571.523C665.552 570.879 665.767 570.21 665.854 569.517C665.903 569.087 665.898 568.618 665.84 568.11C665.791 567.603 665.63 567.163 665.356 566.792C665.093 566.421 664.683 566.226 664.126 566.206C663.403 566.187 662.817 566.387 662.368 566.807C661.929 567.217 661.597 567.734 661.372 568.359C661.147 568.975 661.001 569.575 660.933 570.161L657.637 570.176C657.744 568.945 658.081 567.812 658.647 566.777C659.224 565.732 659.995 564.897 660.962 564.272C661.938 563.647 663.081 563.345 664.39 563.364C665.522 563.384 666.47 563.652 667.231 564.17C668.003 564.678 668.564 565.366 668.916 566.235C669.268 567.104 669.395 568.081 669.297 569.165C669.229 569.956 669.043 570.713 668.74 571.436C668.438 572.158 668.062 572.847 667.612 573.501C667.173 574.155 666.689 574.785 666.162 575.391C665.645 575.996 665.132 576.577 664.624 577.134L660.273 582.129H667.935ZM681.933 577.354L681.435 580.225H668.778L669.071 577.881L678.783 563.672H681.61L677.934 569.15L672.66 577.354H681.933ZM682.284 563.672L678.593 585H675.253L678.959 563.672H682.284Z" fill="black"/>
<path d="M126.509 159.299L124.693 170H123.023L124.51 161.482L122.291 162.354L122.562 160.786L126.268 159.299H126.509ZM129.707 165.042L128.359 164.683L129.678 159.336H134.468L134.226 160.867H130.842L130.154 163.438C130.344 163.311 130.547 163.21 130.762 163.137C130.981 163.059 131.208 163.018 131.443 163.013C131.921 163.018 132.31 163.13 132.607 163.35C132.91 163.564 133.142 163.848 133.303 164.199C133.469 164.551 133.577 164.934 133.625 165.349C133.674 165.759 133.682 166.155 133.647 166.536C133.608 167 133.506 167.451 133.34 167.891C133.174 168.325 132.949 168.716 132.666 169.062C132.388 169.404 132.048 169.675 131.648 169.875C131.248 170.076 130.793 170.168 130.286 170.154C129.851 170.144 129.473 170.056 129.15 169.89C128.833 169.719 128.567 169.49 128.352 169.202C128.142 168.914 127.983 168.589 127.876 168.228C127.773 167.866 127.722 167.49 127.722 167.1H129.341C129.346 167.334 129.375 167.573 129.429 167.817C129.487 168.062 129.59 168.269 129.736 168.44C129.888 168.611 130.105 168.699 130.388 168.704C130.676 168.713 130.916 168.647 131.106 168.506C131.301 168.359 131.46 168.171 131.582 167.942C131.704 167.708 131.794 167.461 131.853 167.202C131.917 166.938 131.958 166.694 131.978 166.47C131.997 166.274 132 166.062 131.985 165.833C131.975 165.598 131.936 165.376 131.868 165.166C131.799 164.951 131.689 164.775 131.538 164.639C131.387 164.502 131.182 164.434 130.923 164.434C130.659 164.424 130.435 164.478 130.249 164.595C130.063 164.712 129.883 164.861 129.707 165.042ZM140.493 163.774L140.229 165.51C140.151 166.018 140.039 166.545 139.892 167.092C139.746 167.639 139.538 168.147 139.27 168.616C139.006 169.084 138.662 169.463 138.237 169.751C137.812 170.034 137.285 170.166 136.655 170.146C136.171 170.137 135.778 170.029 135.476 169.824C135.173 169.614 134.936 169.343 134.765 169.011C134.599 168.679 134.484 168.313 134.421 167.913C134.362 167.507 134.338 167.097 134.348 166.682C134.357 166.267 134.387 165.879 134.436 165.518L134.699 163.774C134.772 163.267 134.882 162.742 135.029 162.2C135.18 161.658 135.388 161.155 135.651 160.691C135.92 160.227 136.267 159.856 136.691 159.578C137.121 159.299 137.648 159.17 138.273 159.189C138.752 159.199 139.143 159.307 139.445 159.512C139.753 159.717 139.99 159.983 140.156 160.31C140.322 160.637 140.434 160.999 140.493 161.394C140.556 161.79 140.583 162.195 140.573 162.61C140.563 163.02 140.537 163.408 140.493 163.774ZM138.537 165.774L138.867 163.496C138.886 163.354 138.908 163.169 138.933 162.939C138.962 162.705 138.979 162.456 138.984 162.192C138.994 161.929 138.977 161.68 138.933 161.445C138.889 161.211 138.803 161.016 138.676 160.859C138.549 160.703 138.366 160.62 138.127 160.61C137.79 160.586 137.514 160.679 137.299 160.889C137.089 161.094 136.923 161.355 136.801 161.672C136.679 161.99 136.589 162.317 136.53 162.654C136.472 162.986 136.425 163.269 136.391 163.503L136.062 165.781C136.047 165.918 136.025 166.104 135.996 166.338C135.971 166.572 135.954 166.824 135.944 167.092C135.939 167.361 135.957 167.617 135.996 167.861C136.04 168.101 136.123 168.301 136.245 168.462C136.367 168.618 136.55 168.704 136.794 168.718C137.131 168.743 137.407 168.65 137.622 168.44C137.836 168.23 138.002 167.961 138.12 167.634C138.242 167.307 138.332 166.975 138.391 166.638C138.454 166.296 138.503 166.008 138.537 165.774ZM147.023 163.774L146.759 165.51C146.681 166.018 146.569 166.545 146.422 167.092C146.276 167.639 146.068 168.147 145.8 168.616C145.536 169.084 145.192 169.463 144.767 169.751C144.342 170.034 143.815 170.166 143.185 170.146C142.702 170.137 142.309 170.029 142.006 169.824C141.703 169.614 141.466 169.343 141.295 169.011C141.129 168.679 141.015 168.313 140.951 167.913C140.893 167.507 140.868 167.097 140.878 166.682C140.888 166.267 140.917 165.879 140.966 165.518L141.229 163.774C141.303 163.267 141.413 162.742 141.559 162.2C141.71 161.658 141.918 161.155 142.182 160.691C142.45 160.227 142.797 159.856 143.222 159.578C143.651 159.299 144.179 159.17 144.804 159.189C145.282 159.199 145.673 159.307 145.976 159.512C146.283 159.717 146.52 159.983 146.686 160.31C146.852 160.637 146.964 160.999 147.023 161.394C147.086 161.79 147.113 162.195 147.104 162.61C147.094 163.02 147.067 163.408 147.023 163.774ZM145.067 165.774L145.397 163.496C145.417 163.354 145.438 163.169 145.463 162.939C145.492 162.705 145.509 162.456 145.514 162.192C145.524 161.929 145.507 161.68 145.463 161.445C145.419 161.211 145.333 161.016 145.207 160.859C145.08 160.703 144.896 160.62 144.657 160.61C144.32 160.586 144.044 160.679 143.83 160.889C143.62 161.094 143.454 161.355 143.332 161.672C143.209 161.99 143.119 162.317 143.061 162.654C143.002 162.986 142.956 163.269 142.921 163.503L142.592 165.781C142.577 165.918 142.555 166.104 142.526 166.338C142.501 166.572 142.484 166.824 142.475 167.092C142.47 167.361 142.487 167.617 142.526 167.861C142.57 168.101 142.653 168.301 142.775 168.462C142.897 168.618 143.08 168.704 143.324 168.718C143.661 168.743 143.937 168.65 144.152 168.44C144.367 168.23 144.533 167.961 144.65 167.634C144.772 167.307 144.862 166.975 144.921 166.638C144.984 166.296 145.033 166.008 145.067 165.774ZM153.553 163.774L153.29 165.51C153.211 166.018 153.099 166.545 152.953 167.092C152.806 167.639 152.599 168.147 152.33 168.616C152.066 169.084 151.722 169.463 151.297 169.751C150.873 170.034 150.345 170.166 149.715 170.146C149.232 170.137 148.839 170.029 148.536 169.824C148.233 169.614 147.997 169.343 147.826 169.011C147.66 168.679 147.545 168.313 147.481 167.913C147.423 167.507 147.398 167.097 147.408 166.682C147.418 166.267 147.447 165.879 147.496 165.518L147.76 163.774C147.833 163.267 147.943 162.742 148.089 162.2C148.241 161.658 148.448 161.155 148.712 160.691C148.98 160.227 149.327 159.856 149.752 159.578C150.182 159.299 150.709 159.17 151.334 159.189C151.812 159.199 152.203 159.307 152.506 159.512C152.813 159.717 153.05 159.983 153.216 160.31C153.382 160.637 153.495 160.999 153.553 161.394C153.617 161.79 153.644 162.195 153.634 162.61C153.624 163.02 153.597 163.408 153.553 163.774ZM151.598 165.774L151.927 163.496C151.947 163.354 151.969 163.169 151.993 162.939C152.022 162.705 152.04 162.456 152.044 162.192C152.054 161.929 152.037 161.68 151.993 161.445C151.949 161.211 151.864 161.016 151.737 160.859C151.61 160.703 151.427 160.62 151.188 160.61C150.851 160.586 150.575 160.679 150.36 160.889C150.15 161.094 149.984 161.355 149.862 161.672C149.74 161.99 149.649 162.317 149.591 162.654C149.532 162.986 149.486 163.269 149.452 163.503L149.122 165.781C149.107 165.918 149.085 166.104 149.056 166.338C149.032 166.572 149.015 166.824 149.005 167.092C149 167.361 149.017 167.617 149.056 167.861C149.1 168.101 149.183 168.301 149.305 168.462C149.427 168.618 149.61 168.704 149.854 168.718C150.191 168.743 150.467 168.65 150.682 168.44C150.897 168.23 151.063 167.961 151.18 167.634C151.302 167.307 151.393 166.975 151.451 166.638C151.515 166.296 151.563 166.008 151.598 165.774ZM123.177 219.042L121.829 218.683L123.147 213.336H127.938L127.696 214.867H124.312L123.624 217.438C123.814 217.311 124.017 217.21 124.231 217.137C124.451 217.059 124.678 217.018 124.913 217.013C125.391 217.018 125.779 217.13 126.077 217.35C126.38 217.564 126.612 217.848 126.773 218.199C126.939 218.551 127.046 218.934 127.095 219.349C127.144 219.759 127.151 220.155 127.117 220.536C127.078 221 126.976 221.451 126.81 221.891C126.644 222.325 126.419 222.716 126.136 223.062C125.857 223.404 125.518 223.675 125.118 223.875C124.717 224.076 124.263 224.168 123.755 224.154C123.321 224.144 122.942 224.056 122.62 223.89C122.303 223.719 122.037 223.49 121.822 223.202C121.612 222.914 121.453 222.589 121.346 222.228C121.243 221.866 121.192 221.49 121.192 221.1H122.811C122.815 221.334 122.845 221.573 122.898 221.817C122.957 222.062 123.06 222.269 123.206 222.44C123.357 222.611 123.575 222.699 123.858 222.704C124.146 222.713 124.385 222.647 124.576 222.506C124.771 222.359 124.93 222.171 125.052 221.942C125.174 221.708 125.264 221.461 125.323 221.202C125.386 220.938 125.428 220.694 125.447 220.47C125.467 220.274 125.469 220.062 125.455 219.833C125.445 219.598 125.406 219.376 125.337 219.166C125.269 218.951 125.159 218.775 125.008 218.639C124.856 218.502 124.651 218.434 124.393 218.434C124.129 218.424 123.904 218.478 123.719 218.595C123.533 218.712 123.353 218.861 123.177 219.042ZM133.962 217.774L133.699 219.51C133.621 220.018 133.508 220.545 133.362 221.092C133.215 221.639 133.008 222.147 132.739 222.616C132.476 223.084 132.131 223.463 131.707 223.751C131.282 224.034 130.754 224.166 130.125 224.146C129.641 224.137 129.248 224.029 128.945 223.824C128.643 223.614 128.406 223.343 128.235 223.011C128.069 222.679 127.954 222.313 127.891 221.913C127.832 221.507 127.808 221.097 127.817 220.682C127.827 220.267 127.856 219.879 127.905 219.518L128.169 217.774C128.242 217.267 128.352 216.742 128.499 216.2C128.65 215.658 128.857 215.155 129.121 214.691C129.39 214.227 129.736 213.856 130.161 213.578C130.591 213.299 131.118 213.17 131.743 213.189C132.222 213.199 132.612 213.307 132.915 213.512C133.223 213.717 133.459 213.983 133.625 214.31C133.792 214.637 133.904 214.999 133.962 215.394C134.026 215.79 134.053 216.195 134.043 216.61C134.033 217.02 134.006 217.408 133.962 217.774ZM132.007 219.774L132.336 217.496C132.356 217.354 132.378 217.169 132.402 216.939C132.432 216.705 132.449 216.456 132.454 216.192C132.463 215.929 132.446 215.68 132.402 215.445C132.358 215.211 132.273 215.016 132.146 214.859C132.019 214.703 131.836 214.62 131.597 214.61C131.26 214.586 130.984 214.679 130.769 214.889C130.559 215.094 130.393 215.355 130.271 215.672C130.149 215.99 130.059 216.317 130 216.654C129.941 216.986 129.895 217.269 129.861 217.503L129.531 219.781C129.517 219.918 129.495 220.104 129.465 220.338C129.441 220.572 129.424 220.824 129.414 221.092C129.409 221.361 129.426 221.617 129.465 221.861C129.509 222.101 129.592 222.301 129.714 222.462C129.836 222.618 130.02 222.704 130.264 222.718C130.601 222.743 130.876 222.65 131.091 222.44C131.306 222.23 131.472 221.961 131.589 221.634C131.711 221.307 131.802 220.975 131.86 220.638C131.924 220.296 131.973 220.008 132.007 219.774ZM140.493 217.774L140.229 219.51C140.151 220.018 140.039 220.545 139.892 221.092C139.746 221.639 139.538 222.147 139.27 222.616C139.006 223.084 138.662 223.463 138.237 223.751C137.812 224.034 137.285 224.166 136.655 224.146C136.171 224.137 135.778 224.029 135.476 223.824C135.173 223.614 134.936 223.343 134.765 223.011C134.599 222.679 134.484 222.313 134.421 221.913C134.362 221.507 134.338 221.097 134.348 220.682C134.357 220.267 134.387 219.879 134.436 219.518L134.699 217.774C134.772 217.267 134.882 216.742 135.029 216.2C135.18 215.658 135.388 215.155 135.651 214.691C135.92 214.227 136.267 213.856 136.691 213.578C137.121 213.299 137.648 213.17 138.273 213.189C138.752 213.199 139.143 213.307 139.445 213.512C139.753 213.717 139.99 213.983 140.156 214.31C140.322 214.637 140.434 214.999 140.493 215.394C140.556 215.79 140.583 216.195 140.573 216.61C140.563 217.02 140.537 217.408 140.493 217.774ZM138.537 219.774L138.867 217.496C138.886 217.354 138.908 217.169 138.933 216.939C138.962 216.705 138.979 216.456 138.984 216.192C138.994 215.929 138.977 215.68 138.933 215.445C138.889 215.211 138.803 215.016 138.676 214.859C138.549 214.703 138.366 214.62 138.127 214.61C137.79 214.586 137.514 214.679 137.299 214.889C137.089 215.094 136.923 215.355 136.801 215.672C136.679 215.99 136.589 216.317 136.53 216.654C136.472 216.986 136.425 217.269 136.391 217.503L136.062 219.781C136.047 219.918 136.025 220.104 135.996 220.338C135.971 220.572 135.954 220.824 135.944 221.092C135.939 221.361 135.957 221.617 135.996 221.861C136.04 222.101 136.123 222.301 136.245 222.462C136.367 222.618 136.55 222.704 136.794 222.718C137.131 222.743 137.407 222.65 137.622 222.44C137.836 222.23 138.002 221.961 138.12 221.634C138.242 221.307 138.332 220.975 138.391 220.638C138.454 220.296 138.503 220.008 138.537 219.774ZM147.023 217.774L146.759 219.51C146.681 220.018 146.569 220.545 146.422 221.092C146.276 221.639 146.068 222.147 145.8 222.616C145.536 223.084 145.192 223.463 144.767 223.751C144.342 224.034 143.815 224.166 143.185 224.146C142.702 224.137 142.309 224.029 142.006 223.824C141.703 223.614 141.466 223.343 141.295 223.011C141.129 222.679 141.015 222.313 140.951 221.913C140.893 221.507 140.868 221.097 140.878 220.682C140.888 220.267 140.917 219.879 140.966 219.518L141.229 217.774C141.303 217.267 141.413 216.742 141.559 216.2C141.71 215.658 141.918 215.155 142.182 214.691C142.45 214.227 142.797 213.856 143.222 213.578C143.651 213.299 144.179 213.17 144.804 213.189C145.282 213.199 145.673 213.307 145.976 213.512C146.283 213.717 146.52 213.983 146.686 214.31C146.852 214.637 146.964 214.999 147.023 215.394C147.086 215.79 147.113 216.195 147.104 216.61C147.094 217.02 147.067 217.408 147.023 217.774ZM145.067 219.774L145.397 217.496C145.417 217.354 145.438 217.169 145.463 216.939C145.492 216.705 145.509 216.456 145.514 216.192C145.524 215.929 145.507 215.68 145.463 215.445C145.419 215.211 145.333 215.016 145.207 214.859C145.08 214.703 144.896 214.62 144.657 214.61C144.32 214.586 144.044 214.679 143.83 214.889C143.62 215.094 143.454 215.355 143.332 215.672C143.209 215.99 143.119 216.317 143.061 216.654C143.002 216.986 142.956 217.269 142.921 217.503L142.592 219.781C142.577 219.918 142.555 220.104 142.526 220.338C142.501 220.572 142.484 220.824 142.475 221.092C142.47 221.361 142.487 221.617 142.526 221.861C142.57 222.101 142.653 222.301 142.775 222.462C142.897 222.618 143.08 222.704 143.324 222.718C143.661 222.743 143.937 222.65 144.152 222.44C144.367 222.23 144.533 221.961 144.65 221.634C144.772 221.307 144.862 220.975 144.921 220.638C144.984 220.296 145.033 220.008 145.067 219.774ZM153.553 217.774L153.29 219.51C153.211 220.018 153.099 220.545 152.953 221.092C152.806 221.639 152.599 222.147 152.33 222.616C152.066 223.084 151.722 223.463 151.297 223.751C150.873 224.034 150.345 224.166 149.715 224.146C149.232 224.137 148.839 224.029 148.536 223.824C148.233 223.614 147.997 223.343 147.826 223.011C147.66 222.679 147.545 222.313 147.481 221.913C147.423 221.507 147.398 221.097 147.408 220.682C147.418 220.267 147.447 219.879 147.496 219.518L147.76 217.774C147.833 217.267 147.943 216.742 148.089 216.2C148.241 215.658 148.448 215.155 148.712 214.691C148.98 214.227 149.327 213.856 149.752 213.578C150.182 213.299 150.709 213.17 151.334 213.189C151.812 213.199 152.203 213.307 152.506 213.512C152.813 213.717 153.05 213.983 153.216 214.31C153.382 214.637 153.495 214.999 153.553 215.394C153.617 215.79 153.644 216.195 153.634 216.61C153.624 217.02 153.597 217.408 153.553 217.774ZM151.598 219.774L151.927 217.496C151.947 217.354 151.969 217.169 151.993 216.939C152.022 216.705 152.04 216.456 152.044 216.192C152.054 215.929 152.037 215.68 151.993 215.445C151.949 215.211 151.864 215.016 151.737 214.859C151.61 214.703 151.427 214.62 151.188 214.61C150.851 214.586 150.575 214.679 150.36 214.889C150.15 215.094 149.984 215.355 149.862 215.672C149.74 215.99 149.649 216.317 149.591 216.654C149.532 216.986 149.486 217.269 149.452 217.503L149.122 219.781C149.107 219.918 149.085 220.104 149.056 220.338C149.032 220.572 149.015 220.824 149.005 221.092C149 221.361 149.017 221.617 149.056 221.861C149.1 222.101 149.183 222.301 149.305 222.462C149.427 222.618 149.61 222.704 149.854 222.718C150.191 222.743 150.467 222.65 150.682 222.44C150.897 222.23 151.063 221.961 151.18 221.634C151.302 221.307 151.393 220.975 151.451 220.638C151.515 220.296 151.563 220.008 151.598 219.774ZM123.323 289.855L124.151 289.862C124.483 289.857 124.764 289.779 124.993 289.628C125.223 289.472 125.403 289.267 125.535 289.013C125.667 288.759 125.748 288.476 125.777 288.163C125.796 287.934 125.787 287.699 125.748 287.46C125.713 287.221 125.625 287.021 125.484 286.859C125.347 286.693 125.137 286.608 124.854 286.603C124.571 286.598 124.336 286.671 124.151 286.823C123.965 286.974 123.819 287.165 123.711 287.394C123.604 287.624 123.531 287.858 123.492 288.097L121.829 288.104C121.878 287.553 122.039 287.055 122.312 286.61C122.591 286.161 122.955 285.807 123.404 285.548C123.853 285.29 124.366 285.165 124.942 285.175C125.518 285.189 126.001 285.329 126.392 285.592C126.783 285.856 127.071 286.212 127.256 286.662C127.442 287.106 127.513 287.606 127.469 288.163C127.444 288.568 127.344 288.937 127.168 289.269C126.998 289.601 126.771 289.884 126.487 290.119C126.209 290.353 125.892 290.536 125.535 290.668C125.184 290.795 124.812 290.858 124.422 290.858L123.162 290.851L123.323 289.855ZM123.104 291.261L123.257 290.28L124.327 290.287C124.737 290.302 125.103 290.37 125.425 290.492C125.748 290.614 126.019 290.79 126.238 291.02C126.458 291.244 126.617 291.52 126.714 291.847C126.817 292.174 126.854 292.545 126.824 292.96C126.79 293.415 126.685 293.839 126.509 294.235C126.333 294.625 126.097 294.967 125.799 295.26C125.506 295.548 125.162 295.773 124.766 295.934C124.375 296.09 123.946 296.161 123.477 296.146C123.042 296.137 122.662 296.051 122.334 295.89C122.007 295.729 121.736 295.512 121.521 295.238C121.307 294.96 121.15 294.64 121.053 294.279C120.955 293.913 120.914 293.527 120.928 293.122H122.583C122.574 293.356 122.593 293.595 122.642 293.839C122.696 294.079 122.798 294.281 122.95 294.447C123.106 294.613 123.328 294.701 123.616 294.711C123.948 294.721 124.224 294.64 124.444 294.469C124.664 294.298 124.834 294.076 124.957 293.803C125.083 293.529 125.159 293.246 125.184 292.953C125.213 292.675 125.201 292.411 125.147 292.162C125.098 291.908 124.988 291.701 124.817 291.54C124.651 291.374 124.41 291.283 124.092 291.269L123.104 291.261ZM133.962 289.774L133.699 291.51C133.621 292.018 133.508 292.545 133.362 293.092C133.215 293.639 133.008 294.147 132.739 294.616C132.476 295.084 132.131 295.463 131.707 295.751C131.282 296.034 130.754 296.166 130.125 296.146C129.641 296.137 129.248 296.029 128.945 295.824C128.643 295.614 128.406 295.343 128.235 295.011C128.069 294.679 127.954 294.313 127.891 293.913C127.832 293.507 127.808 293.097 127.817 292.682C127.827 292.267 127.856 291.879 127.905 291.518L128.169 289.774C128.242 289.267 128.352 288.742 128.499 288.2C128.65 287.658 128.857 287.155 129.121 286.691C129.39 286.227 129.736 285.856 130.161 285.578C130.591 285.299 131.118 285.17 131.743 285.189C132.222 285.199 132.612 285.307 132.915 285.512C133.223 285.717 133.459 285.983 133.625 286.31C133.792 286.637 133.904 286.999 133.962 287.394C134.026 287.79 134.053 288.195 134.043 288.61C134.033 289.02 134.006 289.408 133.962 289.774ZM132.007 291.774L132.336 289.496C132.356 289.354 132.378 289.169 132.402 288.939C132.432 288.705 132.449 288.456 132.454 288.192C132.463 287.929 132.446 287.68 132.402 287.445C132.358 287.211 132.273 287.016 132.146 286.859C132.019 286.703 131.836 286.62 131.597 286.61C131.26 286.586 130.984 286.679 130.769 286.889C130.559 287.094 130.393 287.355 130.271 287.672C130.149 287.99 130.059 288.317 130 288.654C129.941 288.986 129.895 289.269 129.861 289.503L129.531 291.781C129.517 291.918 129.495 292.104 129.465 292.338C129.441 292.572 129.424 292.824 129.414 293.092C129.409 293.361 129.426 293.617 129.465 293.861C129.509 294.101 129.592 294.301 129.714 294.462C129.836 294.618 130.02 294.704 130.264 294.718C130.601 294.743 130.876 294.65 131.091 294.44C131.306 294.23 131.472 293.961 131.589 293.634C131.711 293.307 131.802 292.975 131.86 292.638C131.924 292.296 131.973 292.008 132.007 291.774ZM140.493 289.774L140.229 291.51C140.151 292.018 140.039 292.545 139.892 293.092C139.746 293.639 139.538 294.147 139.27 294.616C139.006 295.084 138.662 295.463 138.237 295.751C137.812 296.034 137.285 296.166 136.655 296.146C136.171 296.137 135.778 296.029 135.476 295.824C135.173 295.614 134.936 295.343 134.765 295.011C134.599 294.679 134.484 294.313 134.421 293.913C134.362 293.507 134.338 293.097 134.348 292.682C134.357 292.267 134.387 291.879 134.436 291.518L134.699 289.774C134.772 289.267 134.882 288.742 135.029 288.2C135.18 287.658 135.388 287.155 135.651 286.691C135.92 286.227 136.267 285.856 136.691 285.578C137.121 285.299 137.648 285.17 138.273 285.189C138.752 285.199 139.143 285.307 139.445 285.512C139.753 285.717 139.99 285.983 140.156 286.31C140.322 286.637 140.434 286.999 140.493 287.394C140.556 287.79 140.583 288.195 140.573 288.61C140.563 289.02 140.537 289.408 140.493 289.774ZM138.537 291.774L138.867 289.496C138.886 289.354 138.908 289.169 138.933 288.939C138.962 288.705 138.979 288.456 138.984 288.192C138.994 287.929 138.977 287.68 138.933 287.445C138.889 287.211 138.803 287.016 138.676 286.859C138.549 286.703 138.366 286.62 138.127 286.61C137.79 286.586 137.514 286.679 137.299 286.889C137.089 287.094 136.923 287.355 136.801 287.672C136.679 287.99 136.589 288.317 136.53 288.654C136.472 288.986 136.425 289.269 136.391 289.503L136.062 291.781C136.047 291.918 136.025 292.104 135.996 292.338C135.971 292.572 135.954 292.824 135.944 293.092C135.939 293.361 135.957 293.617 135.996 293.861C136.04 294.101 136.123 294.301 136.245 294.462C136.367 294.618 136.55 294.704 136.794 294.718C137.131 294.743 137.407 294.65 137.622 294.44C137.836 294.23 138.002 293.961 138.12 293.634C138.242 293.307 138.332 292.975 138.391 292.638C138.454 292.296 138.503 292.008 138.537 291.774ZM147.023 289.774L146.759 291.51C146.681 292.018 146.569 292.545 146.422 293.092C146.276 293.639 146.068 294.147 145.8 294.616C145.536 295.084 145.192 295.463 144.767 295.751C144.342 296.034 143.815 296.166 143.185 296.146C142.702 296.137 142.309 296.029 142.006 295.824C141.703 295.614 141.466 295.343 141.295 295.011C141.129 294.679 141.015 294.313 140.951 293.913C140.893 293.507 140.868 293.097 140.878 292.682C140.888 292.267 140.917 291.879 140.966 291.518L141.229 289.774C141.303 289.267 141.413 288.742 141.559 288.2C141.71 287.658 141.918 287.155 142.182 286.691C142.45 286.227 142.797 285.856 143.222 285.578C143.651 285.299 144.179 285.17 144.804 285.189C145.282 285.199 145.673 285.307 145.976 285.512C146.283 285.717 146.52 285.983 146.686 286.31C146.852 286.637 146.964 286.999 147.023 287.394C147.086 287.79 147.113 288.195 147.104 288.61C147.094 289.02 147.067 289.408 147.023 289.774ZM145.067 291.774L145.397 289.496C145.417 289.354 145.438 289.169 145.463 288.939C145.492 288.705 145.509 288.456 145.514 288.192C145.524 287.929 145.507 287.68 145.463 287.445C145.419 287.211 145.333 287.016 145.207 286.859C145.08 286.703 144.896 286.62 144.657 286.61C144.32 286.586 144.044 286.679 143.83 286.889C143.62 287.094 143.454 287.355 143.332 287.672C143.209 287.99 143.119 288.317 143.061 288.654C143.002 288.986 142.956 289.269 142.921 289.503L142.592 291.781C142.577 291.918 142.555 292.104 142.526 292.338C142.501 292.572 142.484 292.824 142.475 293.092C142.47 293.361 142.487 293.617 142.526 293.861C142.57 294.101 142.653 294.301 142.775 294.462C142.897 294.618 143.08 294.704 143.324 294.718C143.661 294.743 143.937 294.65 144.152 294.44C144.367 294.23 144.533 293.961 144.65 293.634C144.772 293.307 144.862 292.975 144.921 292.638C144.984 292.296 145.033 292.008 145.067 291.774ZM153.553 289.774L153.29 291.51C153.211 292.018 153.099 292.545 152.953 293.092C152.806 293.639 152.599 294.147 152.33 294.616C152.066 295.084 151.722 295.463 151.297 295.751C150.873 296.034 150.345 296.166 149.715 296.146C149.232 296.137 148.839 296.029 148.536 295.824C148.233 295.614 147.997 295.343 147.826 295.011C147.66 294.679 147.545 294.313 147.481 293.913C147.423 293.507 147.398 293.097 147.408 292.682C147.418 292.267 147.447 291.879 147.496 291.518L147.76 289.774C147.833 289.267 147.943 288.742 148.089 288.2C148.241 287.658 148.448 287.155 148.712 286.691C148.98 286.227 149.327 285.856 149.752 285.578C150.182 285.299 150.709 285.17 151.334 285.189C151.812 285.199 152.203 285.307 152.506 285.512C152.813 285.717 153.05 285.983 153.216 286.31C153.382 286.637 153.495 286.999 153.553 287.394C153.617 287.79 153.644 288.195 153.634 288.61C153.624 289.02 153.597 289.408 153.553 289.774ZM151.598 291.774L151.927 289.496C151.947 289.354 151.969 289.169 151.993 288.939C152.022 288.705 152.04 288.456 152.044 288.192C152.054 287.929 152.037 287.68 151.993 287.445C151.949 287.211 151.864 287.016 151.737 286.859C151.61 286.703 151.427 286.62 151.188 286.61C150.851 286.586 150.575 286.679 150.36 286.889C150.15 287.094 149.984 287.355 149.862 287.672C149.74 287.99 149.649 288.317 149.591 288.654C149.532 288.986 149.486 289.269 149.452 289.503L149.122 291.781C149.107 291.918 149.085 292.104 149.056 292.338C149.032 292.572 149.015 292.824 149.005 293.092C149 293.361 149.017 293.617 149.056 293.861C149.1 294.101 149.183 294.301 149.305 294.462C149.427 294.618 149.61 294.704 149.854 294.718C150.191 294.743 150.467 294.65 150.682 294.44C150.897 294.23 151.063 293.961 151.18 293.634C151.302 293.307 151.393 292.975 151.451 292.638C151.515 292.296 151.563 292.008 151.598 291.774ZM126.846 366.564L126.619 368H120.657L120.862 366.696L124.209 362.983C124.429 362.734 124.654 362.465 124.883 362.177C125.113 361.884 125.313 361.579 125.484 361.262C125.655 360.939 125.762 360.605 125.806 360.258C125.831 360.043 125.828 359.809 125.799 359.555C125.774 359.301 125.694 359.082 125.557 358.896C125.425 358.71 125.22 358.613 124.942 358.603C124.581 358.593 124.288 358.693 124.063 358.903C123.843 359.108 123.677 359.367 123.565 359.68C123.453 359.987 123.379 360.288 123.345 360.581L121.697 360.588C121.751 359.973 121.919 359.406 122.203 358.889C122.491 358.366 122.876 357.949 123.36 357.636C123.848 357.324 124.419 357.172 125.074 357.182C125.64 357.192 126.114 357.326 126.495 357.585C126.88 357.839 127.161 358.183 127.337 358.618C127.513 359.052 127.576 359.541 127.527 360.083C127.493 360.478 127.4 360.856 127.249 361.218C127.098 361.579 126.91 361.923 126.685 362.25C126.465 362.578 126.224 362.893 125.96 363.195C125.701 363.498 125.445 363.789 125.191 364.067L123.016 366.564H126.846ZM133.962 361.774L133.699 363.51C133.621 364.018 133.508 364.545 133.362 365.092C133.215 365.639 133.008 366.147 132.739 366.616C132.476 367.084 132.131 367.463 131.707 367.751C131.282 368.034 130.754 368.166 130.125 368.146C129.641 368.137 129.248 368.029 128.945 367.824C128.643 367.614 128.406 367.343 128.235 367.011C128.069 366.679 127.954 366.313 127.891 365.913C127.832 365.507 127.808 365.097 127.817 364.682C127.827 364.267 127.856 363.879 127.905 363.518L128.169 361.774C128.242 361.267 128.352 360.742 128.499 360.2C128.65 359.658 128.857 359.155 129.121 358.691C129.39 358.227 129.736 357.856 130.161 357.578C130.591 357.299 131.118 357.17 131.743 357.189C132.222 357.199 132.612 357.307 132.915 357.512C133.223 357.717 133.459 357.983 133.625 358.31C133.792 358.637 133.904 358.999 133.962 359.394C134.026 359.79 134.053 360.195 134.043 360.61C134.033 361.02 134.006 361.408 133.962 361.774ZM132.007 363.774L132.336 361.496C132.356 361.354 132.378 361.169 132.402 360.939C132.432 360.705 132.449 360.456 132.454 360.192C132.463 359.929 132.446 359.68 132.402 359.445C132.358 359.211 132.273 359.016 132.146 358.859C132.019 358.703 131.836 358.62 131.597 358.61C131.26 358.586 130.984 358.679 130.769 358.889C130.559 359.094 130.393 359.355 130.271 359.672C130.149 359.99 130.059 360.317 130 360.654C129.941 360.986 129.895 361.269 129.861 361.503L129.531 363.781C129.517 363.918 129.495 364.104 129.465 364.338C129.441 364.572 129.424 364.824 129.414 365.092C129.409 365.361 129.426 365.617 129.465 365.861C129.509 366.101 129.592 366.301 129.714 366.462C129.836 366.618 130.02 366.704 130.264 366.718C130.601 366.743 130.876 366.65 131.091 366.44C131.306 366.23 131.472 365.961 131.589 365.634C131.711 365.307 131.802 364.975 131.86 364.638C131.924 364.296 131.973 364.008 132.007 363.774ZM140.493 361.774L140.229 363.51C140.151 364.018 140.039 364.545 139.892 365.092C139.746 365.639 139.538 366.147 139.27 366.616C139.006 367.084 138.662 367.463 138.237 367.751C137.812 368.034 137.285 368.166 136.655 368.146C136.171 368.137 135.778 368.029 135.476 367.824C135.173 367.614 134.936 367.343 134.765 367.011C134.599 366.679 134.484 366.313 134.421 365.913C134.362 365.507 134.338 365.097 134.348 364.682C134.357 364.267 134.387 363.879 134.436 363.518L134.699 361.774C134.772 361.267 134.882 360.742 135.029 360.2C135.18 359.658 135.388 359.155 135.651 358.691C135.92 358.227 136.267 357.856 136.691 357.578C137.121 357.299 137.648 357.17 138.273 357.189C138.752 357.199 139.143 357.307 139.445 357.512C139.753 357.717 139.99 357.983 140.156 358.31C140.322 358.637 140.434 358.999 140.493 359.394C140.556 359.79 140.583 360.195 140.573 360.61C140.563 361.02 140.537 361.408 140.493 361.774ZM138.537 363.774L138.867 361.496C138.886 361.354 138.908 361.169 138.933 360.939C138.962 360.705 138.979 360.456 138.984 360.192C138.994 359.929 138.977 359.68 138.933 359.445C138.889 359.211 138.803 359.016 138.676 358.859C138.549 358.703 138.366 358.62 138.127 358.61C137.79 358.586 137.514 358.679 137.299 358.889C137.089 359.094 136.923 359.355 136.801 359.672C136.679 359.99 136.589 360.317 136.53 360.654C136.472 360.986 136.425 361.269 136.391 361.503L136.062 363.781C136.047 363.918 136.025 364.104 135.996 364.338C135.971 364.572 135.954 364.824 135.944 365.092C135.939 365.361 135.957 365.617 135.996 365.861C136.04 366.101 136.123 366.301 136.245 366.462C136.367 366.618 136.55 366.704 136.794 366.718C137.131 366.743 137.407 366.65 137.622 366.44C137.836 366.23 138.002 365.961 138.12 365.634C138.242 365.307 138.332 364.975 138.391 364.638C138.454 364.296 138.503 364.008 138.537 363.774ZM147.023 361.774L146.759 363.51C146.681 364.018 146.569 364.545 146.422 365.092C146.276 365.639 146.068 366.147 145.8 366.616C145.536 367.084 145.192 367.463 144.767 367.751C144.342 368.034 143.815 368.166 143.185 368.146C142.702 368.137 142.309 368.029 142.006 367.824C141.703 367.614 141.466 367.343 141.295 367.011C141.129 366.679 141.015 366.313 140.951 365.913C140.893 365.507 140.868 365.097 140.878 364.682C140.888 364.267 140.917 363.879 140.966 363.518L141.229 361.774C141.303 361.267 141.413 360.742 141.559 360.2C141.71 359.658 141.918 359.155 142.182 358.691C142.45 358.227 142.797 357.856 143.222 357.578C143.651 357.299 144.179 357.17 144.804 357.189C145.282 357.199 145.673 357.307 145.976 357.512C146.283 357.717 146.52 357.983 146.686 358.31C146.852 358.637 146.964 358.999 147.023 359.394C147.086 359.79 147.113 360.195 147.104 360.61C147.094 361.02 147.067 361.408 147.023 361.774ZM145.067 363.774L145.397 361.496C145.417 361.354 145.438 361.169 145.463 360.939C145.492 360.705 145.509 360.456 145.514 360.192C145.524 359.929 145.507 359.68 145.463 359.445C145.419 359.211 145.333 359.016 145.207 358.859C145.08 358.703 144.896 358.62 144.657 358.61C144.32 358.586 144.044 358.679 143.83 358.889C143.62 359.094 143.454 359.355 143.332 359.672C143.209 359.99 143.119 360.317 143.061 360.654C143.002 360.986 142.956 361.269 142.921 361.503L142.592 363.781C142.577 363.918 142.555 364.104 142.526 364.338C142.501 364.572 142.484 364.824 142.475 365.092C142.47 365.361 142.487 365.617 142.526 365.861C142.57 366.101 142.653 366.301 142.775 366.462C142.897 366.618 143.08 366.704 143.324 366.718C143.661 366.743 143.937 366.65 144.152 366.44C144.367 366.23 144.533 365.961 144.65 365.634C144.772 365.307 144.862 364.975 144.921 364.638C144.984 364.296 145.033 364.008 145.067 363.774ZM153.553 361.774L153.29 363.51C153.211 364.018 153.099 364.545 152.953 365.092C152.806 365.639 152.599 366.147 152.33 366.616C152.066 367.084 151.722 367.463 151.297 367.751C150.873 368.034 150.345 368.166 149.715 368.146C149.232 368.137 148.839 368.029 148.536 367.824C148.233 367.614 147.997 367.343 147.826 367.011C147.66 366.679 147.545 366.313 147.481 365.913C147.423 365.507 147.398 365.097 147.408 364.682C147.418 364.267 147.447 363.879 147.496 363.518L147.76 361.774C147.833 361.267 147.943 360.742 148.089 360.2C148.241 359.658 148.448 359.155 148.712 358.691C148.98 358.227 149.327 357.856 149.752 357.578C150.182 357.299 150.709 357.17 151.334 357.189C151.812 357.199 152.203 357.307 152.506 357.512C152.813 357.717 153.05 357.983 153.216 358.31C153.382 358.637 153.495 358.999 153.553 359.394C153.617 359.79 153.644 360.195 153.634 360.61C153.624 361.02 153.597 361.408 153.553 361.774ZM151.598 363.774L151.927 361.496C151.947 361.354 151.969 361.169 151.993 360.939C152.022 360.705 152.04 360.456 152.044 360.192C152.054 359.929 152.037 359.68 151.993 359.445C151.949 359.211 151.864 359.016 151.737 358.859C151.61 358.703 151.427 358.62 151.188 358.61C150.851 358.586 150.575 358.679 150.36 358.889C150.15 359.094 149.984 359.355 149.862 359.672C149.74 359.99 149.649 360.317 149.591 360.654C149.532 360.986 149.486 361.269 149.452 361.503L149.122 363.781C149.107 363.918 149.085 364.104 149.056 364.338C149.032 364.572 149.015 364.824 149.005 365.092C149 365.361 149.017 365.617 149.056 365.861C149.1 366.101 149.183 366.301 149.305 366.462C149.427 366.618 149.61 366.704 149.854 366.718C150.191 366.743 150.467 366.65 150.682 366.44C150.897 366.23 151.063 365.961 151.18 365.634C151.302 365.307 151.393 364.975 151.451 364.638C151.515 364.296 151.563 364.008 151.598 363.774ZM126.509 429.299L124.693 440H123.023L124.51 431.482L122.291 432.354L122.562 430.786L126.268 429.299H126.509ZM133.962 433.774L133.699 435.51C133.621 436.018 133.508 436.545 133.362 437.092C133.215 437.639 133.008 438.147 132.739 438.616C132.476 439.084 132.131 439.463 131.707 439.751C131.282 440.034 130.754 440.166 130.125 440.146C129.641 440.137 129.248 440.029 128.945 439.824C128.643 439.614 128.406 439.343 128.235 439.011C128.069 438.679 127.954 438.313 127.891 437.913C127.832 437.507 127.808 437.097 127.817 436.682C127.827 436.267 127.856 435.879 127.905 435.518L128.169 433.774C128.242 433.267 128.352 432.742 128.499 432.2C128.65 431.658 128.857 431.155 129.121 430.691C129.39 430.227 129.736 429.856 130.161 429.578C130.591 429.299 131.118 429.17 131.743 429.189C132.222 429.199 132.612 429.307 132.915 429.512C133.223 429.717 133.459 429.983 133.625 430.31C133.792 430.637 133.904 430.999 133.962 431.394C134.026 431.79 134.053 432.195 134.043 432.61C134.033 433.02 134.006 433.408 133.962 433.774ZM132.007 435.774L132.336 433.496C132.356 433.354 132.378 433.169 132.402 432.939C132.432 432.705 132.449 432.456 132.454 432.192C132.463 431.929 132.446 431.68 132.402 431.445C132.358 431.211 132.273 431.016 132.146 430.859C132.019 430.703 131.836 430.62 131.597 430.61C131.26 430.586 130.984 430.679 130.769 430.889C130.559 431.094 130.393 431.355 130.271 431.672C130.149 431.99 130.059 432.317 130 432.654C129.941 432.986 129.895 433.269 129.861 433.503L129.531 435.781C129.517 435.918 129.495 436.104 129.465 436.338C129.441 436.572 129.424 436.824 129.414 437.092C129.409 437.361 129.426 437.617 129.465 437.861C129.509 438.101 129.592 438.301 129.714 438.462C129.836 438.618 130.02 438.704 130.264 438.718C130.601 438.743 130.876 438.65 131.091 438.44C131.306 438.23 131.472 437.961 131.589 437.634C131.711 437.307 131.802 436.975 131.86 436.638C131.924 436.296 131.973 436.008 132.007 435.774ZM140.493 433.774L140.229 435.51C140.151 436.018 140.039 436.545 139.892 437.092C139.746 437.639 139.538 438.147 139.27 438.616C139.006 439.084 138.662 439.463 138.237 439.751C137.812 440.034 137.285 440.166 136.655 440.146C136.171 440.137 135.778 440.029 135.476 439.824C135.173 439.614 134.936 439.343 134.765 439.011C134.599 438.679 134.484 438.313 134.421 437.913C134.362 437.507 134.338 437.097 134.348 436.682C134.357 436.267 134.387 435.879 134.436 435.518L134.699 433.774C134.772 433.267 134.882 432.742 135.029 432.2C135.18 431.658 135.388 431.155 135.651 430.691C135.92 430.227 136.267 429.856 136.691 429.578C137.121 429.299 137.648 429.17 138.273 429.189C138.752 429.199 139.143 429.307 139.445 429.512C139.753 429.717 139.99 429.983 140.156 430.31C140.322 430.637 140.434 430.999 140.493 431.394C140.556 431.79 140.583 432.195 140.573 432.61C140.563 433.02 140.537 433.408 140.493 433.774ZM138.537 435.774L138.867 433.496C138.886 433.354 138.908 433.169 138.933 432.939C138.962 432.705 138.979 432.456 138.984 432.192C138.994 431.929 138.977 431.68 138.933 431.445C138.889 431.211 138.803 431.016 138.676 430.859C138.549 430.703 138.366 430.62 138.127 430.61C137.79 430.586 137.514 430.679 137.299 430.889C137.089 431.094 136.923 431.355 136.801 431.672C136.679 431.99 136.589 432.317 136.53 432.654C136.472 432.986 136.425 433.269 136.391 433.503L136.062 435.781C136.047 435.918 136.025 436.104 135.996 436.338C135.971 436.572 135.954 436.824 135.944 437.092C135.939 437.361 135.957 437.617 135.996 437.861C136.04 438.101 136.123 438.301 136.245 438.462C136.367 438.618 136.55 438.704 136.794 438.718C137.131 438.743 137.407 438.65 137.622 438.44C137.836 438.23 138.002 437.961 138.12 437.634C138.242 437.307 138.332 436.975 138.391 436.638C138.454 436.296 138.503 436.008 138.537 435.774ZM147.023 433.774L146.759 435.51C146.681 436.018 146.569 436.545 146.422 437.092C146.276 437.639 146.068 438.147 145.8 438.616C145.536 439.084 145.192 439.463 144.767 439.751C144.342 440.034 143.815 440.166 143.185 440.146C142.702 440.137 142.309 440.029 142.006 439.824C141.703 439.614 141.466 439.343 141.295 439.011C141.129 438.679 141.015 438.313 140.951 437.913C140.893 437.507 140.868 437.097 140.878 436.682C140.888 436.267 140.917 435.879 140.966 435.518L141.229 433.774C141.303 433.267 141.413 432.742 141.559 432.2C141.71 431.658 141.918 431.155 142.182 430.691C142.45 430.227 142.797 429.856 143.222 429.578C143.651 429.299 144.179 429.17 144.804 429.189C145.282 429.199 145.673 429.307 145.976 429.512C146.283 429.717 146.52 429.983 146.686 430.31C146.852 430.637 146.964 430.999 147.023 431.394C147.086 431.79 147.113 432.195 147.104 432.61C147.094 433.02 147.067 433.408 147.023 433.774ZM145.067 435.774L145.397 433.496C145.417 433.354 145.438 433.169 145.463 432.939C145.492 432.705 145.509 432.456 145.514 432.192C145.524 431.929 145.507 431.68 145.463 431.445C145.419 431.211 145.333 431.016 145.207 430.859C145.08 430.703 144.896 430.62 144.657 430.61C144.32 430.586 144.044 430.679 143.83 430.889C143.62 431.094 143.454 431.355 143.332 431.672C143.209 431.99 143.119 432.317 143.061 432.654C143.002 432.986 142.956 433.269 142.921 433.503L142.592 435.781C142.577 435.918 142.555 436.104 142.526 436.338C142.501 436.572 142.484 436.824 142.475 437.092C142.47 437.361 142.487 437.617 142.526 437.861C142.57 438.101 142.653 438.301 142.775 438.462C142.897 438.618 143.08 438.704 143.324 438.718C143.661 438.743 143.937 438.65 144.152 438.44C144.367 438.23 144.533 437.961 144.65 437.634C144.772 437.307 144.862 436.975 144.921 436.638C144.984 436.296 145.033 436.008 145.067 435.774ZM153.553 433.774L153.29 435.51C153.211 436.018 153.099 436.545 152.953 437.092C152.806 437.639 152.599 438.147 152.33 438.616C152.066 439.084 151.722 439.463 151.297 439.751C150.873 440.034 150.345 440.166 149.715 440.146C149.232 440.137 148.839 440.029 148.536 439.824C148.233 439.614 147.997 439.343 147.826 439.011C147.66 438.679 147.545 438.313 147.481 437.913C147.423 437.507 147.398 437.097 147.408 436.682C147.418 436.267 147.447 435.879 147.496 435.518L147.76 433.774C147.833 433.267 147.943 432.742 148.089 432.2C148.241 431.658 148.448 431.155 148.712 430.691C148.98 430.227 149.327 429.856 149.752 429.578C150.182 429.299 150.709 429.17 151.334 429.189C151.812 429.199 152.203 429.307 152.506 429.512C152.813 429.717 153.05 429.983 153.216 430.31C153.382 430.637 153.495 430.999 153.553 431.394C153.617 431.79 153.644 432.195 153.634 432.61C153.624 433.02 153.597 433.408 153.553 433.774ZM151.598 435.774L151.927 433.496C151.947 433.354 151.969 433.169 151.993 432.939C152.022 432.705 152.04 432.456 152.044 432.192C152.054 431.929 152.037 431.68 151.993 431.445C151.949 431.211 151.864 431.016 151.737 430.859C151.61 430.703 151.427 430.62 151.188 430.61C150.851 430.586 150.575 430.679 150.36 430.889C150.15 431.094 149.984 431.355 149.862 431.672C149.74 431.99 149.649 432.317 149.591 432.654C149.532 432.986 149.486 433.269 149.452 433.503L149.122 435.781C149.107 435.918 149.085 436.104 149.056 436.338C149.032 436.572 149.015 436.824 149.005 437.092C149 437.361 149.017 437.617 149.056 437.861C149.1 438.101 149.183 438.301 149.305 438.462C149.427 438.618 149.61 438.704 149.854 438.718C150.191 438.743 150.467 438.65 150.682 438.44C150.897 438.23 151.063 437.961 151.18 437.634C151.302 437.307 151.393 436.975 151.451 436.638C151.515 436.296 151.563 436.008 151.598 435.774ZM153.553 505.774L153.29 507.51C153.211 508.018 153.099 508.545 152.953 509.092C152.806 509.639 152.599 510.147 152.33 510.616C152.066 511.084 151.722 511.463 151.297 511.751C150.873 512.034 150.345 512.166 149.715 512.146C149.232 512.137 148.839 512.029 148.536 511.824C148.233 511.614 147.997 511.343 147.826 511.011C147.66 510.679 147.545 510.313 147.481 509.913C147.423 509.507 147.398 509.097 147.408 508.682C147.418 508.267 147.447 507.879 147.496 507.518L147.76 505.774C147.833 505.267 147.943 504.742 148.089 504.2C148.241 503.658 148.448 503.155 148.712 502.691C148.98 502.227 149.327 501.856 149.752 501.578C150.182 501.299 150.709 501.17 151.334 501.189C151.812 501.199 152.203 501.307 152.506 501.512C152.813 501.717 153.05 501.983 153.216 502.31C153.382 502.637 153.495 502.999 153.553 503.394C153.617 503.79 153.644 504.195 153.634 504.61C153.624 505.02 153.597 505.408 153.553 505.774ZM151.598 507.774L151.927 505.496C151.947 505.354 151.969 505.169 151.993 504.939C152.022 504.705 152.04 504.456 152.044 504.192C152.054 503.929 152.037 503.68 151.993 503.445C151.949 503.211 151.864 503.016 151.737 502.859C151.61 502.703 151.427 502.62 151.188 502.61C150.851 502.586 150.575 502.679 150.36 502.889C150.15 503.094 149.984 503.355 149.862 503.672C149.74 503.99 149.649 504.317 149.591 504.654C149.532 504.986 149.486 505.269 149.452 505.503L149.122 507.781C149.107 507.918 149.085 508.104 149.056 508.338C149.032 508.572 149.015 508.824 149.005 509.092C149 509.361 149.017 509.617 149.056 509.861C149.1 510.101 149.183 510.301 149.305 510.462C149.427 510.618 149.61 510.704 149.854 510.718C150.191 510.743 150.467 510.65 150.682 510.44C150.897 510.23 151.063 509.961 151.18 509.634C151.302 509.307 151.393 508.975 151.451 508.638C151.515 508.296 151.563 508.008 151.598 507.774Z" fill="black"/>
<path d="M170.5 443.5L187 398.5H262L302 323.5H371L411.5 362L485 373.5L524 273L600.5 264.5L640.5 196.5L713.5 188L757.5 196.5H831L870 173L959 149V507.5V514H170.5V443.5Z" fill="#EE6D6D" stroke="black"/>
</svg>
