<svg width="191" height="30" viewBox="0 0 191 30" fill="none" xmlns="http://www.w3.org/2000/svg">
<path d="M5.55176 1.67188H8.52539L10.3125 17.9609L17.7246 1.67188H20.918L10.7666 23H8.30566L5.55176 1.67188ZM4.10156 1.67188H7.0166L5.05371 16.1885L3.86719 23H0.395508L4.10156 1.67188ZM19.3213 1.67188H22.2656L18.5742 23H15.1025L16.3477 15.8662L19.3213 1.67188ZM21.4688 15.7197L21.6299 14.46C21.7471 13.4834 21.9814 12.541 22.333 11.6328C22.6846 10.7148 23.1533 9.88965 23.7393 9.15723C24.335 8.4248 25.0479 7.85352 25.8779 7.44336C26.7178 7.02344 27.6846 6.82812 28.7783 6.85742C29.833 6.87695 30.707 7.11133 31.4004 7.56055C32.0938 8.00977 32.6357 8.60059 33.0264 9.33301C33.417 10.0654 33.6709 10.876 33.7881 11.7646C33.9053 12.6436 33.9199 13.5371 33.832 14.4453L33.6709 15.7197C33.5537 16.6865 33.3193 17.6289 32.9678 18.5469C32.6162 19.4648 32.1426 20.2852 31.5469 21.0078C30.9609 21.7305 30.248 22.3018 29.4082 22.7217C28.5781 23.1318 27.6162 23.3223 26.5225 23.293C25.458 23.2734 24.5791 23.0391 23.8857 22.5898C23.2021 22.1406 22.665 21.5547 22.2744 20.832C21.8936 20.0996 21.6396 19.2891 21.5127 18.4004C21.3955 17.5117 21.3809 16.6182 21.4688 15.7197ZM24.9697 14.4453L24.8232 15.749C24.7842 16.1396 24.7549 16.5986 24.7354 17.126C24.7256 17.6436 24.7744 18.1562 24.8818 18.6641C24.999 19.1621 25.2041 19.5771 25.4971 19.9092C25.7998 20.2412 26.2295 20.417 26.7861 20.4365C27.4209 20.4756 27.9531 20.3486 28.3828 20.0557C28.8223 19.7529 29.1738 19.3574 29.4375 18.8691C29.7012 18.3809 29.9014 17.8584 30.0381 17.3018C30.1846 16.7451 30.292 16.2129 30.3604 15.7051L30.5068 14.4307C30.5361 14.04 30.5557 13.5811 30.5654 13.0537C30.5752 12.5264 30.5215 12.0137 30.4043 11.5156C30.2969 11.0176 30.0967 10.6025 29.8037 10.2705C29.5107 9.92871 29.0811 9.74316 28.5146 9.71387C27.9092 9.6748 27.3916 9.81152 26.9619 10.124C26.542 10.4268 26.1953 10.8223 25.9219 11.3105C25.6484 11.7988 25.4336 12.3262 25.2773 12.8926C25.1309 13.4492 25.0283 13.9668 24.9697 14.4453ZM39.1143 10.7246L36.9902 23H33.6357L36.3896 7.15039H39.5244L39.1143 10.7246ZM37.8984 14.5332L36.9756 14.5479C37.0732 13.708 37.249 12.834 37.5029 11.9258C37.7568 11.0176 38.1182 10.1729 38.5869 9.3916C39.0557 8.61035 39.6514 7.98535 40.374 7.5166C41.0967 7.03809 41.9707 6.81348 42.9961 6.84277C43.8066 6.87207 44.4512 7.07227 44.9297 7.44336C45.4082 7.80469 45.7598 8.2832 45.9844 8.87891C46.209 9.46484 46.3359 10.0996 46.3652 10.7832C46.4043 11.457 46.3896 12.1211 46.3213 12.7754L44.6221 23H41.2969L42.9961 12.7314C43.0352 12.292 43.0449 11.8477 43.0254 11.3984C43.0059 10.9395 42.8789 10.5537 42.6445 10.2412C42.4199 9.91895 42.0293 9.75293 41.4727 9.74316C40.877 9.71387 40.3643 9.86035 39.9346 10.1826C39.5146 10.5049 39.168 10.9199 38.8945 11.4277C38.6211 11.9258 38.4062 12.4531 38.25 13.0098C38.0938 13.5566 37.9766 14.0645 37.8984 14.5332ZM55.4121 7.15039L54.9434 9.78711H47.3848L47.8535 7.15039H55.4121ZM50.5781 3.26855H53.9033L51.2959 18.6201C51.2666 18.874 51.252 19.1328 51.252 19.3965C51.2617 19.6504 51.3252 19.8652 51.4424 20.041C51.5596 20.207 51.7793 20.2949 52.1016 20.3047C52.2676 20.3047 52.4336 20.2949 52.5996 20.2754C52.7754 20.2461 52.9463 20.2168 53.1123 20.1875L52.834 22.9561C52.5312 23.0732 52.2188 23.1562 51.8965 23.2051C51.5742 23.2539 51.2471 23.2734 50.915 23.2637C50.0752 23.2539 49.4307 23.0293 48.9814 22.5898C48.542 22.1504 48.2441 21.5938 48.0879 20.9199C47.9414 20.2363 47.9023 19.5332 47.9707 18.8105L50.5781 3.26855ZM60.8994 0.5L57.0029 23H53.6631L57.5742 0.5H60.8994ZM57.9404 14.5332H56.9736C57.0615 13.7227 57.2324 12.8682 57.4863 11.9697C57.75 11.0615 58.1113 10.2168 58.5703 9.43555C59.0293 8.64453 59.6152 8.00977 60.3281 7.53125C61.041 7.04297 61.9004 6.81836 62.9062 6.85742C63.7168 6.87695 64.3662 7.07227 64.8545 7.44336C65.3525 7.80469 65.7188 8.27832 65.9531 8.86426C66.1973 9.4502 66.3438 10.0898 66.3926 10.7832C66.4414 11.4668 66.4268 12.1455 66.3486 12.8193L64.6494 23H61.3242L63.0234 12.7754C63.0625 12.3359 63.0723 11.8867 63.0527 11.4277C63.0332 10.959 62.9111 10.5635 62.6865 10.2412C62.4619 9.91895 62.0664 9.75293 61.5 9.74316C60.8945 9.71387 60.377 9.86035 59.9473 10.1826C59.5176 10.4951 59.166 10.9004 58.8926 11.3984C58.6289 11.8965 58.4189 12.4238 58.2627 12.9805C58.1064 13.5371 57.999 14.0547 57.9404 14.5332ZM73.8574 0.5L69.9463 23H66.6211L70.5322 0.5H73.8574ZM75.9756 21.0811L81.6592 7.15039H85.292L77.1182 25.417C76.8936 25.9248 76.6396 26.418 76.3564 26.8965C76.0732 27.375 75.7412 27.8047 75.3604 28.1855C74.9893 28.5762 74.5596 28.8838 74.0713 29.1084C73.5928 29.3428 73.0508 29.4551 72.4453 29.4453C72.1719 29.4453 71.9033 29.416 71.6396 29.3574C71.376 29.2988 71.1074 29.2305 70.834 29.1523L71.127 26.4131C71.2148 26.4326 71.3027 26.4473 71.3906 26.457C71.4688 26.4668 71.5469 26.4766 71.625 26.4863C72.1328 26.4961 72.5674 26.4131 72.9287 26.2373C73.29 26.0615 73.5928 25.8076 73.8369 25.4756C74.0908 25.1533 74.3105 24.7773 74.4961 24.3477L75.9756 21.0811ZM76.957 7.15039L77.6162 19.1182L77.543 22.8096L75.2432 23.3955L73.4707 7.15039H76.957ZM98.5518 17.375C98.6201 16.877 98.6006 16.4473 98.4932 16.0859C98.3955 15.7148 98.2246 15.3926 97.9805 15.1191C97.7363 14.8457 97.4385 14.6016 97.0869 14.3867C96.7451 14.1719 96.3643 13.9668 95.9443 13.7715C95.251 13.459 94.6016 13.1074 93.9961 12.7168C93.4004 12.3164 92.8779 11.8623 92.4287 11.3545C91.9795 10.8467 91.6377 10.2656 91.4033 9.61133C91.1787 8.95703 91.0957 8.21484 91.1543 7.38477C91.2324 6.4668 91.4668 5.63672 91.8574 4.89453C92.2578 4.14258 92.7754 3.50293 93.4102 2.97559C94.0547 2.43848 94.7822 2.0332 95.5928 1.75977C96.4033 1.48633 97.2578 1.35938 98.1562 1.37891C99.4062 1.4082 100.456 1.7207 101.306 2.31641C102.155 2.90234 102.785 3.68359 103.195 4.66016C103.615 5.63672 103.791 6.71582 103.723 7.89746H100.266C100.305 7.32129 100.266 6.75977 100.148 6.21289C100.041 5.66602 99.8066 5.22168 99.4453 4.87988C99.084 4.53809 98.5615 4.35742 97.8779 4.33789C97.2725 4.32812 96.7354 4.45508 96.2666 4.71875C95.7979 4.98242 95.4219 5.34863 95.1387 5.81738C94.8555 6.27637 94.6748 6.79883 94.5967 7.38477C94.5381 7.82422 94.5771 8.21484 94.7139 8.55664C94.8604 8.89844 95.0605 9.20117 95.3145 9.46484C95.5781 9.72852 95.8809 9.96289 96.2227 10.168C96.5645 10.373 96.9111 10.5537 97.2627 10.71C98.0049 11.0518 98.6787 11.4229 99.2842 11.8232C99.8994 12.2236 100.422 12.6875 100.852 13.2148C101.291 13.7324 101.608 14.333 101.804 15.0166C102.009 15.6904 102.077 16.4717 102.009 17.3604C101.921 18.2979 101.682 19.1377 101.291 19.8799C100.91 20.6221 100.402 21.252 99.7676 21.7695C99.1426 22.2871 98.4199 22.6777 97.5996 22.9414C96.7891 23.2051 95.9248 23.3223 95.0068 23.293C94.0303 23.2734 93.1562 23.0928 92.3848 22.751C91.6133 22.3994 90.9639 21.916 90.4365 21.3008C89.9189 20.6855 89.5332 19.9727 89.2793 19.1621C89.0254 18.3418 88.9229 17.458 88.9717 16.5107L92.4434 16.5254C92.4043 17.0332 92.4189 17.5215 92.4873 17.9902C92.5557 18.4492 92.6973 18.8545 92.9121 19.2061C93.127 19.5479 93.4248 19.8213 93.8057 20.0264C94.1865 20.2314 94.6699 20.3389 95.2559 20.3486C95.8711 20.3584 96.4082 20.2412 96.8672 19.9971C97.3359 19.7432 97.7119 19.3916 97.9951 18.9424C98.2881 18.4932 98.4736 17.9707 98.5518 17.375ZM110.045 19.7773L111.305 11.8379C111.344 11.457 111.334 11.1006 111.275 10.7686C111.227 10.4268 111.09 10.1484 110.865 9.93359C110.65 9.71875 110.318 9.60645 109.869 9.59668C109.43 9.58691 109.054 9.67969 108.741 9.875C108.429 10.0605 108.175 10.3193 107.979 10.6514C107.794 10.9736 107.667 11.3301 107.599 11.7207L104.273 11.75C104.332 10.9883 104.532 10.3047 104.874 9.69922C105.226 9.08398 105.675 8.56152 106.222 8.13184C106.769 7.70215 107.379 7.37988 108.053 7.16504C108.736 6.94043 109.444 6.83301 110.177 6.84277C111.202 6.85254 112.066 7.07227 112.77 7.50195C113.473 7.92188 113.985 8.50781 114.308 9.25977C114.63 10.0117 114.737 10.9004 114.63 11.9258L113.429 19.3379C113.341 19.9043 113.282 20.4756 113.253 21.0518C113.233 21.6182 113.282 22.1846 113.399 22.751L113.385 23L110.104 23.0146C109.967 22.4873 109.903 21.9502 109.913 21.4033C109.923 20.8564 109.967 20.3145 110.045 19.7773ZM111.598 13.3467L111.231 15.5586L109.796 15.5439C109.347 15.5439 108.917 15.6074 108.507 15.7344C108.106 15.8613 107.735 16.0469 107.394 16.291C107.062 16.5352 106.788 16.833 106.573 17.1846C106.368 17.5361 106.236 17.9512 106.178 18.4297C106.129 18.7812 106.134 19.1133 106.192 19.4258C106.261 19.7383 106.397 19.9922 106.603 20.1875C106.817 20.3828 107.135 20.4854 107.555 20.4951C107.994 20.4951 108.419 20.4023 108.829 20.2168C109.239 20.0215 109.586 19.7578 109.869 19.4258C110.162 19.0938 110.348 18.708 110.426 18.2686L110.997 19.7188C110.851 20.1973 110.646 20.6562 110.382 21.0957C110.128 21.5254 109.815 21.9111 109.444 22.2529C109.083 22.585 108.673 22.8486 108.214 23.0439C107.755 23.2393 107.257 23.332 106.72 23.3223C105.841 23.3125 105.099 23.1025 104.493 22.6924C103.888 22.2725 103.434 21.7207 103.131 21.0371C102.838 20.3438 102.716 19.5771 102.765 18.7373C102.813 17.8096 103.033 17.0039 103.424 16.3203C103.814 15.6367 104.322 15.0752 104.947 14.6357C105.572 14.1865 106.28 13.8594 107.071 13.6543C107.862 13.4395 108.692 13.332 109.562 13.332L111.598 13.3467ZM122.08 0.5L118.169 23H114.844L118.755 0.5H122.08ZM126.278 23.293C125.233 23.2734 124.35 23.0684 123.627 22.6777C122.904 22.2871 122.333 21.7549 121.913 21.0811C121.503 20.4072 121.225 19.6455 121.078 18.7959C120.932 17.9463 120.907 17.043 121.005 16.0859L121.195 14.5625C121.312 13.5859 121.537 12.6338 121.869 11.7061C122.211 10.7686 122.665 9.92871 123.231 9.18652C123.798 8.44434 124.491 7.86328 125.312 7.44336C126.142 7.02344 127.113 6.82324 128.227 6.84277C129.301 6.87207 130.165 7.11621 130.819 7.5752C131.483 8.02441 131.972 8.61523 132.284 9.34766C132.606 10.0801 132.797 10.8906 132.855 11.7793C132.924 12.668 132.904 13.5566 132.797 14.4453L132.548 16.1592H122.543L122.997 13.5811L129.604 13.5957L129.662 13.2002C129.74 12.7021 129.76 12.1895 129.721 11.6621C129.691 11.1348 129.545 10.6855 129.281 10.3145C129.018 9.94336 128.573 9.73828 127.948 9.69922C127.294 9.66992 126.757 9.80664 126.337 10.1094C125.917 10.4121 125.585 10.8174 125.341 11.3252C125.097 11.833 124.916 12.375 124.799 12.9512C124.682 13.5176 124.594 14.0547 124.535 14.5625L124.345 16.1006C124.286 16.5889 124.262 17.082 124.271 17.5801C124.291 18.0781 124.369 18.542 124.506 18.9717C124.652 19.3916 124.892 19.7383 125.224 20.0117C125.565 20.2754 126.044 20.4121 126.659 20.4219C127.382 20.4414 128.041 20.3047 128.637 20.0117C129.232 19.709 129.779 19.3184 130.277 18.8398L131.581 20.9492C131.171 21.4961 130.678 21.9453 130.102 22.2969C129.535 22.6484 128.92 22.9023 128.256 23.0586C127.602 23.2246 126.942 23.3027 126.278 23.293ZM150.202 20.1289L149.748 23H137.824L138.234 20.3926L144.929 12.9658C145.368 12.4678 145.817 11.9307 146.276 11.3545C146.735 10.7686 147.136 10.1582 147.478 9.52344C147.819 8.87891 148.034 8.20996 148.122 7.5166C148.171 7.08691 148.166 6.61816 148.107 6.11035C148.059 5.60254 147.897 5.16309 147.624 4.79199C147.36 4.4209 146.95 4.22559 146.394 4.20605C145.671 4.18652 145.085 4.38672 144.636 4.80664C144.196 5.2168 143.864 5.73437 143.64 6.35938C143.415 6.97461 143.269 7.5752 143.2 8.16113L139.904 8.17578C140.012 6.94531 140.349 5.8125 140.915 4.77734C141.491 3.73242 142.263 2.89746 143.229 2.27246C144.206 1.64746 145.349 1.34473 146.657 1.36426C147.79 1.38379 148.737 1.65234 149.499 2.16992C150.271 2.67773 150.832 3.36621 151.184 4.23535C151.535 5.10449 151.662 6.08105 151.564 7.16504C151.496 7.95605 151.311 8.71289 151.008 9.43555C150.705 10.1582 150.329 10.8467 149.88 11.501C149.44 12.1553 148.957 12.7852 148.43 13.3906C147.912 13.9961 147.399 14.5771 146.892 15.1338L142.541 20.1289H150.202ZM164.435 10.5488L163.907 14.0205C163.751 15.0361 163.526 16.0908 163.233 17.1846C162.94 18.2783 162.525 19.2939 161.988 20.2314C161.461 21.1689 160.772 21.9258 159.923 22.502C159.073 23.0684 158.019 23.332 156.759 23.293C155.792 23.2734 155.006 23.0586 154.4 22.6484C153.795 22.2285 153.321 21.6865 152.979 21.0225C152.647 20.3584 152.418 19.626 152.291 18.8252C152.174 18.0146 152.125 17.1943 152.145 16.3643C152.164 15.5342 152.223 14.7578 152.32 14.0352L152.848 10.5488C152.994 9.5332 153.214 8.4834 153.507 7.39941C153.81 6.31543 154.225 5.30957 154.752 4.38184C155.289 3.4541 155.982 2.71191 156.832 2.15527C157.691 1.59863 158.746 1.33984 159.996 1.37891C160.953 1.39844 161.734 1.61328 162.34 2.02344C162.955 2.43359 163.429 2.96582 163.761 3.62012C164.093 4.27441 164.317 4.99707 164.435 5.78809C164.562 6.5791 164.615 7.38965 164.596 8.21973C164.576 9.04004 164.522 9.81641 164.435 10.5488ZM160.523 14.5479L161.183 9.99219C161.222 9.70898 161.266 9.33789 161.314 8.87891C161.373 8.41016 161.407 7.91211 161.417 7.38477C161.437 6.85742 161.402 6.35938 161.314 5.89062C161.227 5.42188 161.056 5.03125 160.802 4.71875C160.548 4.40625 160.182 4.24023 159.703 4.2207C159.029 4.17188 158.478 4.35742 158.048 4.77734C157.628 5.1875 157.296 5.70996 157.052 6.34473C156.808 6.97949 156.627 7.63379 156.51 8.30762C156.393 8.97168 156.3 9.53809 156.231 10.0068L155.572 14.5625C155.543 14.8359 155.499 15.207 155.44 15.6758C155.392 16.1445 155.357 16.6475 155.338 17.1846C155.328 17.7217 155.362 18.2344 155.44 18.7227C155.528 19.2012 155.694 19.6016 155.938 19.9238C156.183 20.2363 156.549 20.4072 157.037 20.4365C157.711 20.4854 158.263 20.2998 158.692 19.8799C159.122 19.46 159.454 18.9229 159.688 18.2686C159.933 17.6143 160.113 16.9502 160.23 16.2764C160.357 15.5928 160.455 15.0166 160.523 14.5479ZM176.323 20.1289L175.869 23H163.945L164.355 20.3926L171.05 12.9658C171.489 12.4678 171.938 11.9307 172.397 11.3545C172.856 10.7686 173.257 10.1582 173.599 9.52344C173.94 8.87891 174.155 8.20996 174.243 7.5166C174.292 7.08691 174.287 6.61816 174.229 6.11035C174.18 5.60254 174.019 5.16309 173.745 4.79199C173.481 4.4209 173.071 4.22559 172.515 4.20605C171.792 4.18652 171.206 4.38672 170.757 4.80664C170.317 5.2168 169.985 5.73437 169.761 6.35938C169.536 6.97461 169.39 7.5752 169.321 8.16113L166.025 8.17578C166.133 6.94531 166.47 5.8125 167.036 4.77734C167.612 3.73242 168.384 2.89746 169.351 2.27246C170.327 1.64746 171.47 1.34473 172.778 1.36426C173.911 1.38379 174.858 1.65234 175.62 2.16992C176.392 2.67773 176.953 3.36621 177.305 4.23535C177.656 5.10449 177.783 6.08105 177.686 7.16504C177.617 7.95605 177.432 8.71289 177.129 9.43555C176.826 10.1582 176.45 10.8467 176.001 11.501C175.562 12.1553 175.078 12.7852 174.551 13.3906C174.033 13.9961 173.521 14.5771 173.013 15.1338L168.662 20.1289H176.323ZM190.321 15.3535L189.823 18.2246H177.167L177.46 15.8809L187.172 1.67188H189.999L186.322 7.15039L181.049 15.3535H190.321ZM190.673 1.67188L186.981 23H183.642L187.348 1.67188H190.673Z" fill="black"/>
</svg>
