<svg width="276" height="50" viewBox="0 0 276 50" fill="none" xmlns="http://www.w3.org/2000/svg">
<path d="M34.3721 22.3081L33.2295 29.957C32.8275 32.5596 32.161 35.0669 31.23 37.479C30.299 39.87 29.0612 41.9858 27.5166 43.8267C25.972 45.6675 24.0994 47.1169 21.8989 48.1748C19.6984 49.2116 17.1488 49.6982 14.25 49.6348C11.4782 49.5713 9.1613 48.9788 7.29932 47.8574C5.4585 46.736 4.01969 45.2443 2.98291 43.3823C1.94613 41.5203 1.26904 39.4362 0.95166 37.1299C0.655436 34.8024 0.655436 32.4326 0.95166 30.0205L2.09424 22.3398C2.49626 19.7161 3.16276 17.1982 4.09375 14.7861C5.02474 12.3529 6.26253 10.1735 7.80713 8.24805C9.37288 6.32259 11.2666 4.80973 13.4883 3.70947C15.71 2.58805 18.2913 2.06966 21.2324 2.1543C24.0465 2.21777 26.374 2.84196 28.2148 4.02686C30.0557 5.21175 31.4839 6.77751 32.4995 8.72412C33.5151 10.6496 34.1605 12.7972 34.4355 15.167C34.7106 17.5156 34.6895 19.896 34.3721 22.3081ZM24.2476 30.0205L25.3584 22.1812C25.5065 21.1021 25.6123 19.8854 25.6758 18.5312C25.7604 17.1559 25.6864 15.8229 25.4536 14.5322C25.2209 13.2204 24.7342 12.1307 23.9937 11.2632C23.2531 10.3957 22.1105 9.93018 20.5659 9.8667C18.8732 9.78206 17.4556 10.1206 16.313 10.8823C15.1916 11.644 14.2817 12.6702 13.5835 13.9609C12.8853 15.2305 12.3457 16.5952 11.9648 18.0552C11.6051 19.5151 11.3195 20.9116 11.1079 22.2446L10.0288 30.0522C9.8807 31.1525 9.7749 32.3691 9.71143 33.7021C9.64795 35.0352 9.74316 36.3258 9.99707 37.5742C10.2721 38.8014 10.7799 39.8276 11.5205 40.6528C12.2822 41.4569 13.4354 41.8906 14.98 41.9541C16.6092 42.0387 17.974 41.7214 19.0742 41.002C20.1745 40.2614 21.0737 39.2881 21.772 38.082C22.4702 36.876 23.0098 35.5641 23.3906 34.1465C23.7715 32.7077 24.0571 31.3324 24.2476 30.0205ZM45.9121 22.7842L41.3735 49H32.709L38.6758 14.6592H46.8643L45.9121 22.7842ZM55.021 14.3735L53.8467 23.2285C53.3812 23.1227 52.9051 23.0487 52.4185 23.0063C51.953 22.9429 51.498 22.9111 51.0537 22.9111C49.9323 22.89 48.9696 23.0698 48.1655 23.4507C47.3826 23.8315 46.7267 24.3711 46.1978 25.0693C45.6688 25.7464 45.2244 26.5187 44.8647 27.3862C44.5262 28.2537 44.2617 29.153 44.0713 30.084L42.5479 29.4492C42.7171 28.1162 42.9816 26.561 43.3413 24.7837C43.7222 23.0063 44.2617 21.2925 44.96 19.6421C45.6794 17.9917 46.6315 16.627 47.8164 15.5479C49.0013 14.4688 50.493 13.9292 52.2915 13.9292C52.7782 13.9504 53.2331 14.0033 53.6562 14.0879C54.1006 14.1725 54.5555 14.2677 55.021 14.3735ZM67.2593 41.002L74.3052 0.25H83.0015L74.5591 49L66.7197 49.0317L67.2593 41.002ZM51.3584 33.0356L51.6123 30.814C51.8662 28.952 52.2576 27.0265 52.7866 25.0376C53.3156 23.0275 54.0773 21.1761 55.0718 19.4834C56.0874 17.7695 57.3781 16.4154 58.9438 15.4209C60.5096 14.4053 62.4456 13.9398 64.752 14.0244C66.6351 14.0879 68.1479 14.6909 69.2905 15.8335C70.4331 16.9761 71.2795 18.4043 71.8296 20.1182C72.3797 21.832 72.7183 23.6094 72.8452 25.4502C72.9933 27.2699 73.0251 28.9097 72.9404 30.3696L72.5278 33.6704C72.2316 35.215 71.7767 36.9183 71.1631 38.7803C70.5706 40.6423 69.7666 42.409 68.751 44.0806C67.7354 45.7521 66.5081 47.1169 65.0693 48.1748C63.6517 49.2327 61.9696 49.73 60.0229 49.6665C57.8436 49.6242 56.1297 49.0635 54.8813 47.9844C53.633 46.8841 52.7231 45.4876 52.1519 43.7949C51.6017 42.1022 51.2843 40.3037 51.1997 38.3994C51.1362 36.4951 51.1891 34.7072 51.3584 33.0356ZM60.3721 30.7505L60.1499 33.0991C60.0864 33.8185 60.0018 34.686 59.896 35.7017C59.8114 36.6961 59.8219 37.6906 59.9277 38.6851C60.0547 39.6795 60.3615 40.5153 60.8481 41.1924C61.356 41.8483 62.1494 42.1868 63.2285 42.208C64.5404 42.2503 65.6195 41.9012 66.4658 41.1606C67.3122 40.4201 67.9681 39.4997 68.4336 38.3994C68.8991 37.278 69.2165 36.1672 69.3857 35.0669L70.2109 29.0049C70.2744 28.2855 70.285 27.5026 70.2427 26.6562C70.2215 25.8099 70.1051 24.9953 69.8936 24.2124C69.7031 23.4295 69.3328 22.7842 68.7827 22.2764C68.2537 21.7686 67.5132 21.4935 66.561 21.4512C65.3338 21.3454 64.3288 21.5993 63.5459 22.2129C62.7842 22.8053 62.1917 23.5988 61.7686 24.5933C61.3454 25.5877 61.028 26.6351 60.8164 27.7354C60.6048 28.8356 60.4567 29.8407 60.3721 30.7505ZM91.6851 49.6348C89.3999 49.5924 87.4427 49.1481 85.8135 48.3018C84.1842 47.4554 82.883 46.3022 81.9097 44.8423C80.9364 43.3612 80.2699 41.6896 79.9102 39.8276C79.5505 37.9445 79.4764 35.9344 79.688 33.7974L80.0054 30.9727C80.3016 28.7721 80.82 26.6457 81.5605 24.5933C82.3011 22.5409 83.2956 20.7106 84.5439 19.1025C85.8135 17.4733 87.3687 16.2038 89.2095 15.2939C91.0503 14.3841 93.2085 13.9504 95.6841 13.9927C98.0539 14.0562 99.9688 14.5851 101.429 15.5796C102.91 16.5529 104.021 17.8436 104.761 19.4517C105.523 21.0597 105.988 22.8477 106.158 24.8154C106.327 26.762 106.285 28.7298 106.031 30.7188L105.459 34.7812H83.084L84.1948 28.5288L97.7471 28.5605L97.9058 27.6719C98.0539 26.7832 98.1068 25.8628 98.0645 24.9106C98.0221 23.9373 97.7682 23.1227 97.3027 22.4668C96.8372 21.7897 96.0332 21.4194 94.8906 21.356C93.6423 21.2925 92.6266 21.5781 91.8438 22.2129C91.082 22.8265 90.4896 23.6411 90.0664 24.6567C89.6432 25.6724 89.3364 26.7409 89.146 27.8623C88.9767 28.9626 88.8392 29.9993 88.7334 30.9727L88.3843 33.8291C88.2785 34.7812 88.2362 35.744 88.2573 36.7173C88.2785 37.6694 88.4054 38.5581 88.6382 39.3833C88.8921 40.2085 89.3364 40.8856 89.9712 41.4146C90.6271 41.9435 91.5581 42.2186 92.7642 42.2397C94.2453 42.2821 95.61 42.007 96.8584 41.4146C98.1279 40.8221 99.3128 40.0604 100.413 39.1294L103.365 44.5566C102.476 45.7415 101.397 46.7254 100.127 47.5083C98.8579 48.27 97.4826 48.8201 96.0015 49.1587C94.5415 49.4972 93.1027 49.6559 91.6851 49.6348ZM117.92 22.7842L113.381 49H104.717L110.684 14.6592H118.872L117.92 22.7842ZM127.029 14.3735L125.854 23.2285C125.389 23.1227 124.913 23.0487 124.426 23.0063C123.961 22.9429 123.506 22.9111 123.062 22.9111C121.94 22.89 120.977 23.0698 120.173 23.4507C119.39 23.8315 118.735 24.3711 118.206 25.0693C117.677 25.7464 117.232 26.5187 116.873 27.3862C116.534 28.2537 116.27 29.153 116.079 30.084L114.556 29.4492C114.725 28.1162 114.989 26.561 115.349 24.7837C115.73 23.0063 116.27 21.2925 116.968 19.6421C117.687 17.9917 118.639 16.627 119.824 15.5479C121.009 14.4688 122.501 13.9292 124.299 13.9292C124.786 13.9504 125.241 14.0033 125.664 14.0879C126.108 14.1725 126.563 14.2677 127.029 14.3735Z" fill="black"/>
<path d="M157.25 37.0664C157.398 35.8392 157.335 34.7812 157.06 33.8926C156.806 32.9827 156.372 32.1999 155.758 31.5439C155.145 30.888 154.404 30.3062 153.537 29.7983C152.669 29.2905 151.717 28.8145 150.68 28.3701C149.199 27.7354 147.813 27.0054 146.522 26.1802C145.253 25.355 144.142 24.4134 143.19 23.3555C142.259 22.2764 141.55 21.0492 141.063 19.6738C140.598 18.2985 140.439 16.7327 140.587 14.9766C140.736 13.0723 141.212 11.3267 142.016 9.73975C142.82 8.15283 143.867 6.78809 145.158 5.64551C146.47 4.50293 147.961 3.62484 149.633 3.01123C151.326 2.39762 153.113 2.11198 154.997 2.1543C157.641 2.21777 159.853 2.89486 161.63 4.18555C163.428 5.45508 164.761 7.14779 165.629 9.26367C166.496 11.3584 166.846 13.6436 166.676 16.1191H160.963C161.09 14.5957 160.985 13.1569 160.646 11.8027C160.329 10.4486 159.694 9.34831 158.742 8.50195C157.79 7.6556 156.435 7.21126 154.679 7.16895C153.113 7.12663 151.728 7.44401 150.521 8.12109C149.337 8.77702 148.374 9.69743 147.633 10.8823C146.914 12.0672 146.47 13.4108 146.3 14.9131C146.152 16.0133 146.237 16.9867 146.554 17.833C146.872 18.6582 147.337 19.3988 147.951 20.0547C148.585 20.6895 149.315 21.2502 150.141 21.7368C150.987 22.2235 151.854 22.6572 152.743 23.0381C154.372 23.7152 155.843 24.4769 157.155 25.3232C158.467 26.1696 159.577 27.1429 160.487 28.2432C161.418 29.3434 162.095 30.613 162.519 32.0518C162.963 33.4906 163.1 35.1515 162.931 37.0347C162.762 39.0024 162.265 40.7798 161.439 42.3667C160.614 43.9325 159.535 45.2655 158.202 46.3657C156.869 47.466 155.346 48.3018 153.632 48.873C151.918 49.4232 150.088 49.6771 148.141 49.6348C146.152 49.5924 144.364 49.2116 142.777 48.4922C141.19 47.7516 139.847 46.7466 138.747 45.4771C137.646 44.1864 136.832 42.7052 136.303 41.0337C135.774 39.341 135.562 37.5213 135.668 35.5747L141.381 35.6064C141.275 36.8337 141.328 37.9974 141.54 39.0977C141.772 40.1768 142.174 41.1289 142.746 41.9541C143.317 42.7793 144.068 43.4352 144.999 43.9219C145.951 44.3874 147.104 44.6307 148.458 44.6519C150.045 44.6942 151.463 44.4085 152.711 43.7949C153.96 43.1813 154.975 42.3032 155.758 41.1606C156.562 39.9969 157.06 38.6322 157.25 37.0664ZM182.469 14.6592L181.676 19.166H166.061L166.886 14.6592H182.469ZM173.392 6.31201H178.883L173.075 40.5576C173.011 41.1077 172.99 41.6896 173.011 42.3032C173.032 42.9168 173.17 43.4352 173.424 43.8584C173.699 44.2816 174.196 44.5037 174.916 44.5249C175.296 44.5249 175.677 44.4932 176.058 44.4297C176.439 44.3451 176.809 44.271 177.169 44.2075L176.693 49.0317C176.122 49.2433 175.529 49.3914 174.916 49.4761C174.323 49.5819 173.72 49.6242 173.106 49.603C171.456 49.5819 170.218 49.0952 169.393 48.1431C168.589 47.1698 168.071 45.9849 167.838 44.5884C167.605 43.1707 167.552 41.7954 167.679 40.4624L173.392 6.31201ZM197.12 43.1284L200.135 24.4346C200.241 23.3343 200.177 22.3716 199.944 21.5464C199.733 20.7 199.288 20.0335 198.611 19.5469C197.955 19.0602 197.024 18.8169 195.818 18.8169C194.718 18.7957 193.734 19.0179 192.867 19.4834C191.999 19.9277 191.28 20.5519 190.708 21.356C190.158 22.16 189.778 23.091 189.566 24.1489L184.139 24.1807C184.287 22.6361 184.721 21.2396 185.44 19.9912C186.181 18.7217 187.122 17.6426 188.265 16.7539C189.407 15.8441 190.677 15.1564 192.073 14.6909C193.47 14.2043 194.919 13.9715 196.421 13.9927C198.58 14.0138 200.378 14.4688 201.817 15.3574C203.256 16.2249 204.292 17.4521 204.927 19.0391C205.583 20.6048 205.805 22.4456 205.594 24.5615L202.801 41.5098C202.61 42.7158 202.536 43.8796 202.579 45.001C202.621 46.1224 202.674 47.2756 202.737 48.4604L202.674 49L197.183 49.0317C196.972 48.0584 196.876 47.0745 196.897 46.0801C196.919 45.0856 196.993 44.1017 197.12 43.1284ZM200.547 28.1797L199.881 32.3057L196.39 32.2739C195.268 32.2739 194.147 32.4009 193.025 32.6548C191.925 32.9087 190.899 33.3107 189.947 33.8608C189.016 34.3898 188.233 35.0986 187.598 35.9873C186.985 36.8548 186.604 37.9233 186.456 39.1929C186.329 40.2297 186.36 41.1606 186.551 41.9858C186.762 42.7899 187.175 43.4352 187.789 43.9219C188.423 44.3874 189.312 44.6201 190.455 44.6201C191.639 44.6201 192.782 44.3556 193.882 43.8267C194.983 43.2977 195.924 42.5783 196.707 41.6685C197.511 40.7586 198.04 39.7218 198.294 38.5581L199.151 41.2241C198.897 42.3244 198.463 43.3929 197.85 44.4297C197.257 45.4453 196.527 46.3551 195.66 47.1592C194.792 47.9421 193.819 48.5557 192.74 49C191.682 49.4655 190.55 49.6982 189.344 49.6982C187.418 49.6982 185.8 49.2645 184.488 48.397C183.176 47.5295 182.203 46.3657 181.568 44.9058C180.933 43.4246 180.679 41.7531 180.806 39.8911C180.912 37.9022 181.388 36.1672 182.234 34.686C183.102 33.2049 184.223 31.9883 185.599 31.0361C186.974 30.0628 188.508 29.3434 190.201 28.8779C191.915 28.3913 193.692 28.1479 195.533 28.1479L200.547 28.1797ZM224.846 14.6592L224.053 19.166H208.438L209.263 14.6592H224.846ZM215.769 6.31201H221.26L215.452 40.5576C215.388 41.1077 215.367 41.6896 215.388 42.3032C215.409 42.9168 215.547 43.4352 215.801 43.8584C216.076 44.2816 216.573 44.5037 217.292 44.5249C217.673 44.5249 218.054 44.4932 218.435 44.4297C218.816 44.3451 219.186 44.271 219.546 44.2075L219.07 49.0317C218.499 49.2433 217.906 49.3914 217.292 49.4761C216.7 49.5819 216.097 49.6242 215.483 49.603C213.833 49.5819 212.595 49.0952 211.77 48.1431C210.966 47.1698 210.448 45.9849 210.215 44.5884C209.982 43.1707 209.929 41.7954 210.056 40.4624L215.769 6.31201ZM240.354 40.748L244.892 14.6592H250.383L244.416 49H239.211L240.354 40.748ZM242.417 33.7021L244.321 33.6387C244.088 35.5007 243.728 37.3944 243.242 39.3198C242.755 41.2241 242.046 42.9697 241.115 44.5566C240.205 46.1436 238.989 47.4131 237.465 48.3652C235.942 49.2962 234.038 49.73 231.752 49.6665C229.975 49.6242 228.557 49.2116 227.5 48.4287C226.442 47.6247 225.648 46.5985 225.119 45.3501C224.59 44.0806 224.273 42.7052 224.167 41.2241C224.061 39.7218 224.093 38.2513 224.262 36.8125L227.976 14.6592H233.435L229.721 36.9077C229.658 37.5848 229.615 38.3571 229.594 39.2246C229.573 40.0921 229.647 40.9385 229.816 41.7637C230.007 42.5677 230.345 43.2448 230.832 43.7949C231.34 44.3239 232.07 44.6095 233.022 44.6519C235.138 44.7576 236.841 44.2604 238.132 43.1602C239.423 42.0599 240.396 40.6528 241.052 38.939C241.729 37.2039 242.184 35.4583 242.417 33.7021ZM267.064 39.9546C267.213 38.8966 267.022 38.008 266.493 37.2886C265.985 36.548 265.308 35.9238 264.462 35.416C263.637 34.9082 262.822 34.4533 262.018 34.0513C260.918 33.5011 259.849 32.9299 258.812 32.3374C257.797 31.745 256.887 31.0679 256.083 30.3062C255.279 29.5444 254.655 28.6558 254.21 27.6401C253.766 26.6245 253.586 25.4185 253.671 24.022C253.756 22.4985 254.126 21.1126 254.782 19.8643C255.438 18.6159 256.305 17.5579 257.384 16.6904C258.463 15.8018 259.68 15.1247 261.034 14.6592C262.388 14.1937 263.806 13.9821 265.287 14.0244C267.34 14.0667 269.096 14.5428 270.556 15.4526C272.037 16.3413 273.148 17.5685 273.888 19.1343C274.65 20.6789 274.988 22.4562 274.904 24.4663L269.477 24.4346C269.519 23.4613 269.381 22.562 269.064 21.7368C268.768 20.8905 268.281 20.2134 267.604 19.7056C266.927 19.1766 266.049 18.9015 264.97 18.8804C263.954 18.8804 263.023 19.0814 262.177 19.4834C261.33 19.8854 260.632 20.4567 260.082 21.1973C259.553 21.9378 259.215 22.8159 259.066 23.8315C258.961 24.5721 259.024 25.2174 259.257 25.7676C259.511 26.2965 259.87 26.762 260.336 27.1641C260.801 27.5661 261.32 27.9258 261.891 28.2432C262.484 28.5394 263.065 28.825 263.637 29.1001C265.16 29.8407 266.62 30.6447 268.017 31.5122C269.413 32.3797 270.535 33.4482 271.381 34.7178C272.248 35.9661 272.629 37.5636 272.523 39.5103C272.418 41.1395 272.026 42.5889 271.349 43.8584C270.672 45.1279 269.773 46.1965 268.651 47.064C267.551 47.9315 266.292 48.5874 264.875 49.0317C263.478 49.4761 261.997 49.6771 260.431 49.6348C258.315 49.5924 256.453 49.1058 254.845 48.1748C253.258 47.2438 252.031 45.9637 251.164 44.3345C250.317 42.7052 249.936 40.8221 250.021 38.6851L255.543 38.7168C255.501 39.8805 255.649 40.9173 255.988 41.8271C256.326 42.737 256.876 43.4564 257.638 43.9854C258.421 44.4932 259.437 44.7576 260.685 44.7788C261.722 44.7788 262.695 44.6095 263.605 44.271C264.515 43.9113 265.277 43.3823 265.89 42.6841C266.525 41.9647 266.916 41.0549 267.064 39.9546Z" fill="#9A0000"/>
</svg>
