<svg width="689" height="63" viewBox="0 0 689 63" fill="none" xmlns="http://www.w3.org/2000/svg">
<path d="M26.4692 2.78906H35.5146L30.1191 34.4956C29.696 37.606 28.765 40.3143 27.3262 42.6206C25.9085 44.9058 24.0148 46.6619 21.645 47.8892C19.2752 49.1164 16.4823 49.7088 13.2661 49.6665C10.2192 49.603 7.69076 48.9365 5.68066 47.667C3.67057 46.3763 2.23177 44.6095 1.36426 42.3667C0.517904 40.1027 0.263997 37.4896 0.602539 34.5273L5.99805 2.78906H15.0117L9.71143 34.5591C9.56331 35.8286 9.54215 37.0241 9.64795 38.1455C9.75374 39.2458 10.1346 40.145 10.7905 40.8433C11.4465 41.5203 12.5256 41.8906 14.0278 41.9541C15.6147 42.0176 16.8843 41.7319 17.8364 41.0972C18.8097 40.4624 19.5397 39.5737 20.0264 38.4312C20.5342 37.2674 20.9045 35.9767 21.1372 34.5591L26.4692 2.78906ZM47.2134 39.5737C47.3403 38.7274 47.1287 38.0291 46.5786 37.479C46.0285 36.9077 45.362 36.4211 44.5791 36.019C43.8174 35.617 43.1403 35.2785 42.5479 35.0034C41.4264 34.4321 40.3685 33.8291 39.374 33.1943C38.3796 32.5596 37.5015 31.8402 36.7397 31.0361C35.9992 30.2321 35.4279 29.3011 35.0259 28.2432C34.6239 27.1852 34.4652 25.9792 34.5498 24.625C34.6344 22.9323 35.0365 21.43 35.7559 20.1182C36.4753 18.8063 37.4168 17.6955 38.5806 16.7856C39.7443 15.8758 41.0562 15.1776 42.5161 14.6909C43.9972 14.2043 45.5312 13.9715 47.1182 13.9927C49.2764 14.035 51.1912 14.4899 52.8628 15.3574C54.5343 16.2249 55.825 17.4627 56.7349 19.0708C57.6659 20.6789 58.1208 22.5832 58.0996 24.7837H49.4351C49.4562 24.1066 49.4139 23.4507 49.3081 22.8159C49.2235 22.16 48.9696 21.6204 48.5464 21.1973C48.1444 20.7741 47.5096 20.5731 46.6421 20.5942C45.965 20.6154 45.3514 20.7847 44.8013 21.1021C44.2723 21.4194 43.828 21.8532 43.4683 22.4033C43.1086 22.9323 42.8547 23.5142 42.7065 24.1489C42.6007 24.7625 42.696 25.3021 42.9922 25.7676C43.2884 26.2119 43.6904 26.6034 44.1982 26.9419C44.7061 27.2804 45.2456 27.5872 45.8169 27.8623C46.3882 28.1162 46.8748 28.3278 47.2769 28.4971C48.8638 29.2376 50.3026 30.0628 51.5933 30.9727C52.9051 31.8825 53.9207 32.9933 54.6401 34.3052C55.3595 35.5959 55.6558 37.2145 55.5288 39.1611C55.4442 40.9173 55.0104 42.4619 54.2275 43.7949C53.4447 45.1068 52.429 46.207 51.1807 47.0957C49.9323 47.9632 48.5464 48.6086 47.0229 49.0317C45.4995 49.4761 43.9338 49.6771 42.3257 49.6348C40.104 49.5713 38.1362 49.0635 36.4224 48.1113C34.7297 47.1592 33.4072 45.8473 32.4551 44.1758C31.5029 42.5042 31.0374 40.5682 31.0586 38.3677L39.2788 38.3994C39.2788 39.2458 39.3634 40.0286 39.5327 40.748C39.702 41.4674 40.0511 42.0282 40.5801 42.4302C41.1302 42.8322 41.8919 43.0332 42.8652 43.0332C43.6058 43.0332 44.2829 42.9062 44.8965 42.6523C45.5101 42.3984 46.0179 42.0176 46.4199 41.5098C46.8219 40.9808 47.0864 40.3354 47.2134 39.5737ZM69.9888 49.6348C67.7036 49.5924 65.7464 49.1481 64.1172 48.3018C62.488 47.4554 61.1867 46.3022 60.2134 44.8423C59.2401 43.3612 58.5736 41.6896 58.2139 39.8276C57.8542 37.9445 57.7801 35.9344 57.9917 33.7974L58.3091 30.9727C58.6053 28.7721 59.1237 26.6457 59.8643 24.5933C60.6048 22.5409 61.5993 20.7106 62.8477 19.1025C64.1172 17.4733 65.6724 16.2038 67.5132 15.2939C69.354 14.3841 71.5122 13.9504 73.9878 13.9927C76.3576 14.0562 78.2725 14.5851 79.7324 15.5796C81.2135 16.5529 82.3244 17.8436 83.0649 19.4517C83.8267 21.0597 84.2922 22.8477 84.4614 24.8154C84.6307 26.762 84.5884 28.7298 84.3345 30.7188L83.7632 34.7812H61.3877L62.4985 28.5288L76.0508 28.5605L76.2095 27.6719C76.3576 26.7832 76.4105 25.8628 76.3682 24.9106C76.3258 23.9373 76.0719 23.1227 75.6064 22.4668C75.141 21.7897 74.3369 21.4194 73.1943 21.356C71.946 21.2925 70.9303 21.5781 70.1475 22.2129C69.3857 22.8265 68.7933 23.6411 68.3701 24.6567C67.9469 25.6724 67.6401 26.7409 67.4497 27.8623C67.2804 28.9626 67.1429 29.9993 67.0371 30.9727L66.688 33.8291C66.5822 34.7812 66.5399 35.744 66.561 36.7173C66.5822 37.6694 66.7091 38.5581 66.9419 39.3833C67.1958 40.2085 67.6401 40.8856 68.2749 41.4146C68.9308 41.9435 69.8618 42.2186 71.0679 42.2397C72.549 42.2821 73.9137 42.007 75.1621 41.4146C76.4316 40.8221 77.6165 40.0604 78.7168 39.1294L81.6685 44.5566C80.7798 45.7415 79.7007 46.7254 78.4312 47.5083C77.1616 48.27 75.7863 48.8201 74.3052 49.1587C72.8452 49.4972 71.4064 49.6559 69.9888 49.6348ZM96.2236 22.7842L91.6851 49H83.0205L88.9873 14.6592H97.1758L96.2236 22.7842ZM105.333 14.3735L104.158 23.2285C103.693 23.1227 103.217 23.0487 102.73 23.0063C102.264 22.9429 101.81 22.9111 101.365 22.9111C100.244 22.89 99.2811 23.0698 98.4771 23.4507C97.6942 23.8315 97.0382 24.3711 96.5093 25.0693C95.9803 25.7464 95.536 26.5187 95.1763 27.3862C94.8377 28.2537 94.5732 29.153 94.3828 30.084L92.8594 29.4492C93.0286 28.1162 93.2931 26.561 93.6528 24.7837C94.0337 23.0063 94.5732 21.2925 95.2715 19.6421C95.9909 17.9917 96.943 16.627 98.1279 15.5479C99.3128 14.4688 100.805 13.9292 102.603 13.9292C103.09 13.9504 103.545 14.0033 103.968 14.0879C104.412 14.1725 104.867 14.2677 105.333 14.3735Z" fill="black"/>
<path d="M135.712 7.20068L116.32 49H110.29L132.761 2.78906H136.538L135.712 7.20068ZM138.442 49L133.459 6.53418L134.062 2.78906H137.648L144.06 49H138.442ZM141.362 31.8931L140.473 36.9077H118.828L119.716 31.8931H141.362ZM164.169 40.748L168.708 14.6592H174.198L168.231 49H163.026L164.169 40.748ZM166.232 33.7021L168.136 33.6387C167.903 35.5007 167.544 37.3944 167.057 39.3198C166.57 41.2241 165.862 42.9697 164.931 44.5566C164.021 46.1436 162.804 47.4131 161.281 48.3652C159.757 49.2962 157.853 49.73 155.568 49.6665C153.791 49.6242 152.373 49.2116 151.315 48.4287C150.257 47.6247 149.464 46.5985 148.935 45.3501C148.406 44.0806 148.088 42.7052 147.982 41.2241C147.877 39.7218 147.908 38.2513 148.078 36.8125L151.791 14.6592H157.25L153.537 36.9077C153.473 37.5848 153.431 38.3571 153.41 39.2246C153.389 40.0921 153.463 40.9385 153.632 41.7637C153.822 42.5677 154.161 43.2448 154.647 43.7949C155.155 44.3239 155.885 44.6095 156.837 44.6519C158.953 44.7576 160.657 44.2604 161.947 43.1602C163.238 42.0599 164.211 40.6528 164.867 38.939C165.544 37.2039 165.999 35.4583 166.232 33.7021ZM191.292 14.6592L190.499 19.166H174.884L175.709 14.6592H191.292ZM182.215 6.31201H187.706L181.898 40.5576C181.834 41.1077 181.813 41.6896 181.834 42.3032C181.856 42.9168 181.993 43.4352 182.247 43.8584C182.522 44.2816 183.019 44.5037 183.739 44.5249C184.12 44.5249 184.5 44.4932 184.881 44.4297C185.262 44.3451 185.632 44.271 185.992 44.2075L185.516 49.0317C184.945 49.2433 184.352 49.3914 183.739 49.4761C183.146 49.5819 182.543 49.6242 181.93 49.603C180.279 49.5819 179.042 49.0952 178.216 48.1431C177.412 47.1698 176.894 45.9849 176.661 44.5884C176.428 43.1707 176.375 41.7954 176.502 40.4624L182.215 6.31201ZM202.483 0.25L194.009 49H188.519L196.993 0.25H202.483ZM196.104 30.6553L194.104 30.5601C194.337 28.7616 194.739 26.889 195.311 24.9424C195.903 22.9746 196.718 21.1549 197.754 19.4834C198.791 17.7907 200.092 16.4365 201.658 15.4209C203.245 14.4053 205.149 13.9398 207.371 14.0244C209.085 14.0667 210.46 14.4688 211.497 15.2305C212.555 15.9922 213.327 16.9867 213.814 18.2139C214.322 19.4199 214.629 20.7529 214.734 22.2129C214.84 23.6517 214.819 25.0799 214.671 26.4976L210.926 49H205.435L209.212 26.4023C209.318 25.3021 209.328 24.1912 209.244 23.0698C209.18 21.9272 208.863 20.9645 208.292 20.1816C207.72 19.3776 206.736 18.9544 205.34 18.9121C203.88 18.8698 202.6 19.2295 201.5 19.9912C200.42 20.7529 199.511 21.7474 198.77 22.9746C198.029 24.1807 197.437 25.4714 196.993 26.8467C196.569 28.2008 196.273 29.4704 196.104 30.6553ZM217.388 33.48L217.8 30.2427C218.075 28.1903 218.583 26.1908 219.324 24.2441C220.085 22.2975 221.09 20.5413 222.339 18.9756C223.587 17.4098 225.09 16.172 226.846 15.2622C228.623 14.3524 230.675 13.9398 233.003 14.0244C235.203 14.0879 237.034 14.6063 238.494 15.5796C239.954 16.5317 241.086 17.7907 241.89 19.3564C242.715 20.9222 243.254 22.6466 243.508 24.5298C243.762 26.4129 243.794 28.3066 243.604 30.2109L243.191 33.48C242.916 35.5112 242.397 37.5107 241.636 39.4785C240.895 41.4251 239.89 43.1813 238.621 44.7471C237.372 46.2917 235.859 47.5189 234.082 48.4287C232.326 49.3174 230.295 49.7194 227.988 49.6348C225.767 49.5924 223.926 49.0846 222.466 48.1113C221.027 47.138 219.895 45.8685 219.07 44.3027C218.266 42.737 217.737 41.0125 217.483 39.1294C217.229 37.2463 217.197 35.3631 217.388 33.48ZM223.291 30.2109L222.878 33.5435C222.773 34.6014 222.73 35.7757 222.751 37.0664C222.773 38.3359 222.952 39.5526 223.291 40.7163C223.63 41.88 224.19 42.8534 224.973 43.6362C225.777 44.3979 226.888 44.8105 228.306 44.874C229.914 44.9587 231.268 44.6624 232.368 43.9854C233.49 43.3083 234.41 42.409 235.129 41.2876C235.87 40.145 236.441 38.8966 236.843 37.5425C237.245 36.1672 237.531 34.813 237.7 33.48L238.113 30.1792C238.219 29.1213 238.261 27.9575 238.24 26.688C238.219 25.4185 238.039 24.2018 237.7 23.0381C237.362 21.8532 236.79 20.8693 235.986 20.0864C235.203 19.3035 234.093 18.8804 232.654 18.8169C231.152 18.7534 229.84 19.0708 228.718 19.769C227.618 20.4461 226.698 21.3665 225.957 22.5303C225.216 23.694 224.624 24.953 224.18 26.3071C223.757 27.6613 223.46 28.9626 223.291 30.2109ZM254.636 20.2769L249.653 49H244.162L250.129 14.6592H255.429L254.636 20.2769ZM263.808 14.437L263.205 19.896C262.803 19.8114 262.39 19.7373 261.967 19.6738C261.565 19.6104 261.163 19.5786 260.761 19.5786C259.513 19.5575 258.434 19.8008 257.524 20.3086C256.614 20.8164 255.831 21.4935 255.175 22.3398C254.541 23.1862 254.001 24.1172 253.557 25.1328C253.112 26.1484 252.753 27.1746 252.478 28.2114L250.859 29.1636C251.049 27.7248 251.346 26.1273 251.748 24.3711C252.171 22.5938 252.774 20.901 253.557 19.293C254.34 17.6637 255.366 16.3413 256.635 15.3257C257.905 14.3101 259.492 13.8446 261.396 13.9292C261.819 13.9504 262.221 14.0138 262.602 14.1196C263.004 14.2043 263.406 14.3101 263.808 14.437ZM272.016 14.6592L266.049 49H260.59L266.557 14.6592H272.016ZM267.826 5.61377C267.868 4.68278 268.165 3.87874 268.715 3.20166C269.265 2.50342 270.016 2.14372 270.968 2.12256C271.963 2.1014 272.735 2.42936 273.285 3.10645C273.835 3.78353 274.089 4.58757 274.047 5.51855C274.005 6.40723 273.698 7.1901 273.126 7.86719C272.555 8.52311 271.804 8.86165 270.873 8.88281C269.9 8.90397 269.138 8.59717 268.588 7.9624C268.059 7.30648 267.805 6.5236 267.826 5.61377ZM293.363 44.1758L292.506 49H272.289L273.146 44.1758H293.363ZM297.076 19.1343L273.749 49H270.194L271.019 44.3662L294.188 14.6592H297.87L297.076 19.1343ZM295.489 14.6592L294.632 19.5151H275.399L276.288 14.6592H295.489ZM313.218 43.1284L316.233 24.4346C316.339 23.3343 316.276 22.3716 316.043 21.5464C315.831 20.7 315.387 20.0335 314.71 19.5469C314.054 19.0602 313.123 18.8169 311.917 18.8169C310.817 18.7957 309.833 19.0179 308.965 19.4834C308.098 19.9277 307.378 20.5519 306.807 21.356C306.257 22.16 305.876 23.091 305.665 24.1489L300.237 24.1807C300.385 22.6361 300.819 21.2396 301.539 19.9912C302.279 18.7217 303.221 17.6426 304.363 16.7539C305.506 15.8441 306.775 15.1564 308.172 14.6909C309.568 14.2043 311.018 13.9715 312.52 13.9927C314.678 14.0138 316.477 14.4688 317.916 15.3574C319.354 16.2249 320.391 17.4521 321.026 19.0391C321.682 20.6048 321.904 22.4456 321.692 24.5615L318.899 41.5098C318.709 42.7158 318.635 43.8796 318.677 45.001C318.72 46.1224 318.772 47.2756 318.836 48.4604L318.772 49L313.282 49.0317C313.07 48.0584 312.975 47.0745 312.996 46.0801C313.017 45.0856 313.091 44.1017 313.218 43.1284ZM316.646 28.1797L315.979 32.3057L312.488 32.2739C311.367 32.2739 310.245 32.4009 309.124 32.6548C308.024 32.9087 306.998 33.3107 306.045 33.8608C305.114 34.3898 304.332 35.0986 303.697 35.9873C303.083 36.8548 302.702 37.9233 302.554 39.1929C302.427 40.2297 302.459 41.1606 302.649 41.9858C302.861 42.7899 303.274 43.4352 303.887 43.9219C304.522 44.3874 305.411 44.6201 306.553 44.6201C307.738 44.6201 308.881 44.3556 309.981 43.8267C311.081 43.2977 312.023 42.5783 312.806 41.6685C313.61 40.7586 314.139 39.7218 314.393 38.5581L315.25 41.2241C314.996 42.3244 314.562 43.3929 313.948 44.4297C313.356 45.4453 312.626 46.3551 311.758 47.1592C310.891 47.9421 309.917 48.5557 308.838 49C307.78 49.4655 306.648 49.6982 305.442 49.6982C303.517 49.6982 301.898 49.2645 300.586 48.397C299.275 47.5295 298.301 46.3657 297.667 44.9058C297.032 43.4246 296.778 41.7531 296.905 39.8911C297.011 37.9022 297.487 36.1672 298.333 34.686C299.201 33.2049 300.322 31.9883 301.697 31.0361C303.073 30.0628 304.607 29.3434 306.299 28.8779C308.013 28.3913 309.791 28.1479 311.631 28.1479L316.646 28.1797ZM340.945 14.6592L340.151 19.166H324.536L325.361 14.6592H340.945ZM331.868 6.31201H337.358L331.55 40.5576C331.487 41.1077 331.466 41.6896 331.487 42.3032C331.508 42.9168 331.646 43.4352 331.899 43.8584C332.174 44.2816 332.672 44.5037 333.391 44.5249C333.772 44.5249 334.153 44.4932 334.534 44.4297C334.915 44.3451 335.285 44.271 335.645 44.2075L335.168 49.0317C334.597 49.2433 334.005 49.3914 333.391 49.4761C332.799 49.5819 332.196 49.6242 331.582 49.603C329.932 49.5819 328.694 49.0952 327.869 48.1431C327.065 47.1698 326.546 45.9849 326.313 44.5884C326.081 43.1707 326.028 41.7954 326.155 40.4624L331.868 6.31201ZM350.041 14.6592L344.074 49H338.615L344.582 14.6592H350.041ZM345.852 5.61377C345.894 4.68278 346.19 3.87874 346.74 3.20166C347.29 2.50342 348.042 2.14372 348.994 2.12256C349.988 2.1014 350.76 2.42936 351.311 3.10645C351.861 3.78353 352.115 4.58757 352.072 5.51855C352.03 6.40723 351.723 7.1901 351.152 7.86719C350.581 8.52311 349.829 8.86165 348.898 8.88281C347.925 8.90397 347.163 8.59717 346.613 7.9624C346.084 7.30648 345.83 6.5236 345.852 5.61377ZM351.044 33.48L351.457 30.2427C351.732 28.1903 352.239 26.1908 352.98 24.2441C353.742 22.2975 354.747 20.5413 355.995 18.9756C357.243 17.4098 358.746 16.172 360.502 15.2622C362.279 14.3524 364.332 13.9398 366.659 14.0244C368.86 14.0879 370.69 14.6063 372.15 15.5796C373.61 16.5317 374.742 17.7907 375.546 19.3564C376.371 20.9222 376.911 22.6466 377.165 24.5298C377.418 26.4129 377.45 28.3066 377.26 30.2109L376.847 33.48C376.572 35.5112 376.054 37.5107 375.292 39.4785C374.551 41.4251 373.546 43.1813 372.277 44.7471C371.028 46.2917 369.516 47.5189 367.738 48.4287C365.982 49.3174 363.951 49.7194 361.645 49.6348C359.423 49.5924 357.582 49.0846 356.122 48.1113C354.683 47.138 353.551 45.8685 352.726 44.3027C351.922 42.737 351.393 41.0125 351.139 39.1294C350.885 37.2463 350.854 35.3631 351.044 33.48ZM356.947 30.2109L356.535 33.5435C356.429 34.6014 356.387 35.7757 356.408 37.0664C356.429 38.3359 356.609 39.5526 356.947 40.7163C357.286 41.88 357.847 42.8534 358.629 43.6362C359.433 44.3979 360.544 44.8105 361.962 44.874C363.57 44.9587 364.924 44.6624 366.024 43.9854C367.146 43.3083 368.066 42.409 368.786 41.2876C369.526 40.145 370.097 38.8966 370.5 37.5425C370.902 36.1672 371.187 34.813 371.356 33.48L371.769 30.1792C371.875 29.1213 371.917 27.9575 371.896 26.688C371.875 25.4185 371.695 24.2018 371.356 23.0381C371.018 21.8532 370.447 20.8693 369.643 20.0864C368.86 19.3035 367.749 18.8804 366.31 18.8169C364.808 18.7534 363.496 19.0708 362.375 19.769C361.274 20.4461 360.354 21.3665 359.613 22.5303C358.873 23.694 358.28 24.953 357.836 26.3071C357.413 27.6613 357.117 28.9626 356.947 30.2109ZM387.943 22.3398L383.309 49H377.818L383.785 14.6592H388.958L387.943 22.3398ZM385.404 30.6553L383.404 30.5601C383.637 28.7616 384.039 26.889 384.61 24.9424C385.203 22.9746 386.017 21.1549 387.054 19.4834C388.091 17.8118 389.392 16.4683 390.958 15.4526C392.545 14.4159 394.449 13.9292 396.671 13.9927C398.385 14.0562 399.76 14.4688 400.797 15.2305C401.855 15.9922 402.627 16.9867 403.114 18.2139C403.622 19.4199 403.928 20.7529 404.034 22.2129C404.14 23.6517 404.119 25.0799 403.971 26.4976L400.226 49H394.735L398.512 26.4023C398.618 25.3021 398.628 24.1912 398.543 23.0698C398.48 21.9272 398.163 20.9645 397.591 20.1816C397.02 19.3776 396.036 18.9544 394.64 18.9121C393.18 18.8698 391.9 19.2295 390.799 19.9912C389.72 20.7529 388.81 21.7474 388.07 22.9746C387.329 24.1807 386.737 25.4714 386.292 26.8467C385.869 28.2008 385.573 29.4704 385.404 30.6553ZM434.065 43.1284L437.08 24.4346C437.186 23.3343 437.122 22.3716 436.89 21.5464C436.678 20.7 436.234 20.0335 435.557 19.5469C434.901 19.0602 433.97 18.8169 432.764 18.8169C431.663 18.7957 430.68 19.0179 429.812 19.4834C428.944 19.9277 428.225 20.5519 427.654 21.356C427.104 22.16 426.723 23.091 426.511 24.1489L421.084 24.1807C421.232 22.6361 421.666 21.2396 422.385 19.9912C423.126 18.7217 424.067 17.6426 425.21 16.7539C426.353 15.8441 427.622 15.1564 429.019 14.6909C430.415 14.2043 431.864 13.9715 433.367 13.9927C435.525 14.0138 437.323 14.4688 438.762 15.3574C440.201 16.2249 441.238 17.4521 441.873 19.0391C442.528 20.6048 442.751 22.4456 442.539 24.5615L439.746 41.5098C439.556 42.7158 439.482 43.8796 439.524 45.001C439.566 46.1224 439.619 47.2756 439.683 48.4604L439.619 49L434.128 49.0317C433.917 48.0584 433.822 47.0745 433.843 46.0801C433.864 45.0856 433.938 44.1017 434.065 43.1284ZM437.493 28.1797L436.826 32.3057L433.335 32.2739C432.214 32.2739 431.092 32.4009 429.971 32.6548C428.87 32.9087 427.844 33.3107 426.892 33.8608C425.961 34.3898 425.178 35.0986 424.543 35.9873C423.93 36.8548 423.549 37.9233 423.401 39.1929C423.274 40.2297 423.306 41.1606 423.496 41.9858C423.708 42.7899 424.12 43.4352 424.734 43.9219C425.369 44.3874 426.257 44.6201 427.4 44.6201C428.585 44.6201 429.727 44.3556 430.828 43.8267C431.928 43.2977 432.869 42.5783 433.652 41.6685C434.456 40.7586 434.985 39.7218 435.239 38.5581L436.096 41.2241C435.842 42.3244 435.409 43.3929 434.795 44.4297C434.202 45.4453 433.472 46.3551 432.605 47.1592C431.737 47.9421 430.764 48.5557 429.685 49C428.627 49.4655 427.495 49.6982 426.289 49.6982C424.364 49.6982 422.745 49.2645 421.433 48.397C420.121 47.5295 419.148 46.3657 418.513 44.9058C417.878 43.4246 417.625 41.7531 417.751 39.8911C417.857 37.9022 418.333 36.1672 419.18 34.686C420.047 33.2049 421.169 31.9883 422.544 31.0361C423.919 30.0628 425.453 29.3434 427.146 28.8779C428.86 28.3913 430.637 28.1479 432.478 28.1479L437.493 28.1797ZM453.73 22.3398L449.096 49H443.605L449.572 14.6592H454.746L453.73 22.3398ZM451.191 30.6553L449.191 30.5601C449.424 28.7616 449.826 26.889 450.397 24.9424C450.99 22.9746 451.805 21.1549 452.841 19.4834C453.878 17.8118 455.179 16.4683 456.745 15.4526C458.332 14.4159 460.236 13.9292 462.458 13.9927C464.172 14.0562 465.547 14.4688 466.584 15.2305C467.642 15.9922 468.414 16.9867 468.901 18.2139C469.409 19.4199 469.715 20.7529 469.821 22.2129C469.927 23.6517 469.906 25.0799 469.758 26.4976L466.013 49H460.522L464.299 26.4023C464.405 25.3021 464.415 24.1912 464.331 23.0698C464.267 21.9272 463.95 20.9645 463.378 20.1816C462.807 19.3776 461.823 18.9544 460.427 18.9121C458.967 18.8698 457.687 19.2295 456.586 19.9912C455.507 20.7529 454.597 21.7474 453.857 22.9746C453.116 24.1807 452.524 25.4714 452.08 26.8467C451.656 28.2008 451.36 29.4704 451.191 30.6553ZM489.582 41.9858L496.818 0.25H502.277L493.803 49H488.852L489.582 41.9858ZM472.538 33.48L472.919 30.3062C473.173 28.4019 473.585 26.487 474.157 24.5615C474.749 22.6149 475.564 20.8376 476.601 19.2295C477.637 17.6003 478.96 16.3096 480.568 15.3574C482.176 14.3841 484.112 13.9398 486.376 14.0244C488.365 14.0879 489.941 14.6486 491.105 15.7065C492.29 16.7433 493.157 18.0658 493.708 19.6738C494.279 21.2607 494.617 22.9429 494.723 24.7202C494.85 26.4976 494.85 28.1691 494.723 29.7349L494.152 34.0195C493.877 35.7122 493.443 37.4896 492.851 39.3516C492.258 41.1924 491.454 42.9062 490.438 44.4932C489.444 46.0801 488.206 47.3602 486.725 48.3335C485.244 49.2856 483.467 49.73 481.393 49.6665C479.256 49.603 477.553 49.0529 476.283 48.0161C475.035 46.9582 474.104 45.6146 473.49 43.9854C472.898 42.3561 472.538 40.6211 472.411 38.7803C472.305 36.9183 472.348 35.1515 472.538 33.48ZM478.41 30.2744L478.029 33.5117C477.902 34.612 477.817 35.7969 477.775 37.0664C477.754 38.3359 477.881 39.5526 478.156 40.7163C478.431 41.8589 478.949 42.8005 479.711 43.541C480.494 44.2816 481.636 44.673 483.139 44.7153C484.641 44.7576 485.985 44.3662 487.169 43.541C488.375 42.7158 489.381 41.6579 490.185 40.3672C490.989 39.0765 491.581 37.7646 491.962 36.4316L493.422 27.3545C493.443 26.4235 493.348 25.4819 493.136 24.5298C492.925 23.5565 492.565 22.6572 492.057 21.832C491.57 21.0068 490.946 20.3403 490.185 19.8325C489.423 19.3035 488.524 19.0073 487.487 18.9438C485.879 18.8804 484.525 19.1766 483.424 19.8325C482.345 20.4884 481.457 21.3877 480.758 22.5303C480.081 23.6517 479.552 24.8895 479.171 26.2437C478.812 27.5978 478.558 28.9414 478.41 30.2744ZM532.879 37.0664C533.027 35.8392 532.964 34.7812 532.688 33.8926C532.435 32.9827 532.001 32.1999 531.387 31.5439C530.774 30.888 530.033 30.3062 529.166 29.7983C528.298 29.2905 527.346 28.8145 526.309 28.3701C524.828 27.7354 523.442 27.0054 522.151 26.1802C520.882 25.355 519.771 24.4134 518.819 23.3555C517.888 22.2764 517.179 21.0492 516.692 19.6738C516.227 18.2985 516.068 16.7327 516.216 14.9766C516.364 13.0723 516.84 11.3267 517.645 9.73975C518.449 8.15283 519.496 6.78809 520.787 5.64551C522.098 4.50293 523.59 3.62484 525.262 3.01123C526.954 2.39762 528.742 2.11198 530.625 2.1543C533.27 2.21777 535.481 2.89486 537.259 4.18555C539.057 5.45508 540.39 7.14779 541.258 9.26367C542.125 11.3584 542.474 13.6436 542.305 16.1191H536.592C536.719 14.5957 536.613 13.1569 536.275 11.8027C535.958 10.4486 535.323 9.34831 534.371 8.50195C533.418 7.6556 532.064 7.21126 530.308 7.16895C528.742 7.12663 527.356 7.44401 526.15 8.12109C524.965 8.77702 524.003 9.69743 523.262 10.8823C522.543 12.0672 522.098 13.4108 521.929 14.9131C521.781 16.0133 521.866 16.9867 522.183 17.833C522.5 18.6582 522.966 19.3988 523.58 20.0547C524.214 20.6895 524.944 21.2502 525.77 21.7368C526.616 22.2235 527.483 22.6572 528.372 23.0381C530.001 23.7152 531.472 24.4769 532.784 25.3232C534.096 26.1696 535.206 27.1429 536.116 28.2432C537.047 29.3434 537.724 30.613 538.147 32.0518C538.592 33.4906 538.729 35.1515 538.56 37.0347C538.391 39.0024 537.894 40.7798 537.068 42.3667C536.243 43.9325 535.164 45.2655 533.831 46.3657C532.498 47.466 530.975 48.3018 529.261 48.873C527.547 49.4232 525.717 49.6771 523.77 49.6348C521.781 49.5924 519.993 49.2116 518.406 48.4922C516.819 47.7516 515.476 46.7466 514.375 45.4771C513.275 44.1864 512.461 42.7052 511.932 41.0337C511.403 39.341 511.191 37.5213 511.297 35.5747L517.01 35.6064C516.904 36.8337 516.957 37.9974 517.168 39.0977C517.401 40.1768 517.803 41.1289 518.375 41.9541C518.946 42.7793 519.697 43.4352 520.628 43.9219C521.58 44.3874 522.733 44.6307 524.087 44.6519C525.674 44.6942 527.092 44.4085 528.34 43.7949C529.589 43.1813 530.604 42.3032 531.387 41.1606C532.191 39.9969 532.688 38.6322 532.879 37.0664ZM552.258 49.6348C550.037 49.5924 548.185 49.1481 546.704 48.3018C545.223 47.4554 544.07 46.3128 543.245 44.874C542.419 43.4352 541.869 41.806 541.594 39.9863C541.34 38.1667 541.319 36.2729 541.531 34.3052L542.007 30.4331C542.261 28.4019 542.737 26.4023 543.435 24.4346C544.133 22.4668 545.075 20.6895 546.26 19.1025C547.445 17.4945 548.905 16.2249 550.64 15.2939C552.375 14.363 554.406 13.9398 556.733 14.0244C559.04 14.0879 560.87 14.6063 562.224 15.5796C563.578 16.5529 564.573 17.8224 565.208 19.3882C565.842 20.9539 566.202 22.6784 566.287 24.5615C566.392 26.4447 566.329 28.3278 566.096 30.2109L565.62 33.48H544.768L545.625 28.6875L560.796 28.7192L560.923 27.8623C561.092 26.5716 561.124 25.2492 561.018 23.895C560.912 22.5197 560.51 21.356 559.812 20.4038C559.114 19.4305 557.971 18.9015 556.384 18.8169C554.755 18.7323 553.401 19.0391 552.322 19.7373C551.264 20.4355 550.407 21.3771 549.751 22.562C549.095 23.7469 548.587 25.0376 548.228 26.4341C547.889 27.8094 547.646 29.1424 547.498 30.4331L547.021 34.3369C546.895 35.5007 546.852 36.6961 546.895 37.9233C546.937 39.1294 547.138 40.2508 547.498 41.2876C547.878 42.3244 548.481 43.1707 549.307 43.8267C550.153 44.4614 551.317 44.8 552.798 44.8423C554.448 44.8846 555.929 44.5461 557.241 43.8267C558.574 43.1073 559.791 42.1551 560.891 40.9702L563.557 44.5566C562.647 45.7204 561.589 46.6831 560.383 47.4448C559.198 48.2065 557.918 48.7673 556.543 49.127C555.168 49.4867 553.739 49.6559 552.258 49.6348ZM578.62 44.9058C579.995 44.9481 581.159 44.6624 582.111 44.0488C583.085 43.4352 583.868 42.61 584.46 41.5732C585.052 40.5365 585.486 39.4045 585.761 38.1772L590.903 38.1455C590.585 40.3037 589.855 42.2609 588.713 44.0171C587.591 45.7733 586.142 47.1698 584.365 48.2065C582.587 49.2222 580.567 49.7088 578.303 49.6665C576.018 49.6242 574.145 49.1481 572.685 48.2383C571.225 47.3073 570.104 46.0907 569.321 44.5884C568.559 43.0649 568.072 41.3722 567.861 39.5103C567.649 37.6483 567.66 35.7334 567.893 33.7656L568.4 29.8936C568.675 27.7988 569.162 25.7887 569.86 23.8633C570.559 21.9167 571.5 20.1922 572.685 18.6899C573.891 17.1877 575.362 16.0133 577.097 15.167C578.853 14.3206 580.916 13.9398 583.286 14.0244C585.677 14.0879 587.602 14.7015 589.062 15.8652C590.522 17.029 591.569 18.5524 592.204 20.4355C592.839 22.2975 593.114 24.3182 593.029 26.4976L587.888 26.4658C587.93 25.2809 587.835 24.1172 587.602 22.9746C587.369 21.8109 586.893 20.8481 586.174 20.0864C585.454 19.3035 584.386 18.8804 582.968 18.8169C581.36 18.7534 580.006 19.0391 578.906 19.6738C577.827 20.3086 576.949 21.1761 576.271 22.2764C575.594 23.3555 575.065 24.5615 574.685 25.8945C574.325 27.2275 574.06 28.5605 573.891 29.8936L573.383 33.7974C573.256 34.9399 573.172 36.146 573.129 37.4155C573.108 38.6851 573.235 39.8805 573.51 41.002C573.785 42.1234 574.325 43.0438 575.129 43.7632C575.933 44.4826 577.097 44.8634 578.62 44.9058ZM610.409 40.748L614.948 14.6592H620.438L614.472 49H609.267L610.409 40.748ZM612.472 33.7021L614.376 33.6387C614.144 35.5007 613.784 37.3944 613.297 39.3198C612.811 41.2241 612.102 42.9697 611.171 44.5566C610.261 46.1436 609.044 47.4131 607.521 48.3652C605.998 49.2962 604.093 49.73 601.808 49.6665C600.031 49.6242 598.613 49.2116 597.555 48.4287C596.497 47.6247 595.704 46.5985 595.175 45.3501C594.646 44.0806 594.328 42.7052 594.223 41.2241C594.117 39.7218 594.149 38.2513 594.318 36.8125L598.031 14.6592H603.49L599.777 36.9077C599.713 37.5848 599.671 38.3571 599.65 39.2246C599.629 40.0921 599.703 40.9385 599.872 41.7637C600.062 42.5677 600.401 43.2448 600.888 43.7949C601.396 44.3239 602.125 44.6095 603.078 44.6519C605.194 44.7576 606.897 44.2604 608.188 43.1602C609.478 42.0599 610.451 40.6528 611.107 38.939C611.785 37.2039 612.239 35.4583 612.472 33.7021ZM629.82 20.2769L624.837 49H619.347L625.313 14.6592H630.614L629.82 20.2769ZM638.993 14.437L638.39 19.896C637.988 19.8114 637.575 19.7373 637.152 19.6738C636.75 19.6104 636.348 19.5786 635.946 19.5786C634.697 19.5575 633.618 19.8008 632.708 20.3086C631.799 20.8164 631.016 21.4935 630.36 22.3398C629.725 23.1862 629.186 24.1172 628.741 25.1328C628.297 26.1484 627.937 27.1746 627.662 28.2114L626.043 29.1636C626.234 27.7248 626.53 26.1273 626.932 24.3711C627.355 22.5938 627.958 20.901 628.741 19.293C629.524 17.6637 630.55 16.3413 631.82 15.3257C633.089 14.3101 634.676 13.8446 636.581 13.9292C637.004 13.9504 637.406 14.0138 637.787 14.1196C638.189 14.2043 638.591 14.3101 638.993 14.437ZM647.2 14.6592L641.233 49H635.774L641.741 14.6592H647.2ZM643.011 5.61377C643.053 4.68278 643.349 3.87874 643.899 3.20166C644.45 2.50342 645.201 2.14372 646.153 2.12256C647.147 2.1014 647.92 2.42936 648.47 3.10645C649.02 3.78353 649.274 4.58757 649.231 5.51855C649.189 6.40723 648.882 7.1901 648.311 7.86719C647.74 8.52311 646.989 8.86165 646.058 8.88281C645.084 8.90397 644.323 8.59717 643.772 7.9624C643.243 7.30648 642.99 6.5236 643.011 5.61377ZM664.739 14.6592L663.945 19.166H648.33L649.155 14.6592H664.739ZM655.662 6.31201H661.152L655.344 40.5576C655.281 41.1077 655.26 41.6896 655.281 42.3032C655.302 42.9168 655.439 43.4352 655.693 43.8584C655.968 44.2816 656.466 44.5037 657.185 44.5249C657.566 44.5249 657.947 44.4932 658.328 44.4297C658.708 44.3451 659.079 44.271 659.438 44.2075L658.962 49.0317C658.391 49.2433 657.799 49.3914 657.185 49.4761C656.593 49.5819 655.99 49.6242 655.376 49.603C653.726 49.5819 652.488 49.0952 651.663 48.1431C650.859 47.1698 650.34 45.9849 650.107 44.5884C649.875 43.1707 649.822 41.7954 649.949 40.4624L655.662 6.31201ZM670.407 45.0962L683.007 14.6592H689.006L671.264 54.332C670.82 55.3477 670.291 56.3633 669.677 57.3789C669.085 58.4157 668.387 59.3573 667.583 60.2036C666.8 61.05 665.9 61.7271 664.885 62.2349C663.89 62.7427 662.769 62.986 661.521 62.9648C661.013 62.9648 660.505 62.9014 659.997 62.7744C659.468 62.6686 658.95 62.5417 658.442 62.3936L658.981 57.6328C659.172 57.6751 659.362 57.7069 659.553 57.728C659.743 57.7703 659.934 57.8021 660.124 57.8232C661.415 57.8867 662.504 57.6646 663.393 57.1567C664.282 56.6489 665.033 55.9507 665.646 55.062C666.26 54.1945 666.8 53.2212 667.265 52.1421L670.407 45.0962ZM670.82 14.6592L672.851 41.605L673.168 47.6987L669.074 49.7617L665.012 14.6592H670.82Z" fill="#9A0000"/>
</svg>
